<svg width="432" height="54" viewBox="0 0 432 54" fill="none" xmlns="http://www.w3.org/2000/svg">
<path d="M0.518 10.114C0.518 9.162 0.737333 8.308 1.176 7.552C1.624 6.796 2.226 6.208 2.982 5.788C3.74733 5.35867 4.58267 5.144 5.488 5.144C6.524 5.144 7.44333 5.40067 8.246 5.914C9.058 6.418 9.646 7.13667 10.01 8.07H8.092C7.84 7.55667 7.49 7.174 7.042 6.922C6.594 6.67 6.076 6.544 5.488 6.544C4.844 6.544 4.27 6.68867 3.766 6.978C3.262 7.26733 2.86533 7.68267 2.576 8.224C2.296 8.76533 2.156 9.39533 2.156 10.114C2.156 10.8327 2.296 11.4627 2.576 12.004C2.86533 12.5453 3.262 12.9653 3.766 13.264C4.27 13.5533 4.844 13.698 5.488 13.698C6.076 13.698 6.594 13.572 7.042 13.32C7.49 13.068 7.84 12.6853 8.092 12.172H10.01C9.646 13.1053 9.058 13.824 8.246 14.328C7.44333 14.832 6.524 15.084 5.488 15.084C4.57333 15.084 3.738 14.874 2.982 14.454C2.226 14.0247 1.624 13.432 1.176 12.676C0.737333 11.92 0.518 11.066 0.518 10.114ZM11.3461 11.108C11.3461 10.3333 11.5048 9.64733 11.8221 9.05C12.1488 8.45267 12.5875 7.99067 13.1381 7.664C13.6981 7.328 14.3141 7.16 14.9861 7.16C15.5928 7.16 16.1201 7.28133 16.5681 7.524C17.0255 7.75733 17.3895 8.05133 17.6601 8.406V7.286H19.2701V15H17.6601V13.852C17.3895 14.216 17.0208 14.5193 16.5541 14.762C16.0875 15.0047 15.5555 15.126 14.9581 15.126C14.2955 15.126 13.6888 14.958 13.1381 14.622C12.5875 14.2767 12.1488 13.8007 11.8221 13.194C11.5048 12.578 11.3461 11.8827 11.3461 11.108ZM17.6601 11.136C17.6601 10.604 17.5481 10.142 17.3241 9.75C17.1095 9.358 16.8248 9.05933 16.4701 8.854C16.1155 8.64867 15.7328 8.546 15.3221 8.546C14.9115 8.546 14.5288 8.64867 14.1741 8.854C13.8195 9.05 13.5301 9.344 13.3061 9.736C13.0915 10.1187 12.9841 10.576 12.9841 11.108C12.9841 11.64 13.0915 12.1067 13.3061 12.508C13.5301 12.9093 13.8195 13.2173 14.1741 13.432C14.5381 13.6373 14.9208 13.74 15.3221 13.74C15.7328 13.74 16.1155 13.6373 16.4701 13.432C16.8248 13.2267 17.1095 12.928 17.3241 12.536C17.5481 12.1347 17.6601 11.668 17.6601 11.136ZM23.2284 8.588V12.858C23.2284 13.1473 23.2937 13.3573 23.4244 13.488C23.5644 13.6093 23.7977 13.67 24.1244 13.67H25.1044V15H23.8444C23.1257 15 22.5751 14.832 22.1924 14.496C21.8097 14.16 21.6184 13.614 21.6184 12.858V8.588H20.7084V7.286H21.6184V5.368H23.2284V7.286H25.1044V8.588H23.2284ZM33.6454 10.954C33.6454 11.2433 33.6267 11.5047 33.5894 11.738H27.6954C27.7421 12.354 27.9707 12.8487 28.3814 13.222C28.7921 13.5953 29.2961 13.782 29.8934 13.782C30.7521 13.782 31.3587 13.4227 31.7134 12.704H33.4354C33.2021 13.4133 32.7774 13.9967 32.1614 14.454C31.5547 14.902 30.7987 15.126 29.8934 15.126C29.1561 15.126 28.4934 14.9627 27.9054 14.636C27.3267 14.3 26.8694 13.8333 26.5334 13.236C26.2067 12.6293 26.0434 11.9293 26.0434 11.136C26.0434 10.3427 26.2021 9.64733 26.5194 9.05C26.8461 8.44333 27.2987 7.97667 27.8774 7.65C28.4654 7.32333 29.1374 7.16 29.8934 7.16C30.6214 7.16 31.2701 7.31867 31.8394 7.636C32.4087 7.95333 32.8521 8.40133 33.1694 8.98C33.4867 9.54933 33.6454 10.2073 33.6454 10.954ZM31.9794 10.45C31.9701 9.862 31.7601 9.39067 31.3494 9.036C30.9387 8.68133 30.4301 8.504 29.8234 8.504C29.2727 8.504 28.8014 8.68133 28.4094 9.036C28.0174 9.38133 27.7841 9.85267 27.7094 10.45H31.9794ZM38.324 7.16C38.9213 7.16 39.4487 7.28133 39.906 7.524C40.3727 7.75733 40.7367 8.05133 40.998 8.406V7.286H42.608V15.126C42.608 15.8353 42.4587 16.4653 42.16 17.016C41.8613 17.576 41.4273 18.0147 40.858 18.332C40.298 18.6493 39.626 18.808 38.842 18.808C37.7967 18.808 36.9287 18.5607 36.238 18.066C35.5473 17.5807 35.1553 16.918 35.062 16.078H36.644C36.7653 16.4793 37.022 16.8013 37.414 17.044C37.8153 17.296 38.2913 17.422 38.842 17.422C39.486 17.422 40.004 17.226 40.396 16.834C40.7973 16.442 40.998 15.8727 40.998 15.126V13.838C40.7273 14.202 40.3587 14.51 39.892 14.762C39.4347 15.0047 38.912 15.126 38.324 15.126C37.652 15.126 37.036 14.958 36.476 14.622C35.9253 14.2767 35.4867 13.8007 35.16 13.194C34.8427 12.578 34.684 11.8827 34.684 11.108C34.684 10.3333 34.8427 9.64733 35.16 9.05C35.4867 8.45267 35.9253 7.99067 36.476 7.664C37.036 7.328 37.652 7.16 38.324 7.16ZM40.998 11.136C40.998 10.604 40.886 10.142 40.662 9.75C40.4473 9.358 40.1627 9.05933 39.808 8.854C39.4533 8.64867 39.0707 8.546 38.66 8.546C38.2493 8.546 37.8667 8.64867 37.512 8.854C37.1573 9.05 36.868 9.344 36.644 9.736C36.4293 10.1187 36.322 10.576 36.322 11.108C36.322 11.64 36.4293 12.1067 36.644 12.508C36.868 12.9093 37.1573 13.2173 37.512 13.432C37.876 13.6373 38.2587 13.74 38.66 13.74C39.0707 13.74 39.4533 13.6373 39.808 13.432C40.1627 13.2267 40.4473 12.928 40.662 12.536C40.886 12.1347 40.998 11.668 40.998 11.136ZM48.0503 15.126C47.3223 15.126 46.6643 14.9627 46.0763 14.636C45.4883 14.3 45.0263 13.8333 44.6903 13.236C44.3543 12.6293 44.1863 11.9293 44.1863 11.136C44.1863 10.352 44.359 9.65667 44.7043 9.05C45.0496 8.44333 45.521 7.97667 46.1183 7.65C46.7156 7.32333 47.383 7.16 48.1203 7.16C48.8576 7.16 49.525 7.32333 50.1223 7.65C50.7196 7.97667 51.191 8.44333 51.5363 9.05C51.8816 9.65667 52.0543 10.352 52.0543 11.136C52.0543 11.92 51.877 12.6153 51.5223 13.222C51.1676 13.8287 50.6823 14.3 50.0663 14.636C49.4596 14.9627 48.7876 15.126 48.0503 15.126ZM48.0503 13.74C48.461 13.74 48.8436 13.642 49.1983 13.446C49.5623 13.25 49.8563 12.956 50.0803 12.564C50.3043 12.172 50.4163 11.696 50.4163 11.136C50.4163 10.576 50.309 10.1047 50.0943 9.722C49.8796 9.33 49.595 9.036 49.2403 8.84C48.8856 8.644 48.503 8.546 48.0923 8.546C47.6816 8.546 47.299 8.644 46.9443 8.84C46.599 9.036 46.3236 9.33 46.1183 9.722C45.913 10.1047 45.8103 10.576 45.8103 11.136C45.8103 11.9667 46.0203 12.6107 46.4403 13.068C46.8696 13.516 47.4063 13.74 48.0503 13.74ZM55.228 8.406C55.4614 8.014 55.7694 7.71067 56.152 7.496C56.544 7.272 57.006 7.16 57.538 7.16V8.812H57.132C56.5067 8.812 56.0307 8.97067 55.704 9.288C55.3867 9.60533 55.228 10.156 55.228 10.94V15H53.632V7.286H55.228V8.406ZM65.9491 7.286L61.2171 18.626H59.5651L61.1331 14.874L58.0951 7.286H59.8731L62.0431 13.166L64.2971 7.286H65.9491ZM67.7975 15.098C67.5082 15.098 67.2655 15 67.0695 14.804C66.8735 14.608 66.7755 14.3653 66.7755 14.076C66.7755 13.7867 66.8735 13.544 67.0695 13.348C67.2655 13.152 67.5082 13.054 67.7975 13.054C68.0775 13.054 68.3155 13.152 68.5115 13.348C68.7075 13.544 68.8055 13.7867 68.8055 14.076C68.8055 14.3653 68.7075 14.608 68.5115 14.804C68.3155 15 68.0775 15.098 67.7975 15.098ZM67.7975 9.218C67.5082 9.218 67.2655 9.12 67.0695 8.924C66.8735 8.728 66.7755 8.48533 66.7755 8.196C66.7755 7.90667 66.8735 7.664 67.0695 7.468C67.2655 7.272 67.5082 7.174 67.7975 7.174C68.0775 7.174 68.3155 7.272 68.5115 7.468C68.7075 7.664 68.8055 7.90667 68.8055 8.196C68.8055 8.48533 68.7075 8.728 68.5115 8.924C68.3155 9.12 68.0775 9.218 67.7975 9.218Z" fill="#1A1A1A"/>
<path d="M85.142 5.242L81.46 15H79.99L76.308 5.242H77.666L80.732 13.656L83.798 5.242H85.142ZM93.5389 10.87C93.5389 11.1127 93.5249 11.3693 93.4969 11.64H87.3649C87.4116 12.396 87.6683 12.9887 88.1349 13.418C88.6109 13.838 89.1849 14.048 89.8569 14.048C90.4076 14.048 90.8649 13.922 91.2289 13.67C91.6023 13.4087 91.8636 13.0633 92.0129 12.634H93.3849C93.1796 13.3713 92.7689 13.9733 92.1529 14.44C91.5369 14.8973 90.7716 15.126 89.8569 15.126C89.1289 15.126 88.4756 14.9627 87.8969 14.636C87.3276 14.3093 86.8796 13.8473 86.5529 13.25C86.2263 12.6433 86.0629 11.9433 86.0629 11.15C86.0629 10.3567 86.2216 9.66133 86.5389 9.064C86.8563 8.46667 87.2996 8.00933 87.8689 7.692C88.4476 7.36533 89.1103 7.202 89.8569 7.202C90.5849 7.202 91.2289 7.36067 91.7889 7.678C92.3489 7.99533 92.7783 8.434 93.0769 8.994C93.3849 9.54467 93.5389 10.17 93.5389 10.87ZM92.2229 10.604C92.2229 10.1187 92.1156 9.70333 91.9009 9.358C91.6863 9.00333 91.3923 8.73733 91.0189 8.56C90.6549 8.37333 90.2489 8.28 89.8009 8.28C89.1569 8.28 88.6063 8.48533 88.1489 8.896C87.7009 9.30667 87.4443 9.876 87.3789 10.604H92.2229ZM98.3846 7.202C99.0472 7.202 99.6259 7.34667 100.121 7.636C100.625 7.92533 100.998 8.28933 101.241 8.728V7.328H102.529V15.168C102.529 15.868 102.379 16.4887 102.081 17.03C101.782 17.5807 101.353 18.01 100.793 18.318C100.242 18.626 99.5979 18.78 98.8606 18.78C97.8526 18.78 97.0126 18.542 96.3406 18.066C95.6686 17.59 95.2719 16.9413 95.1506 16.12H96.4106C96.5506 16.5867 96.8399 16.96 97.2786 17.24C97.7172 17.5293 98.2446 17.674 98.8606 17.674C99.5606 17.674 100.13 17.4547 100.569 17.016C101.017 16.5773 101.241 15.9613 101.241 15.168V13.558C100.989 14.006 100.615 14.3793 100.121 14.678C99.6259 14.9767 99.0472 15.126 98.3846 15.126C97.7032 15.126 97.0826 14.958 96.5226 14.622C95.9719 14.286 95.5379 13.8147 95.2206 13.208C94.9032 12.6013 94.7446 11.9107 94.7446 11.136C94.7446 10.352 94.9032 9.666 95.2206 9.078C95.5379 8.48067 95.9719 8.01867 96.5226 7.692C97.0826 7.36533 97.7032 7.202 98.3846 7.202ZM101.241 11.15C101.241 10.5713 101.124 10.0673 100.891 9.638C100.657 9.20867 100.34 8.882 99.9386 8.658C99.5466 8.42467 99.1126 8.308 98.6366 8.308C98.1606 8.308 97.7266 8.42 97.3346 8.644C96.9426 8.868 96.6299 9.19467 96.3966 9.624C96.1632 10.0533 96.0466 10.5573 96.0466 11.136C96.0466 11.724 96.1632 12.2373 96.3966 12.676C96.6299 13.1053 96.9426 13.4367 97.3346 13.67C97.7266 13.894 98.1606 14.006 98.6366 14.006C99.1126 14.006 99.5466 13.894 99.9386 13.67C100.34 13.4367 100.657 13.1053 100.891 12.676C101.124 12.2373 101.241 11.7287 101.241 11.15ZM111.682 10.87C111.682 11.1127 111.668 11.3693 111.64 11.64H105.508C105.554 12.396 105.811 12.9887 106.278 13.418C106.754 13.838 107.328 14.048 108 14.048C108.55 14.048 109.008 13.922 109.372 13.67C109.745 13.4087 110.006 13.0633 110.156 12.634H111.528C111.322 13.3713 110.912 13.9733 110.296 14.44C109.68 14.8973 108.914 15.126 108 15.126C107.272 15.126 106.618 14.9627 106.04 14.636C105.47 14.3093 105.022 13.8473 104.696 13.25C104.369 12.6433 104.206 11.9433 104.206 11.15C104.206 10.3567 104.364 9.66133 104.682 9.064C104.999 8.46667 105.442 8.00933 106.012 7.692C106.59 7.36533 107.253 7.202 108 7.202C108.728 7.202 109.372 7.36067 109.932 7.678C110.492 7.99533 110.921 8.434 111.22 8.994C111.528 9.54467 111.682 10.17 111.682 10.87ZM110.366 10.604C110.366 10.1187 110.258 9.70333 110.044 9.358C109.829 9.00333 109.535 8.73733 109.162 8.56C108.798 8.37333 108.392 8.28 107.944 8.28C107.3 8.28 106.749 8.48533 106.292 8.896C105.844 9.30667 105.587 9.876 105.522 10.604H110.366ZM114.917 8.378V12.9C114.917 13.2733 114.996 13.5393 115.155 13.698C115.314 13.8473 115.589 13.922 115.981 13.922H116.919V15H115.771C115.062 15 114.53 14.8367 114.175 14.51C113.82 14.1833 113.643 13.6467 113.643 12.9V8.378H112.649V7.328H113.643V5.396H114.917V7.328H116.919V8.378H114.917ZM117.987 11.136C117.987 10.352 118.145 9.666 118.463 9.078C118.78 8.48067 119.214 8.01867 119.765 7.692C120.325 7.36533 120.945 7.202 121.627 7.202C122.299 7.202 122.882 7.34667 123.377 7.636C123.871 7.92533 124.24 8.28933 124.483 8.728V7.328H125.771V15H124.483V13.572C124.231 14.02 123.853 14.3933 123.349 14.692C122.854 14.9813 122.275 15.126 121.613 15.126C120.931 15.126 120.315 14.958 119.765 14.622C119.214 14.286 118.78 13.8147 118.463 13.208C118.145 12.6013 117.987 11.9107 117.987 11.136ZM124.483 11.15C124.483 10.5713 124.366 10.0673 124.133 9.638C123.899 9.20867 123.582 8.882 123.181 8.658C122.789 8.42467 122.355 8.308 121.879 8.308C121.403 8.308 120.969 8.42 120.577 8.644C120.185 8.868 119.872 9.19467 119.639 9.624C119.405 10.0533 119.289 10.5573 119.289 11.136C119.289 11.724 119.405 12.2373 119.639 12.676C119.872 13.1053 120.185 13.4367 120.577 13.67C120.969 13.894 121.403 14.006 121.879 14.006C122.355 14.006 122.789 13.894 123.181 13.67C123.582 13.4367 123.899 13.1053 124.133 12.676C124.366 12.2373 124.483 11.7287 124.483 11.15ZM129.198 8.756C129.459 8.29867 129.842 7.92533 130.346 7.636C130.85 7.34667 131.424 7.202 132.068 7.202C132.758 7.202 133.379 7.36533 133.93 7.692C134.48 8.01867 134.914 8.48067 135.232 9.078C135.549 9.666 135.708 10.352 135.708 11.136C135.708 11.9107 135.549 12.6013 135.232 13.208C134.914 13.8147 134.476 14.286 133.916 14.622C133.365 14.958 132.749 15.126 132.068 15.126C131.405 15.126 130.822 14.9813 130.318 14.692C129.823 14.4027 129.45 14.034 129.198 13.586V15H127.924V4.64H129.198V8.756ZM134.406 11.136C134.406 10.5573 134.289 10.0533 134.056 9.624C133.822 9.19467 133.505 8.868 133.104 8.644C132.712 8.42 132.278 8.308 131.802 8.308C131.335 8.308 130.901 8.42467 130.5 8.658C130.108 8.882 129.79 9.21333 129.548 9.652C129.314 10.0813 129.198 10.5807 129.198 11.15C129.198 11.7287 129.314 12.2373 129.548 12.676C129.79 13.1053 130.108 13.4367 130.5 13.67C130.901 13.894 131.335 14.006 131.802 14.006C132.278 14.006 132.712 13.894 133.104 13.67C133.505 13.4367 133.822 13.1053 134.056 12.676C134.289 12.2373 134.406 11.724 134.406 11.136ZM138.659 4.64V15H137.385V4.64H138.659ZM147.83 10.87C147.83 11.1127 147.816 11.3693 147.788 11.64H141.656C141.703 12.396 141.959 12.9887 142.426 13.418C142.902 13.838 143.476 14.048 144.148 14.048C144.699 14.048 145.156 13.922 145.52 13.67C145.893 13.4087 146.155 13.0633 146.304 12.634H147.676C147.471 13.3713 147.06 13.9733 146.444 14.44C145.828 14.8973 145.063 15.126 144.148 15.126C143.42 15.126 142.767 14.9627 142.188 14.636C141.619 14.3093 141.171 13.8473 140.844 13.25C140.517 12.6433 140.354 11.9433 140.354 11.15C140.354 10.3567 140.513 9.66133 140.83 9.064C141.147 8.46667 141.591 8.00933 142.16 7.692C142.739 7.36533 143.401 7.202 144.148 7.202C144.876 7.202 145.52 7.36067 146.08 7.678C146.64 7.99533 147.069 8.434 147.368 8.994C147.676 9.54467 147.83 10.17 147.83 10.87ZM146.514 10.604C146.514 10.1187 146.407 9.70333 146.192 9.358C145.977 9.00333 145.683 8.73733 145.31 8.56C144.946 8.37333 144.54 8.28 144.092 8.28C143.448 8.28 142.897 8.48533 142.44 8.896C141.992 9.30667 141.735 9.876 141.67 10.604H146.514ZM152.228 15.126C151.64 15.126 151.112 15.028 150.646 14.832C150.179 14.6267 149.81 14.3467 149.54 13.992C149.269 13.628 149.12 13.2127 149.092 12.746H150.408C150.445 13.1287 150.622 13.4413 150.94 13.684C151.266 13.9267 151.691 14.048 152.214 14.048C152.699 14.048 153.082 13.9407 153.362 13.726C153.642 13.5113 153.782 13.2407 153.782 12.914C153.782 12.578 153.632 12.3307 153.334 12.172C153.035 12.004 152.573 11.8407 151.948 11.682C151.378 11.5327 150.912 11.3833 150.548 11.234C150.193 11.0753 149.885 10.8467 149.624 10.548C149.372 10.24 149.246 9.83867 149.246 9.344C149.246 8.952 149.362 8.59267 149.596 8.266C149.829 7.93933 150.16 7.68267 150.59 7.496C151.019 7.3 151.509 7.202 152.06 7.202C152.909 7.202 153.595 7.41667 154.118 7.846C154.64 8.27533 154.92 8.86333 154.958 9.61H153.684C153.656 9.20867 153.492 8.88667 153.194 8.644C152.904 8.40133 152.512 8.28 152.018 8.28C151.56 8.28 151.196 8.378 150.926 8.574C150.655 8.77 150.52 9.02667 150.52 9.344C150.52 9.596 150.599 9.806 150.758 9.974C150.926 10.1327 151.131 10.2633 151.374 10.366C151.626 10.4593 151.971 10.5667 152.41 10.688C152.96 10.8373 153.408 10.9867 153.754 11.136C154.099 11.276 154.393 11.4907 154.636 11.78C154.888 12.0693 155.018 12.4473 155.028 12.914C155.028 13.334 154.911 13.712 154.678 14.048C154.444 14.384 154.113 14.65 153.684 14.846C153.264 15.0327 152.778 15.126 152.228 15.126Z" fill="#808080"/>
<path d="M7.336 38.27V39.572H4.746V48H3.15V39.572H0.546V38.27H7.336ZM8.42034 44.108C8.42034 43.3333 8.57901 42.6473 8.89634 42.05C9.22301 41.4527 9.66168 40.9907 10.2123 40.664C10.7723 40.328 11.3883 40.16 12.0603 40.16C12.667 40.16 13.1943 40.2813 13.6423 40.524C14.0997 40.7573 14.4637 41.0513 14.7343 41.406V40.286H16.3443V48H14.7343V46.852C14.4637 47.216 14.095 47.5193 13.6283 47.762C13.1617 48.0047 12.6297 48.126 12.0323 48.126C11.3697 48.126 10.763 47.958 10.2123 47.622C9.66168 47.2767 9.22301 46.8007 8.89634 46.194C8.57901 45.578 8.42034 44.8827 8.42034 44.108ZM14.7343 44.136C14.7343 43.604 14.6223 43.142 14.3983 42.75C14.1837 42.358 13.899 42.0593 13.5443 41.854C13.1897 41.6487 12.807 41.546 12.3963 41.546C11.9857 41.546 11.603 41.6487 11.2483 41.854C10.8937 42.05 10.6043 42.344 10.3803 42.736C10.1657 43.1187 10.0583 43.576 10.0583 44.108C10.0583 44.64 10.1657 45.1067 10.3803 45.508C10.6043 45.9093 10.8937 46.2173 11.2483 46.432C11.6123 46.6373 11.995 46.74 12.3963 46.74C12.807 46.74 13.1897 46.6373 13.5443 46.432C13.899 46.2267 14.1837 45.928 14.3983 45.536C14.6223 45.1347 14.7343 44.668 14.7343 44.136ZM21.5486 40.16C22.146 40.16 22.6733 40.2813 23.1306 40.524C23.5973 40.7573 23.9613 41.0513 24.2226 41.406V40.286H25.8326V48.126C25.8326 48.8353 25.6833 49.4653 25.3846 50.016C25.086 50.576 24.652 51.0147 24.0826 51.332C23.5226 51.6493 22.8506 51.808 22.0666 51.808C21.0213 51.808 20.1533 51.5607 19.4626 51.066C18.772 50.5807 18.38 49.918 18.2866 49.078H19.8686C19.99 49.4793 20.2466 49.8013 20.6386 50.044C21.04 50.296 21.516 50.422 22.0666 50.422C22.7106 50.422 23.2286 50.226 23.6206 49.834C24.022 49.442 24.2226 48.8727 24.2226 48.126V46.838C23.952 47.202 23.5833 47.51 23.1166 47.762C22.6593 48.0047 22.1366 48.126 21.5486 48.126C20.8766 48.126 20.2606 47.958 19.7006 47.622C19.15 47.2767 18.7113 46.8007 18.3846 46.194C18.0673 45.578 17.9086 44.8827 17.9086 44.108C17.9086 43.3333 18.0673 42.6473 18.3846 42.05C18.7113 41.4527 19.15 40.9907 19.7006 40.664C20.2606 40.328 20.8766 40.16 21.5486 40.16ZM24.2226 44.136C24.2226 43.604 24.1106 43.142 23.8866 42.75C23.672 42.358 23.3873 42.0593 23.0326 41.854C22.678 41.6487 22.2953 41.546 21.8846 41.546C21.474 41.546 21.0913 41.6487 20.7366 41.854C20.382 42.05 20.0926 42.344 19.8686 42.736C19.654 43.1187 19.5466 43.576 19.5466 44.108C19.5466 44.64 19.654 45.1067 19.8686 45.508C20.0926 45.9093 20.382 46.2173 20.7366 46.432C21.1006 46.6373 21.4833 46.74 21.8846 46.74C22.2953 46.74 22.678 46.6373 23.0326 46.432C23.3873 46.2267 23.672 45.928 23.8866 45.536C24.1106 45.1347 24.2226 44.668 24.2226 44.136ZM28.5729 48.098C28.2836 48.098 28.0409 48 27.8449 47.804C27.6489 47.608 27.5509 47.3653 27.5509 47.076C27.5509 46.7867 27.6489 46.544 27.8449 46.348C28.0409 46.152 28.2836 46.054 28.5729 46.054C28.8529 46.054 29.0909 46.152 29.2869 46.348C29.4829 46.544 29.5809 46.7867 29.5809 47.076C29.5809 47.3653 29.4829 47.608 29.2869 47.804C29.0909 48 28.8529 48.098 28.5729 48.098ZM28.5729 42.218C28.2836 42.218 28.0409 42.12 27.8449 41.924C27.6489 41.728 27.5509 41.4853 27.5509 41.196C27.5509 40.9067 27.6489 40.664 27.8449 40.468C28.0409 40.272 28.2836 40.174 28.5729 40.174C28.8529 40.174 29.0909 40.272 29.2869 40.468C29.4829 40.664 29.5809 40.9067 29.5809 41.196C29.5809 41.4853 29.4829 41.728 29.2869 41.924C29.0909 42.12 28.8529 42.218 28.5729 42.218Z" fill="#1A1A1A"/>
<path d="M46.142 38.242L42.46 48H40.99L37.308 38.242H38.666L41.732 46.656L44.798 38.242H46.142ZM54.5389 43.87C54.5389 44.1127 54.5249 44.3693 54.4969 44.64H48.3649C48.4116 45.396 48.6683 45.9887 49.1349 46.418C49.6109 46.838 50.1849 47.048 50.8569 47.048C51.4076 47.048 51.8649 46.922 52.2289 46.67C52.6023 46.4087 52.8636 46.0633 53.0129 45.634H54.3849C54.1796 46.3713 53.7689 46.9733 53.1529 47.44C52.5369 47.8973 51.7716 48.126 50.8569 48.126C50.1289 48.126 49.4756 47.9627 48.8969 47.636C48.3276 47.3093 47.8796 46.8473 47.5529 46.25C47.2263 45.6433 47.0629 44.9433 47.0629 44.15C47.0629 43.3567 47.2216 42.6613 47.5389 42.064C47.8563 41.4667 48.2996 41.0093 48.8689 40.692C49.4476 40.3653 50.1103 40.202 50.8569 40.202C51.5849 40.202 52.2289 40.3607 52.7889 40.678C53.3489 40.9953 53.7783 41.434 54.0769 41.994C54.3849 42.5447 54.5389 43.17 54.5389 43.87ZM53.2229 43.604C53.2229 43.1187 53.1156 42.7033 52.9009 42.358C52.6863 42.0033 52.3923 41.7373 52.0189 41.56C51.6549 41.3733 51.2489 41.28 50.8009 41.28C50.1569 41.28 49.6063 41.4853 49.1489 41.896C48.7009 42.3067 48.4443 42.876 48.3789 43.604H53.2229ZM59.3846 40.202C60.0472 40.202 60.6259 40.3467 61.1206 40.636C61.6246 40.9253 61.9979 41.2893 62.2406 41.728V40.328H63.5286V48.168C63.5286 48.868 63.3792 49.4887 63.0806 50.03C62.7819 50.5807 62.3526 51.01 61.7926 51.318C61.2419 51.626 60.5979 51.78 59.8606 51.78C58.8526 51.78 58.0126 51.542 57.3406 51.066C56.6686 50.59 56.2719 49.9413 56.1506 49.12H57.4106C57.5506 49.5867 57.8399 49.96 58.2786 50.24C58.7172 50.5293 59.2446 50.674 59.8606 50.674C60.5606 50.674 61.1299 50.4547 61.5686 50.016C62.0166 49.5773 62.2406 48.9613 62.2406 48.168V46.558C61.9886 47.006 61.6152 47.3793 61.1206 47.678C60.6259 47.9767 60.0472 48.126 59.3846 48.126C58.7032 48.126 58.0826 47.958 57.5226 47.622C56.9719 47.286 56.5379 46.8147 56.2206 46.208C55.9032 45.6013 55.7446 44.9107 55.7446 44.136C55.7446 43.352 55.9032 42.666 56.2206 42.078C56.5379 41.4807 56.9719 41.0187 57.5226 40.692C58.0826 40.3653 58.7032 40.202 59.3846 40.202ZM62.2406 44.15C62.2406 43.5713 62.1239 43.0673 61.8906 42.638C61.6572 42.2087 61.3399 41.882 60.9386 41.658C60.5466 41.4247 60.1126 41.308 59.6366 41.308C59.1606 41.308 58.7266 41.42 58.3346 41.644C57.9426 41.868 57.6299 42.1947 57.3966 42.624C57.1632 43.0533 57.0466 43.5573 57.0466 44.136C57.0466 44.724 57.1632 45.2373 57.3966 45.676C57.6299 46.1053 57.9426 46.4367 58.3346 46.67C58.7266 46.894 59.1606 47.006 59.6366 47.006C60.1126 47.006 60.5466 46.894 60.9386 46.67C61.3399 46.4367 61.6572 46.1053 61.8906 45.676C62.1239 45.2373 62.2406 44.7287 62.2406 44.15ZM72.6815 43.87C72.6815 44.1127 72.6675 44.3693 72.6395 44.64H66.5075C66.5542 45.396 66.8108 45.9887 67.2775 46.418C67.7535 46.838 68.3275 47.048 68.9995 47.048C69.5502 47.048 70.0075 46.922 70.3715 46.67C70.7448 46.4087 71.0062 46.0633 71.1555 45.634H72.5275C72.3222 46.3713 71.9115 46.9733 71.2955 47.44C70.6795 47.8973 69.9142 48.126 68.9995 48.126C68.2715 48.126 67.6182 47.9627 67.0395 47.636C66.4702 47.3093 66.0222 46.8473 65.6955 46.25C65.3688 45.6433 65.2055 44.9433 65.2055 44.15C65.2055 43.3567 65.3642 42.6613 65.6815 42.064C65.9988 41.4667 66.4422 41.0093 67.0115 40.692C67.5902 40.3653 68.2528 40.202 68.9995 40.202C69.7275 40.202 70.3715 40.3607 70.9315 40.678C71.4915 40.9953 71.9208 41.434 72.2195 41.994C72.5275 42.5447 72.6815 43.17 72.6815 43.87ZM71.3655 43.604C71.3655 43.1187 71.2582 42.7033 71.0435 42.358C70.8288 42.0033 70.5348 41.7373 70.1615 41.56C69.7975 41.3733 69.3915 41.28 68.9435 41.28C68.2995 41.28 67.7488 41.4853 67.2915 41.896C66.8435 42.3067 66.5868 42.876 66.5215 43.604H71.3655ZM75.9172 41.378V45.9C75.9172 46.2733 75.9965 46.5393 76.1552 46.698C76.3138 46.8473 76.5892 46.922 76.9812 46.922H77.9192V48H76.7712C76.0618 48 75.5298 47.8367 75.1752 47.51C74.8205 47.1833 74.6432 46.6467 74.6432 45.9V41.378H73.6492V40.328H74.6432V38.396H75.9172V40.328H77.9192V41.378H75.9172ZM78.9868 44.136C78.9868 43.352 79.1454 42.666 79.4628 42.078C79.7801 41.4807 80.2141 41.0187 80.7648 40.692C81.3248 40.3653 81.9454 40.202 82.6268 40.202C83.2988 40.202 83.8821 40.3467 84.3768 40.636C84.8714 40.9253 85.2401 41.2893 85.4828 41.728V40.328H86.7708V48H85.4828V46.572C85.2308 47.02 84.8528 47.3933 84.3488 47.692C83.8541 47.9813 83.2754 48.126 82.6128 48.126C81.9314 48.126 81.3154 47.958 80.7648 47.622C80.2141 47.286 79.7801 46.8147 79.4628 46.208C79.1454 45.6013 78.9868 44.9107 78.9868 44.136ZM85.4828 44.15C85.4828 43.5713 85.3661 43.0673 85.1328 42.638C84.8994 42.2087 84.5821 41.882 84.1808 41.658C83.7888 41.4247 83.3548 41.308 82.8788 41.308C82.4028 41.308 81.9688 41.42 81.5768 41.644C81.1848 41.868 80.8721 42.1947 80.6388 42.624C80.4054 43.0533 80.2888 43.5573 80.2888 44.136C80.2888 44.724 80.4054 45.2373 80.6388 45.676C80.8721 46.1053 81.1848 46.4367 81.5768 46.67C81.9688 46.894 82.4028 47.006 82.8788 47.006C83.3548 47.006 83.7888 46.894 84.1808 46.67C84.5821 46.4367 84.8994 46.1053 85.1328 45.676C85.3661 45.2373 85.4828 44.7287 85.4828 44.15ZM90.1977 41.756C90.459 41.2987 90.8417 40.9253 91.3457 40.636C91.8497 40.3467 92.4237 40.202 93.0677 40.202C93.7584 40.202 94.379 40.3653 94.9297 40.692C95.4804 41.0187 95.9144 41.4807 96.2317 42.078C96.549 42.666 96.7077 43.352 96.7077 44.136C96.7077 44.9107 96.549 45.6013 96.2317 46.208C95.9144 46.8147 95.4757 47.286 94.9157 47.622C94.365 47.958 93.749 48.126 93.0677 48.126C92.405 48.126 91.8217 47.9813 91.3177 47.692C90.823 47.4027 90.4497 47.034 90.1977 46.586V48H88.9237V37.64H90.1977V41.756ZM95.4057 44.136C95.4057 43.5573 95.289 43.0533 95.0557 42.624C94.8224 42.1947 94.505 41.868 94.1037 41.644C93.7117 41.42 93.2777 41.308 92.8017 41.308C92.335 41.308 91.901 41.4247 91.4997 41.658C91.1077 41.882 90.7904 42.2133 90.5477 42.652C90.3144 43.0813 90.1977 43.5807 90.1977 44.15C90.1977 44.7287 90.3144 45.2373 90.5477 45.676C90.7904 46.1053 91.1077 46.4367 91.4997 46.67C91.901 46.894 92.335 47.006 92.8017 47.006C93.2777 47.006 93.7117 46.894 94.1037 46.67C94.505 46.4367 94.8224 46.1053 95.0557 45.676C95.289 45.2373 95.4057 44.724 95.4057 44.136ZM99.6586 37.64V48H98.3846V37.64H99.6586ZM108.83 43.87C108.83 44.1127 108.816 44.3693 108.788 44.64H102.656C102.703 45.396 102.959 45.9887 103.426 46.418C103.902 46.838 104.476 47.048 105.148 47.048C105.699 47.048 106.156 46.922 106.52 46.67C106.893 46.4087 107.155 46.0633 107.304 45.634H108.676C108.471 46.3713 108.06 46.9733 107.444 47.44C106.828 47.8973 106.063 48.126 105.148 48.126C104.42 48.126 103.767 47.9627 103.188 47.636C102.619 47.3093 102.171 46.8473 101.844 46.25C101.517 45.6433 101.354 44.9433 101.354 44.15C101.354 43.3567 101.513 42.6613 101.83 42.064C102.147 41.4667 102.591 41.0093 103.16 40.692C103.739 40.3653 104.401 40.202 105.148 40.202C105.876 40.202 106.52 40.3607 107.08 40.678C107.64 40.9953 108.069 41.434 108.368 41.994C108.676 42.5447 108.83 43.17 108.83 43.87ZM107.514 43.604C107.514 43.1187 107.407 42.7033 107.192 42.358C106.977 42.0033 106.683 41.7373 106.31 41.56C105.946 41.3733 105.54 41.28 105.092 41.28C104.448 41.28 103.897 41.4853 103.44 41.896C102.992 42.3067 102.735 42.876 102.67 43.604H107.514ZM113.228 48.126C112.64 48.126 112.112 48.028 111.646 47.832C111.179 47.6267 110.81 47.3467 110.54 46.992C110.269 46.628 110.12 46.2127 110.092 45.746H111.408C111.445 46.1287 111.622 46.4413 111.94 46.684C112.266 46.9267 112.691 47.048 113.214 47.048C113.699 47.048 114.082 46.9407 114.362 46.726C114.642 46.5113 114.782 46.2407 114.782 45.914C114.782 45.578 114.632 45.3307 114.334 45.172C114.035 45.004 113.573 44.8407 112.948 44.682C112.378 44.5327 111.912 44.3833 111.548 44.234C111.193 44.0753 110.885 43.8467 110.624 43.548C110.372 43.24 110.246 42.8387 110.246 42.344C110.246 41.952 110.362 41.5927 110.596 41.266C110.829 40.9393 111.16 40.6827 111.59 40.496C112.019 40.3 112.509 40.202 113.06 40.202C113.909 40.202 114.595 40.4167 115.118 40.846C115.64 41.2753 115.92 41.8633 115.958 42.61H114.684C114.656 42.2087 114.492 41.8867 114.194 41.644C113.904 41.4013 113.512 41.28 113.018 41.28C112.56 41.28 112.196 41.378 111.926 41.574C111.655 41.77 111.52 42.0267 111.52 42.344C111.52 42.596 111.599 42.806 111.758 42.974C111.926 43.1327 112.131 43.2633 112.374 43.366C112.626 43.4593 112.971 43.5667 113.41 43.688C113.96 43.8373 114.408 43.9867 114.754 44.136C115.099 44.276 115.393 44.4907 115.636 44.78C115.888 45.0693 116.018 45.4473 116.028 45.914C116.028 46.334 115.911 46.712 115.678 47.048C115.444 47.384 115.113 47.65 114.684 47.846C114.264 48.0327 113.778 48.126 113.228 48.126Z" fill="#808080"/>
<path d="M131.596 38.242V48H130.322V43.576H125.352V48H124.078V38.242H125.352V42.526H130.322V38.242H131.596ZM140.771 43.87C140.771 44.1127 140.757 44.3693 140.729 44.64H134.597C134.644 45.396 134.901 45.9887 135.367 46.418C135.843 46.838 136.417 47.048 137.089 47.048C137.64 47.048 138.097 46.922 138.461 46.67C138.835 46.4087 139.096 46.0633 139.245 45.634H140.617C140.412 46.3713 140.001 46.9733 139.385 47.44C138.769 47.8973 138.004 48.126 137.089 48.126C136.361 48.126 135.708 47.9627 135.129 47.636C134.56 47.3093 134.112 46.8473 133.785 46.25C133.459 45.6433 133.295 44.9433 133.295 44.15C133.295 43.3567 133.454 42.6613 133.771 42.064C134.089 41.4667 134.532 41.0093 135.101 40.692C135.68 40.3653 136.343 40.202 137.089 40.202C137.817 40.202 138.461 40.3607 139.021 40.678C139.581 40.9953 140.011 41.434 140.309 41.994C140.617 42.5447 140.771 43.17 140.771 43.87ZM139.455 43.604C139.455 43.1187 139.348 42.7033 139.133 42.358C138.919 42.0033 138.625 41.7373 138.251 41.56C137.887 41.3733 137.481 41.28 137.033 41.28C136.389 41.28 135.839 41.4853 135.381 41.896C134.933 42.3067 134.677 42.876 134.611 43.604H139.455ZM141.977 44.136C141.977 43.352 142.136 42.666 142.453 42.078C142.77 41.4807 143.204 41.0187 143.755 40.692C144.315 40.3653 144.936 40.202 145.617 40.202C146.289 40.202 146.872 40.3467 147.367 40.636C147.862 40.9253 148.23 41.2893 148.473 41.728V40.328H149.761V48H148.473V46.572C148.221 47.02 147.843 47.3933 147.339 47.692C146.844 47.9813 146.266 48.126 145.603 48.126C144.922 48.126 144.306 47.958 143.755 47.622C143.204 47.286 142.77 46.8147 142.453 46.208C142.136 45.6013 141.977 44.9107 141.977 44.136ZM148.473 44.15C148.473 43.5713 148.356 43.0673 148.123 42.638C147.89 42.2087 147.572 41.882 147.171 41.658C146.779 41.4247 146.345 41.308 145.869 41.308C145.393 41.308 144.959 41.42 144.567 41.644C144.175 41.868 143.862 42.1947 143.629 42.624C143.396 43.0533 143.279 43.5573 143.279 44.136C143.279 44.724 143.396 45.2373 143.629 45.676C143.862 46.1053 144.175 46.4367 144.567 46.67C144.959 46.894 145.393 47.006 145.869 47.006C146.345 47.006 146.779 46.894 147.171 46.67C147.572 46.4367 147.89 46.1053 148.123 45.676C148.356 45.2373 148.473 44.7287 148.473 44.15ZM153.188 37.64V48H151.914V37.64H153.188ZM156.913 41.378V45.9C156.913 46.2733 156.993 46.5393 157.151 46.698C157.31 46.8473 157.585 46.922 157.977 46.922H158.915V48H157.767C157.058 48 156.526 47.8367 156.171 47.51C155.817 47.1833 155.639 46.6467 155.639 45.9V41.378H154.645V40.328H155.639V38.396H156.913V40.328H158.915V41.378H156.913ZM164.267 40.188C164.846 40.188 165.368 40.314 165.835 40.566C166.302 40.8087 166.666 41.1773 166.927 41.672C167.198 42.1667 167.333 42.7687 167.333 43.478V48H166.073V43.66C166.073 42.8947 165.882 42.3113 165.499 41.91C165.116 41.4993 164.594 41.294 163.931 41.294C163.259 41.294 162.722 41.504 162.321 41.924C161.929 42.344 161.733 42.9553 161.733 43.758V48H160.459V37.64H161.733V41.42C161.985 41.028 162.33 40.7247 162.769 40.51C163.217 40.2953 163.716 40.188 164.267 40.188ZM176.022 40.328L171.402 51.612H170.086L171.598 47.916L168.504 40.328H169.918L172.326 46.544L174.706 40.328H176.022Z" fill="#808080"/>
<path d="M183.602 43.114C183.602 42.162 183.817 41.308 184.246 40.552C184.675 39.7867 185.259 39.1893 185.996 38.76C186.743 38.3307 187.569 38.116 188.474 38.116C189.538 38.116 190.467 38.3727 191.26 38.886C192.053 39.3993 192.632 40.1273 192.996 41.07H191.47C191.199 40.482 190.807 40.0293 190.294 39.712C189.79 39.3947 189.183 39.236 188.474 39.236C187.793 39.236 187.181 39.3947 186.64 39.712C186.099 40.0293 185.674 40.482 185.366 41.07C185.058 41.6487 184.904 42.33 184.904 43.114C184.904 43.8887 185.058 44.57 185.366 45.158C185.674 45.7367 186.099 46.1847 186.64 46.502C187.181 46.8193 187.793 46.978 188.474 46.978C189.183 46.978 189.79 46.824 190.294 46.516C190.807 46.1987 191.199 45.746 191.47 45.158H192.996C192.632 46.0913 192.053 46.8147 191.26 47.328C190.467 47.832 189.538 48.084 188.474 48.084C187.569 48.084 186.743 47.874 185.996 47.454C185.259 47.0247 184.675 46.432 184.246 45.676C183.817 44.92 183.602 44.066 183.602 43.114ZM198.7 40.188C199.279 40.188 199.802 40.314 200.268 40.566C200.735 40.8087 201.099 41.1773 201.36 41.672C201.631 42.1667 201.766 42.7687 201.766 43.478V48H200.506V43.66C200.506 42.8947 200.315 42.3113 199.932 41.91C199.55 41.4993 199.027 41.294 198.364 41.294C197.692 41.294 197.156 41.504 196.754 41.924C196.362 42.344 196.166 42.9553 196.166 43.758V48H194.892V37.64H196.166V41.42C196.418 41.028 196.764 40.7247 197.202 40.51C197.65 40.2953 198.15 40.188 198.7 40.188ZM204.506 39.082C204.263 39.082 204.058 38.998 203.89 38.83C203.722 38.662 203.638 38.4567 203.638 38.214C203.638 37.9713 203.722 37.766 203.89 37.598C204.058 37.43 204.263 37.346 204.506 37.346C204.739 37.346 204.935 37.43 205.094 37.598C205.262 37.766 205.346 37.9713 205.346 38.214C205.346 38.4567 205.262 38.662 205.094 38.83C204.935 38.998 204.739 39.082 204.506 39.082ZM205.122 40.328V48H203.848V40.328H205.122ZM211.031 40.188C211.964 40.188 212.72 40.4727 213.299 41.042C213.878 41.602 214.167 42.414 214.167 43.478V48H212.907V43.66C212.907 42.8947 212.716 42.3113 212.333 41.91C211.95 41.4993 211.428 41.294 210.765 41.294C210.093 41.294 209.556 41.504 209.155 41.924C208.763 42.344 208.567 42.9553 208.567 43.758V48H207.293V40.328H208.567V41.42C208.819 41.028 209.16 40.7247 209.589 40.51C210.028 40.2953 210.508 40.188 211.031 40.188ZM223.248 43.87C223.248 44.1127 223.234 44.3693 223.206 44.64H217.074C217.121 45.396 217.377 45.9887 217.844 46.418C218.32 46.838 218.894 47.048 219.566 47.048C220.117 47.048 220.574 46.922 220.938 46.67C221.311 46.4087 221.573 46.0633 221.722 45.634H223.094C222.889 46.3713 222.478 46.9733 221.862 47.44C221.246 47.8973 220.481 48.126 219.566 48.126C218.838 48.126 218.185 47.9627 217.606 47.636C217.037 47.3093 216.589 46.8473 216.262 46.25C215.935 45.6433 215.772 44.9433 215.772 44.15C215.772 43.3567 215.931 42.6613 216.248 42.064C216.565 41.4667 217.009 41.0093 217.578 40.692C218.157 40.3653 218.819 40.202 219.566 40.202C220.294 40.202 220.938 40.3607 221.498 40.678C222.058 40.9953 222.487 41.434 222.786 41.994C223.094 42.5447 223.248 43.17 223.248 43.87ZM221.932 43.604C221.932 43.1187 221.825 42.7033 221.61 42.358C221.395 42.0033 221.101 41.7373 220.728 41.56C220.364 41.3733 219.958 41.28 219.51 41.28C218.866 41.28 218.315 41.4853 217.858 41.896C217.41 42.3067 217.153 42.876 217.088 43.604H221.932ZM227.646 48.126C227.058 48.126 226.53 48.028 226.064 47.832C225.597 47.6267 225.228 47.3467 224.958 46.992C224.687 46.628 224.538 46.2127 224.51 45.746H225.826C225.863 46.1287 226.04 46.4413 226.358 46.684C226.684 46.9267 227.109 47.048 227.632 47.048C228.117 47.048 228.5 46.9407 228.78 46.726C229.06 46.5113 229.2 46.2407 229.2 45.914C229.2 45.578 229.05 45.3307 228.752 45.172C228.453 45.004 227.991 44.8407 227.366 44.682C226.796 44.5327 226.33 44.3833 225.966 44.234C225.611 44.0753 225.303 43.8467 225.042 43.548C224.79 43.24 224.664 42.8387 224.664 42.344C224.664 41.952 224.78 41.5927 225.014 41.266C225.247 40.9393 225.578 40.6827 226.008 40.496C226.437 40.3 226.927 40.202 227.478 40.202C228.327 40.202 229.013 40.4167 229.536 40.846C230.058 41.2753 230.338 41.8633 230.376 42.61H229.102C229.074 42.2087 228.91 41.8867 228.612 41.644C228.322 41.4013 227.93 41.28 227.436 41.28C226.978 41.28 226.614 41.378 226.344 41.574C226.073 41.77 225.938 42.0267 225.938 42.344C225.938 42.596 226.017 42.806 226.176 42.974C226.344 43.1327 226.549 43.2633 226.792 43.366C227.044 43.4593 227.389 43.5667 227.828 43.688C228.378 43.8373 228.826 43.9867 229.172 44.136C229.517 44.276 229.811 44.4907 230.054 44.78C230.306 45.0693 230.436 45.4473 230.446 45.914C230.446 46.334 230.329 46.712 230.096 47.048C229.862 47.384 229.531 47.65 229.102 47.846C228.682 48.0327 228.196 48.126 227.646 48.126ZM239.244 43.87C239.244 44.1127 239.23 44.3693 239.202 44.64H233.07C233.117 45.396 233.373 45.9887 233.84 46.418C234.316 46.838 234.89 47.048 235.562 47.048C236.113 47.048 236.57 46.922 236.934 46.67C237.307 46.4087 237.569 46.0633 237.718 45.634H239.09C238.885 46.3713 238.474 46.9733 237.858 47.44C237.242 47.8973 236.477 48.126 235.562 48.126C234.834 48.126 234.181 47.9627 233.602 47.636C233.033 47.3093 232.585 46.8473 232.258 46.25C231.931 45.6433 231.768 44.9433 231.768 44.15C231.768 43.3567 231.927 42.6613 232.244 42.064C232.561 41.4667 233.005 41.0093 233.574 40.692C234.153 40.3653 234.815 40.202 235.562 40.202C236.29 40.202 236.934 40.3607 237.494 40.678C238.054 40.9953 238.483 41.434 238.782 41.994C239.09 42.5447 239.244 43.17 239.244 43.87ZM237.928 43.604C237.928 43.1187 237.821 42.7033 237.606 42.358C237.391 42.0033 237.097 41.7373 236.724 41.56C236.36 41.3733 235.954 41.28 235.506 41.28C234.862 41.28 234.311 41.4853 233.854 41.896C233.406 42.3067 233.149 42.876 233.084 43.604H237.928Z" fill="#1A1A1A"/>
<path d="M183 49.4H239.846V50.1H183V49.4Z" fill="#1A1A1A"/>
<path d="M246.602 43.114C246.602 42.162 246.817 41.308 247.246 40.552C247.675 39.7867 248.259 39.1893 248.996 38.76C249.743 38.3307 250.569 38.116 251.474 38.116C252.538 38.116 253.467 38.3727 254.26 38.886C255.053 39.3993 255.632 40.1273 255.996 41.07H254.47C254.199 40.482 253.807 40.0293 253.294 39.712C252.79 39.3947 252.183 39.236 251.474 39.236C250.793 39.236 250.181 39.3947 249.64 39.712C249.099 40.0293 248.674 40.482 248.366 41.07C248.058 41.6487 247.904 42.33 247.904 43.114C247.904 43.8887 248.058 44.57 248.366 45.158C248.674 45.7367 249.099 46.1847 249.64 46.502C250.181 46.8193 250.793 46.978 251.474 46.978C252.183 46.978 252.79 46.824 253.294 46.516C253.807 46.1987 254.199 45.746 254.47 45.158H255.996C255.632 46.0913 255.053 46.8147 254.26 47.328C253.467 47.832 252.538 48.084 251.474 48.084C250.569 48.084 249.743 47.874 248.996 47.454C248.259 47.0247 247.675 46.432 247.246 45.676C246.817 44.92 246.602 44.066 246.602 43.114ZM257.416 44.136C257.416 43.352 257.575 42.666 257.892 42.078C258.21 41.4807 258.644 41.0187 259.194 40.692C259.754 40.3653 260.375 40.202 261.056 40.202C261.728 40.202 262.312 40.3467 262.806 40.636C263.301 40.9253 263.67 41.2893 263.912 41.728V40.328H265.2V48H263.912V46.572C263.66 47.02 263.282 47.3933 262.778 47.692C262.284 47.9813 261.705 48.126 261.042 48.126C260.361 48.126 259.745 47.958 259.194 47.622C258.644 47.286 258.21 46.8147 257.892 46.208C257.575 45.6013 257.416 44.9107 257.416 44.136ZM263.912 44.15C263.912 43.5713 263.796 43.0673 263.562 42.638C263.329 42.2087 263.012 41.882 262.61 41.658C262.218 41.4247 261.784 41.308 261.308 41.308C260.832 41.308 260.398 41.42 260.006 41.644C259.614 41.868 259.302 42.1947 259.068 42.624C258.835 43.0533 258.718 43.5573 258.718 44.136C258.718 44.724 258.835 45.2373 259.068 45.676C259.302 46.1053 259.614 46.4367 260.006 46.67C260.398 46.894 260.832 47.006 261.308 47.006C261.784 47.006 262.218 46.894 262.61 46.67C263.012 46.4367 263.329 46.1053 263.562 45.676C263.796 45.2373 263.912 44.7287 263.912 44.15ZM268.627 41.756C268.889 41.2987 269.271 40.9253 269.775 40.636C270.279 40.3467 270.853 40.202 271.497 40.202C272.188 40.202 272.809 40.3653 273.359 40.692C273.91 41.0187 274.344 41.4807 274.661 42.078C274.979 42.666 275.137 43.352 275.137 44.136C275.137 44.9107 274.979 45.6013 274.661 46.208C274.344 46.8147 273.905 47.286 273.345 47.622C272.795 47.958 272.179 48.126 271.497 48.126C270.835 48.126 270.251 47.9813 269.747 47.692C269.253 47.4027 268.879 47.034 268.627 46.586V48H267.353V37.64H268.627V41.756ZM273.835 44.136C273.835 43.5573 273.719 43.0533 273.485 42.624C273.252 42.1947 272.935 41.868 272.533 41.644C272.141 41.42 271.707 41.308 271.231 41.308C270.765 41.308 270.331 41.4247 269.929 41.658C269.537 41.882 269.22 42.2133 268.977 42.652C268.744 43.0813 268.627 43.5807 268.627 44.15C268.627 44.7287 268.744 45.2373 268.977 45.676C269.22 46.1053 269.537 46.4367 269.929 46.67C270.331 46.894 270.765 47.006 271.231 47.006C271.707 47.006 272.141 46.894 272.533 46.67C272.935 46.4367 273.252 46.1053 273.485 45.676C273.719 45.2373 273.835 44.724 273.835 44.136ZM278.088 41.756C278.35 41.2987 278.732 40.9253 279.236 40.636C279.74 40.3467 280.314 40.202 280.958 40.202C281.649 40.202 282.27 40.3653 282.82 40.692C283.371 41.0187 283.805 41.4807 284.122 42.078C284.44 42.666 284.598 43.352 284.598 44.136C284.598 44.9107 284.44 45.6013 284.122 46.208C283.805 46.8147 283.366 47.286 282.806 47.622C282.256 47.958 281.64 48.126 280.958 48.126C280.296 48.126 279.712 47.9813 279.208 47.692C278.714 47.4027 278.34 47.034 278.088 46.586V48H276.814V37.64H278.088V41.756ZM283.296 44.136C283.296 43.5573 283.18 43.0533 282.946 42.624C282.713 42.1947 282.396 41.868 281.994 41.644C281.602 41.42 281.168 41.308 280.692 41.308C280.226 41.308 279.792 41.4247 279.39 41.658C278.998 41.882 278.681 42.2133 278.438 42.652C278.205 43.0813 278.088 43.5807 278.088 44.15C278.088 44.7287 278.205 45.2373 278.438 45.676C278.681 46.1053 278.998 46.4367 279.39 46.67C279.792 46.894 280.226 47.006 280.692 47.006C281.168 47.006 281.602 46.894 281.994 46.67C282.396 46.4367 282.713 46.1053 282.946 45.676C283.18 45.2373 283.296 44.724 283.296 44.136ZM285.799 44.136C285.799 43.352 285.958 42.666 286.275 42.078C286.593 41.4807 287.027 41.0187 287.577 40.692C288.137 40.3653 288.758 40.202 289.439 40.202C290.111 40.202 290.695 40.3467 291.189 40.636C291.684 40.9253 292.053 41.2893 292.295 41.728V40.328H293.583V48H292.295V46.572C292.043 47.02 291.665 47.3933 291.161 47.692C290.667 47.9813 290.088 48.126 289.425 48.126C288.744 48.126 288.128 47.958 287.577 47.622C287.027 47.286 286.593 46.8147 286.275 46.208C285.958 45.6013 285.799 44.9107 285.799 44.136ZM292.295 44.15C292.295 43.5713 292.179 43.0673 291.945 42.638C291.712 42.2087 291.395 41.882 290.993 41.658C290.601 41.4247 290.167 41.308 289.691 41.308C289.215 41.308 288.781 41.42 288.389 41.644C287.997 41.868 287.685 42.1947 287.451 42.624C287.218 43.0533 287.101 43.5573 287.101 44.136C287.101 44.724 287.218 45.2373 287.451 45.676C287.685 46.1053 287.997 46.4367 288.389 46.67C288.781 46.894 289.215 47.006 289.691 47.006C290.167 47.006 290.601 46.894 290.993 46.67C291.395 46.4367 291.712 46.1053 291.945 45.676C292.179 45.2373 292.295 44.7287 292.295 44.15ZM298.9 40.202C299.563 40.202 300.142 40.3467 300.636 40.636C301.14 40.9253 301.514 41.2893 301.756 41.728V40.328H303.044V48.168C303.044 48.868 302.895 49.4887 302.596 50.03C302.298 50.5807 301.868 51.01 301.308 51.318C300.758 51.626 300.114 51.78 299.376 51.78C298.368 51.78 297.528 51.542 296.856 51.066C296.184 50.59 295.788 49.9413 295.666 49.12H296.926C297.066 49.5867 297.356 49.96 297.794 50.24C298.233 50.5293 298.76 50.674 299.376 50.674C300.076 50.674 300.646 50.4547 301.084 50.016C301.532 49.5773 301.756 48.9613 301.756 48.168V46.558C301.504 47.006 301.131 47.3793 300.636 47.678C300.142 47.9767 299.563 48.126 298.9 48.126C298.219 48.126 297.598 47.958 297.038 47.622C296.488 47.286 296.054 46.8147 295.736 46.208C295.419 45.6013 295.26 44.9107 295.26 44.136C295.26 43.352 295.419 42.666 295.736 42.078C296.054 41.4807 296.488 41.0187 297.038 40.692C297.598 40.3653 298.219 40.202 298.9 40.202ZM301.756 44.15C301.756 43.5713 301.64 43.0673 301.406 42.638C301.173 42.2087 300.856 41.882 300.454 41.658C300.062 41.4247 299.628 41.308 299.152 41.308C298.676 41.308 298.242 41.42 297.85 41.644C297.458 41.868 297.146 42.1947 296.912 42.624C296.679 43.0533 296.562 43.5573 296.562 44.136C296.562 44.724 296.679 45.2373 296.912 45.676C297.146 46.1053 297.458 46.4367 297.85 46.67C298.242 46.894 298.676 47.006 299.152 47.006C299.628 47.006 300.062 46.894 300.454 46.67C300.856 46.4367 301.173 46.1053 301.406 45.676C301.64 45.2373 301.756 44.7287 301.756 44.15ZM312.197 43.87C312.197 44.1127 312.183 44.3693 312.155 44.64H306.023C306.07 45.396 306.326 45.9887 306.793 46.418C307.269 46.838 307.843 47.048 308.515 47.048C309.066 47.048 309.523 46.922 309.887 46.67C310.26 46.4087 310.522 46.0633 310.671 45.634H312.043C311.838 46.3713 311.427 46.9733 310.811 47.44C310.195 47.8973 309.43 48.126 308.515 48.126C307.787 48.126 307.134 47.9627 306.555 47.636C305.986 47.3093 305.538 46.8473 305.211 46.25C304.884 45.6433 304.721 44.9433 304.721 44.15C304.721 43.3567 304.88 42.6613 305.197 42.064C305.514 41.4667 305.958 41.0093 306.527 40.692C307.106 40.3653 307.768 40.202 308.515 40.202C309.243 40.202 309.887 40.3607 310.447 40.678C311.007 40.9953 311.436 41.434 311.735 41.994C312.043 42.5447 312.197 43.17 312.197 43.87ZM310.881 43.604C310.881 43.1187 310.774 42.7033 310.559 42.358C310.344 42.0033 310.05 41.7373 309.677 41.56C309.313 41.3733 308.907 41.28 308.459 41.28C307.815 41.28 307.264 41.4853 306.807 41.896C306.359 42.3067 306.102 42.876 306.037 43.604H310.881Z" fill="#808080"/>
<path d="M327.47 41.07C327.199 40.5007 326.807 40.062 326.294 39.754C325.781 39.4367 325.183 39.278 324.502 39.278C323.821 39.278 323.205 39.4367 322.654 39.754C322.113 40.062 321.683 40.51 321.366 41.098C321.058 41.6767 320.904 42.3487 320.904 43.114C320.904 43.8793 321.058 44.5513 321.366 45.13C321.683 45.7087 322.113 46.1567 322.654 46.474C323.205 46.782 323.821 46.936 324.502 46.936C325.454 46.936 326.238 46.6513 326.854 46.082C327.47 45.5127 327.829 44.7427 327.932 43.772H324.04V42.736H329.29V43.716C329.215 44.5187 328.963 45.256 328.534 45.928C328.105 46.5907 327.54 47.118 326.84 47.51C326.14 47.8927 325.361 48.084 324.502 48.084C323.597 48.084 322.771 47.874 322.024 47.454C321.277 47.0247 320.685 46.432 320.246 45.676C319.817 44.92 319.602 44.066 319.602 43.114C319.602 42.162 319.817 41.308 320.246 40.552C320.685 39.7867 321.277 39.194 322.024 38.774C322.771 38.3447 323.597 38.13 324.502 38.13C325.538 38.13 326.453 38.3867 327.246 38.9C328.049 39.4133 328.632 40.1367 328.996 41.07H327.47ZM332.248 41.574C332.472 41.1353 332.79 40.7947 333.2 40.552C333.62 40.3093 334.129 40.188 334.726 40.188V41.504H334.39C332.962 41.504 332.248 42.2787 332.248 43.828V48H330.974V40.328H332.248V41.574ZM343.197 43.87C343.197 44.1127 343.183 44.3693 343.155 44.64H337.023C337.07 45.396 337.326 45.9887 337.793 46.418C338.269 46.838 338.843 47.048 339.515 47.048C340.066 47.048 340.523 46.922 340.887 46.67C341.26 46.4087 341.522 46.0633 341.671 45.634H343.043C342.838 46.3713 342.427 46.9733 341.811 47.44C341.195 47.8973 340.43 48.126 339.515 48.126C338.787 48.126 338.134 47.9627 337.555 47.636C336.986 47.3093 336.538 46.8473 336.211 46.25C335.884 45.6433 335.721 44.9433 335.721 44.15C335.721 43.3567 335.88 42.6613 336.197 42.064C336.514 41.4667 336.958 41.0093 337.527 40.692C338.106 40.3653 338.768 40.202 339.515 40.202C340.243 40.202 340.887 40.3607 341.447 40.678C342.007 40.9953 342.436 41.434 342.735 41.994C343.043 42.5447 343.197 43.17 343.197 43.87ZM341.881 43.604C341.881 43.1187 341.774 42.7033 341.559 42.358C341.344 42.0033 341.05 41.7373 340.677 41.56C340.313 41.3733 339.907 41.28 339.459 41.28C338.815 41.28 338.264 41.4853 337.807 41.896C337.359 42.3067 337.102 42.876 337.037 43.604H341.881ZM351.879 43.87C351.879 44.1127 351.865 44.3693 351.837 44.64H345.705C345.751 45.396 346.008 45.9887 346.475 46.418C346.951 46.838 347.525 47.048 348.197 47.048C348.747 47.048 349.205 46.922 349.569 46.67C349.942 46.4087 350.203 46.0633 350.353 45.634H351.725C351.519 46.3713 351.109 46.9733 350.493 47.44C349.877 47.8973 349.111 48.126 348.197 48.126C347.469 48.126 346.815 47.9627 346.237 47.636C345.667 47.3093 345.219 46.8473 344.893 46.25C344.566 45.6433 344.403 44.9433 344.403 44.15C344.403 43.3567 344.561 42.6613 344.879 42.064C345.196 41.4667 345.639 41.0093 346.209 40.692C346.787 40.3653 347.45 40.202 348.197 40.202C348.925 40.202 349.569 40.3607 350.129 40.678C350.689 40.9953 351.118 41.434 351.417 41.994C351.725 42.5447 351.879 43.17 351.879 43.87ZM350.563 43.604C350.563 43.1187 350.455 42.7033 350.241 42.358C350.026 42.0033 349.732 41.7373 349.359 41.56C348.995 41.3733 348.589 41.28 348.141 41.28C347.497 41.28 346.946 41.4853 346.489 41.896C346.041 42.3067 345.784 42.876 345.719 43.604H350.563ZM357.298 40.188C358.232 40.188 358.988 40.4727 359.566 41.042C360.145 41.602 360.434 42.414 360.434 43.478V48H359.174V43.66C359.174 42.8947 358.983 42.3113 358.6 41.91C358.218 41.4993 357.695 41.294 357.032 41.294C356.36 41.294 355.824 41.504 355.422 41.924C355.03 42.344 354.834 42.9553 354.834 43.758V48H353.56V40.328H354.834V41.42C355.086 41.028 355.427 40.7247 355.856 40.51C356.295 40.2953 356.776 40.188 357.298 40.188ZM365.772 43.114C365.772 42.162 365.987 41.308 366.416 40.552C366.845 39.7867 367.429 39.1893 368.166 38.76C368.913 38.3307 369.739 38.116 370.644 38.116C371.708 38.116 372.637 38.3727 373.43 38.886C374.223 39.3993 374.802 40.1273 375.166 41.07H373.64C373.369 40.482 372.977 40.0293 372.464 39.712C371.96 39.3947 371.353 39.236 370.644 39.236C369.963 39.236 369.351 39.3947 368.81 39.712C368.269 40.0293 367.844 40.482 367.536 41.07C367.228 41.6487 367.074 42.33 367.074 43.114C367.074 43.8887 367.228 44.57 367.536 45.158C367.844 45.7367 368.269 46.1847 368.81 46.502C369.351 46.8193 369.963 46.978 370.644 46.978C371.353 46.978 371.96 46.824 372.464 46.516C372.977 46.1987 373.369 45.746 373.64 45.158H375.166C374.802 46.0913 374.223 46.8147 373.43 47.328C372.637 47.832 371.708 48.084 370.644 48.084C369.739 48.084 368.913 47.874 368.166 47.454C367.429 47.0247 366.845 46.432 366.416 45.676C365.987 44.92 365.772 44.066 365.772 43.114ZM376.586 44.136C376.586 43.352 376.745 42.666 377.062 42.078C377.38 41.4807 377.814 41.0187 378.364 40.692C378.924 40.3653 379.545 40.202 380.226 40.202C380.898 40.202 381.482 40.3467 381.976 40.636C382.471 40.9253 382.84 41.2893 383.082 41.728V40.328H384.37V48H383.082V46.572C382.83 47.02 382.452 47.3933 381.948 47.692C381.454 47.9813 380.875 48.126 380.212 48.126C379.531 48.126 378.915 47.958 378.364 47.622C377.814 47.286 377.38 46.8147 377.062 46.208C376.745 45.6013 376.586 44.9107 376.586 44.136ZM383.082 44.15C383.082 43.5713 382.966 43.0673 382.732 42.638C382.499 42.2087 382.182 41.882 381.78 41.658C381.388 41.4247 380.954 41.308 380.478 41.308C380.002 41.308 379.568 41.42 379.176 41.644C378.784 41.868 378.472 42.1947 378.238 42.624C378.005 43.0533 377.888 43.5573 377.888 44.136C377.888 44.724 378.005 45.2373 378.238 45.676C378.472 46.1053 378.784 46.4367 379.176 46.67C379.568 46.894 380.002 47.006 380.478 47.006C380.954 47.006 381.388 46.894 381.78 46.67C382.182 46.4367 382.499 46.1053 382.732 45.676C382.966 45.2373 383.082 44.7287 383.082 44.15ZM387.797 41.756C388.059 41.2987 388.441 40.9253 388.945 40.636C389.449 40.3467 390.023 40.202 390.667 40.202C391.358 40.202 391.979 40.3653 392.529 40.692C393.08 41.0187 393.514 41.4807 393.831 42.078C394.149 42.666 394.307 43.352 394.307 44.136C394.307 44.9107 394.149 45.6013 393.831 46.208C393.514 46.8147 393.075 47.286 392.515 47.622C391.965 47.958 391.349 48.126 390.667 48.126C390.005 48.126 389.421 47.9813 388.917 47.692C388.423 47.4027 388.049 47.034 387.797 46.586V48H386.523V37.64H387.797V41.756ZM393.005 44.136C393.005 43.5573 392.889 43.0533 392.655 42.624C392.422 42.1947 392.105 41.868 391.703 41.644C391.311 41.42 390.877 41.308 390.401 41.308C389.935 41.308 389.501 41.4247 389.099 41.658C388.707 41.882 388.39 42.2133 388.147 42.652C387.914 43.0813 387.797 43.5807 387.797 44.15C387.797 44.7287 387.914 45.2373 388.147 45.676C388.39 46.1053 388.707 46.4367 389.099 46.67C389.501 46.894 389.935 47.006 390.401 47.006C390.877 47.006 391.311 46.894 391.703 46.67C392.105 46.4367 392.422 46.1053 392.655 45.676C392.889 45.2373 393.005 44.724 393.005 44.136ZM397.258 41.756C397.52 41.2987 397.902 40.9253 398.406 40.636C398.91 40.3467 399.484 40.202 400.128 40.202C400.819 40.202 401.44 40.3653 401.99 40.692C402.541 41.0187 402.975 41.4807 403.292 42.078C403.61 42.666 403.768 43.352 403.768 44.136C403.768 44.9107 403.61 45.6013 403.292 46.208C402.975 46.8147 402.536 47.286 401.976 47.622C401.426 47.958 400.81 48.126 400.128 48.126C399.466 48.126 398.882 47.9813 398.378 47.692C397.884 47.4027 397.51 47.034 397.258 46.586V48H395.984V37.64H397.258V41.756ZM402.466 44.136C402.466 43.5573 402.35 43.0533 402.116 42.624C401.883 42.1947 401.566 41.868 401.164 41.644C400.772 41.42 400.338 41.308 399.862 41.308C399.396 41.308 398.962 41.4247 398.56 41.658C398.168 41.882 397.851 42.2133 397.608 42.652C397.375 43.0813 397.258 43.5807 397.258 44.15C397.258 44.7287 397.375 45.2373 397.608 45.676C397.851 46.1053 398.168 46.4367 398.56 46.67C398.962 46.894 399.396 47.006 399.862 47.006C400.338 47.006 400.772 46.894 401.164 46.67C401.566 46.4367 401.883 46.1053 402.116 45.676C402.35 45.2373 402.466 44.724 402.466 44.136ZM404.969 44.136C404.969 43.352 405.128 42.666 405.445 42.078C405.763 41.4807 406.197 41.0187 406.747 40.692C407.307 40.3653 407.928 40.202 408.609 40.202C409.281 40.202 409.865 40.3467 410.359 40.636C410.854 40.9253 411.223 41.2893 411.465 41.728V40.328H412.753V48H411.465V46.572C411.213 47.02 410.835 47.3933 410.331 47.692C409.837 47.9813 409.258 48.126 408.595 48.126C407.914 48.126 407.298 47.958 406.747 47.622C406.197 47.286 405.763 46.8147 405.445 46.208C405.128 45.6013 404.969 44.9107 404.969 44.136ZM411.465 44.15C411.465 43.5713 411.349 43.0673 411.115 42.638C410.882 42.2087 410.565 41.882 410.163 41.658C409.771 41.4247 409.337 41.308 408.861 41.308C408.385 41.308 407.951 41.42 407.559 41.644C407.167 41.868 406.855 42.1947 406.621 42.624C406.388 43.0533 406.271 43.5573 406.271 44.136C406.271 44.724 406.388 45.2373 406.621 45.676C406.855 46.1053 407.167 46.4367 407.559 46.67C407.951 46.894 408.385 47.006 408.861 47.006C409.337 47.006 409.771 46.894 410.163 46.67C410.565 46.4367 410.882 46.1053 411.115 45.676C411.349 45.2373 411.465 44.7287 411.465 44.15ZM418.07 40.202C418.733 40.202 419.311 40.3467 419.806 40.636C420.31 40.9253 420.683 41.2893 420.926 41.728V40.328H422.214V48.168C422.214 48.868 422.065 49.4887 421.766 50.03C421.467 50.5807 421.038 51.01 420.478 51.318C419.927 51.626 419.283 51.78 418.546 51.78C417.538 51.78 416.698 51.542 416.026 51.066C415.354 50.59 414.957 49.9413 414.836 49.12H416.096C416.236 49.5867 416.525 49.96 416.964 50.24C417.403 50.5293 417.93 50.674 418.546 50.674C419.246 50.674 419.815 50.4547 420.254 50.016C420.702 49.5773 420.926 48.9613 420.926 48.168V46.558C420.674 47.006 420.301 47.3793 419.806 47.678C419.311 47.9767 418.733 48.126 418.07 48.126C417.389 48.126 416.768 47.958 416.208 47.622C415.657 47.286 415.223 46.8147 414.906 46.208C414.589 45.6013 414.43 44.9107 414.43 44.136C414.43 43.352 414.589 42.666 414.906 42.078C415.223 41.4807 415.657 41.0187 416.208 40.692C416.768 40.3653 417.389 40.202 418.07 40.202ZM420.926 44.15C420.926 43.5713 420.809 43.0673 420.576 42.638C420.343 42.2087 420.025 41.882 419.624 41.658C419.232 41.4247 418.798 41.308 418.322 41.308C417.846 41.308 417.412 41.42 417.02 41.644C416.628 41.868 416.315 42.1947 416.082 42.624C415.849 43.0533 415.732 43.5573 415.732 44.136C415.732 44.724 415.849 45.2373 416.082 45.676C416.315 46.1053 416.628 46.4367 417.02 46.67C417.412 46.894 417.846 47.006 418.322 47.006C418.798 47.006 419.232 46.894 419.624 46.67C420.025 46.4367 420.343 46.1053 420.576 45.676C420.809 45.2373 420.926 44.7287 420.926 44.15ZM431.367 43.87C431.367 44.1127 431.353 44.3693 431.325 44.64H425.193C425.24 45.396 425.496 45.9887 425.963 46.418C426.439 46.838 427.013 47.048 427.685 47.048C428.236 47.048 428.693 46.922 429.057 46.67C429.43 46.4087 429.692 46.0633 429.841 45.634H431.213C431.008 46.3713 430.597 46.9733 429.981 47.44C429.365 47.8973 428.6 48.126 427.685 48.126C426.957 48.126 426.304 47.9627 425.725 47.636C425.156 47.3093 424.708 46.8473 424.381 46.25C424.054 45.6433 423.891 44.9433 423.891 44.15C423.891 43.3567 424.05 42.6613 424.367 42.064C424.684 41.4667 425.128 41.0093 425.697 40.692C426.276 40.3653 426.938 40.202 427.685 40.202C428.413 40.202 429.057 40.3607 429.617 40.678C430.177 40.9953 430.606 41.434 430.905 41.994C431.213 42.5447 431.367 43.17 431.367 43.87ZM430.051 43.604C430.051 43.1187 429.944 42.7033 429.729 42.358C429.514 42.0033 429.22 41.7373 428.847 41.56C428.483 41.3733 428.077 41.28 427.629 41.28C426.985 41.28 426.434 41.4853 425.977 41.896C425.529 42.3067 425.272 42.876 425.207 43.604H430.051Z" fill="#808080"/>
</svg>
