<svg width="316" height="19" viewBox="0 0 316 19" fill="none" xmlns="http://www.w3.org/2000/svg">
<path d="M15.5 7.86364C15.5 13.5909 8 18.5 8 18.5C8 18.5 0.5 13.5909 0.5 7.86364C0.5 5.91068 1.29018 4.03771 2.6967 2.65676C4.10322 1.27581 6.01088 0.5 8 0.5C9.98912 0.5 11.8968 1.27581 13.3033 2.65676C14.7098 4.03771 15.5 5.91068 15.5 7.86364Z" stroke="#666666" stroke-linecap="round" stroke-linejoin="round"/>
<path d="M8 10.3182C9.38071 10.3182 10.5 9.21925 10.5 7.86364C10.5 6.50803 9.38071 5.40909 8 5.40909C6.61929 5.40909 5.5 6.50803 5.5 7.86364C5.5 9.21925 6.61929 10.3182 8 10.3182Z" stroke="#666666" stroke-linecap="round" stroke-linejoin="round"/>
<path d="M27.076 13.584C26.524 13.584 26.028 13.488 25.588 13.296C25.156 13.096 24.816 12.824 24.568 12.48C24.32 12.128 24.192 11.724 24.184 11.268H25.348C25.388 11.66 25.548 11.992 25.828 12.264C26.116 12.528 26.532 12.66 27.076 12.66C27.596 12.66 28.004 12.532 28.3 12.276C28.604 12.012 28.756 11.676 28.756 11.268C28.756 10.948 28.668 10.688 28.492 10.488C28.316 10.288 28.096 10.136 27.832 10.032C27.568 9.928 27.212 9.816 26.764 9.696C26.212 9.552 25.768 9.408 25.432 9.264C25.104 9.12 24.82 8.896 24.58 8.592C24.348 8.28 24.232 7.864 24.232 7.344C24.232 6.888 24.348 6.484 24.58 6.132C24.812 5.78 25.136 5.508 25.552 5.316C25.976 5.124 26.46 5.028 27.004 5.028C27.788 5.028 28.428 5.224 28.924 5.616C29.428 6.008 29.712 6.528 29.776 7.176H28.576C28.536 6.856 28.368 6.576 28.072 6.336C27.776 6.088 27.384 5.964 26.896 5.964C26.44 5.964 26.068 6.084 25.78 6.324C25.492 6.556 25.348 6.884 25.348 7.308C25.348 7.612 25.432 7.86 25.6 8.052C25.776 8.244 25.988 8.392 26.236 8.496C26.492 8.592 26.848 8.704 27.304 8.832C27.856 8.984 28.3 9.136 28.636 9.288C28.972 9.432 29.26 9.66 29.5 9.972C29.74 10.276 29.86 10.692 29.86 11.22C29.86 11.628 29.752 12.012 29.536 12.372C29.32 12.732 29 13.024 28.576 13.248C28.152 13.472 27.652 13.584 27.076 13.584ZM32.799 7.824V11.7C32.799 12.02 32.867 12.248 33.003 12.384C33.139 12.512 33.375 12.576 33.711 12.576H34.515V13.5H33.531C32.923 13.5 32.467 13.36 32.163 13.08C31.859 12.8 31.707 12.34 31.707 11.7V7.824H30.855V6.924H31.707V5.268H32.799V6.924H34.515V7.824H32.799ZM38.7061 13.608C38.0901 13.608 37.5301 13.468 37.0261 13.188C36.5301 12.908 36.1381 12.512 35.8501 12C35.5701 11.48 35.4301 10.88 35.4301 10.2C35.4301 9.528 35.5741 8.936 35.8621 8.424C36.1581 7.904 36.5581 7.508 37.0621 7.236C37.5661 6.956 38.1301 6.816 38.7541 6.816C39.3781 6.816 39.9421 6.956 40.4461 7.236C40.9501 7.508 41.3461 7.9 41.6341 8.412C41.9301 8.924 42.0781 9.52 42.0781 10.2C42.0781 10.88 41.9261 11.48 41.6221 12C41.3261 12.512 40.9221 12.908 40.4101 13.188C39.8981 13.468 39.3301 13.608 38.7061 13.608ZM38.7061 12.648C39.0981 12.648 39.4661 12.556 39.8101 12.372C40.1541 12.188 40.4301 11.912 40.6381 11.544C40.8541 11.176 40.9621 10.728 40.9621 10.2C40.9621 9.672 40.8581 9.224 40.6501 8.856C40.4421 8.488 40.1701 8.216 39.8341 8.04C39.4981 7.856 39.1341 7.764 38.7421 7.764C38.3421 7.764 37.9741 7.856 37.6381 8.04C37.3101 8.216 37.0461 8.488 36.8461 8.856C36.6461 9.224 36.5461 9.672 36.5461 10.2C36.5461 10.736 36.6421 11.188 36.8341 11.556C37.0341 11.924 37.2981 12.2 37.6261 12.384C37.9541 12.56 38.3141 12.648 38.7061 12.648ZM44.6058 7.992C44.7978 7.616 45.0698 7.324 45.4218 7.116C45.7818 6.908 46.2178 6.804 46.7298 6.804V7.932H46.4418C45.2178 7.932 44.6058 8.596 44.6058 9.924V13.5H43.5138V6.924H44.6058V7.992ZM53.9904 9.96C53.9904 10.168 53.9784 10.388 53.9544 10.62H48.6984C48.7384 11.268 48.9584 11.776 49.3584 12.144C49.7664 12.504 50.2584 12.684 50.8344 12.684C51.3064 12.684 51.6984 12.576 52.0104 12.36C52.3304 12.136 52.5544 11.84 52.6824 11.472H53.8584C53.6824 12.104 53.3304 12.62 52.8024 13.02C52.2744 13.412 51.6184 13.608 50.8344 13.608C50.2104 13.608 49.6504 13.468 49.1544 13.188C48.6664 12.908 48.2824 12.512 48.0024 12C47.7224 11.48 47.5824 10.88 47.5824 10.2C47.5824 9.52 47.7184 8.924 47.9904 8.412C48.2624 7.9 48.6424 7.508 49.1304 7.236C49.6264 6.956 50.1944 6.816 50.8344 6.816C51.4584 6.816 52.0104 6.952 52.4904 7.224C52.9704 7.496 53.3384 7.872 53.5944 8.352C53.8584 8.824 53.9904 9.36 53.9904 9.96ZM52.8624 9.732C52.8624 9.316 52.7704 8.96 52.5864 8.664C52.4024 8.36 52.1504 8.132 51.8304 7.98C51.5184 7.82 51.1704 7.74 50.7864 7.74C50.2344 7.74 49.7624 7.916 49.3704 8.268C48.9864 8.62 48.7664 9.108 48.7104 9.732H52.8624ZM59.723 12.612H62.651V13.5H58.631V5.136H59.723V12.612ZM66.6787 13.608C66.0627 13.608 65.5027 13.468 64.9987 13.188C64.5027 12.908 64.1107 12.512 63.8227 12C63.5427 11.48 63.4027 10.88 63.4027 10.2C63.4027 9.528 63.5467 8.936 63.8347 8.424C64.1307 7.904 64.5307 7.508 65.0347 7.236C65.5387 6.956 66.1027 6.816 66.7267 6.816C67.3507 6.816 67.9147 6.956 68.4187 7.236C68.9227 7.508 69.3187 7.9 69.6067 8.412C69.9027 8.924 70.0507 9.52 70.0507 10.2C70.0507 10.88 69.8987 11.48 69.5947 12C69.2987 12.512 68.8947 12.908 68.3827 13.188C67.8707 13.468 67.3027 13.608 66.6787 13.608ZM66.6787 12.648C67.0707 12.648 67.4387 12.556 67.7827 12.372C68.1267 12.188 68.4027 11.912 68.6107 11.544C68.8267 11.176 68.9347 10.728 68.9347 10.2C68.9347 9.672 68.8307 9.224 68.6227 8.856C68.4147 8.488 68.1427 8.216 67.8067 8.04C67.4707 7.856 67.1067 7.764 66.7147 7.764C66.3147 7.764 65.9467 7.856 65.6107 8.04C65.2827 8.216 65.0187 8.488 64.8187 8.856C64.6187 9.224 64.5187 9.672 64.5187 10.2C64.5187 10.736 64.6147 11.188 64.8067 11.556C65.0067 11.924 65.2707 12.2 65.5987 12.384C65.9267 12.56 66.2867 12.648 66.6787 12.648ZM71.0785 10.2C71.0785 9.52 71.2145 8.928 71.4865 8.424C71.7585 7.912 72.1345 7.516 72.6145 7.236C73.1025 6.956 73.6585 6.816 74.2825 6.816C75.0905 6.816 75.7545 7.012 76.2745 7.404C76.8025 7.796 77.1505 8.34 77.3185 9.036H76.1425C76.0305 8.636 75.8105 8.32 75.4825 8.088C75.1625 7.856 74.7625 7.74 74.2825 7.74C73.6585 7.74 73.1545 7.956 72.7705 8.388C72.3865 8.812 72.1945 9.416 72.1945 10.2C72.1945 10.992 72.3865 11.604 72.7705 12.036C73.1545 12.468 73.6585 12.684 74.2825 12.684C74.7625 12.684 75.1625 12.572 75.4825 12.348C75.8025 12.124 76.0225 11.804 76.1425 11.388H77.3185C77.1425 12.06 76.7905 12.6 76.2625 13.008C75.7345 13.408 75.0745 13.608 74.2825 13.608C73.6585 13.608 73.1025 13.468 72.6145 13.188C72.1345 12.908 71.7585 12.512 71.4865 12C71.2145 11.488 71.0785 10.888 71.0785 10.2ZM78.3676 10.188C78.3676 9.516 78.5036 8.928 78.7756 8.424C79.0476 7.912 79.4196 7.516 79.8916 7.236C80.3716 6.956 80.9036 6.816 81.4876 6.816C82.0636 6.816 82.5636 6.94 82.9876 7.188C83.4116 7.436 83.7276 7.748 83.9356 8.124V6.924H85.0396V13.5H83.9356V12.276C83.7196 12.66 83.3956 12.98 82.9636 13.236C82.5396 13.484 82.0436 13.608 81.4756 13.608C80.8916 13.608 80.3636 13.464 79.8916 13.176C79.4196 12.888 79.0476 12.484 78.7756 11.964C78.5036 11.444 78.3676 10.852 78.3676 10.188ZM83.9356 10.2C83.9356 9.704 83.8356 9.272 83.6356 8.904C83.4356 8.536 83.1636 8.256 82.8196 8.064C82.4836 7.864 82.1116 7.764 81.7036 7.764C81.2956 7.764 80.9236 7.86 80.5876 8.052C80.2516 8.244 79.9836 8.524 79.7836 8.892C79.5836 9.26 79.4836 9.692 79.4836 10.188C79.4836 10.692 79.5836 11.132 79.7836 11.508C79.9836 11.876 80.2516 12.16 80.5876 12.36C80.9236 12.552 81.2956 12.648 81.7036 12.648C82.1116 12.648 82.4836 12.552 82.8196 12.36C83.1636 12.16 83.4356 11.876 83.6356 11.508C83.8356 11.132 83.9356 10.696 83.9356 10.2ZM88.2169 7.824V11.7C88.2169 12.02 88.2849 12.248 88.4209 12.384C88.5569 12.512 88.7929 12.576 89.1289 12.576H89.9329V13.5H88.9489C88.3409 13.5 87.8849 13.36 87.5809 13.08C87.2769 12.8 87.1249 12.34 87.1249 11.7V7.824H86.2729V6.924H87.1249V5.268H88.2169V6.924H89.9329V7.824H88.2169ZM91.82 5.856C91.612 5.856 91.436 5.784 91.292 5.64C91.148 5.496 91.076 5.32 91.076 5.112C91.076 4.904 91.148 4.728 91.292 4.584C91.436 4.44 91.612 4.368 91.82 4.368C92.02 4.368 92.188 4.44 92.324 4.584C92.468 4.728 92.54 4.904 92.54 5.112C92.54 5.32 92.468 5.496 92.324 5.64C92.188 5.784 92.02 5.856 91.82 5.856ZM92.348 6.924V13.5H91.256V6.924H92.348ZM97.0772 13.608C96.4612 13.608 95.9012 13.468 95.3972 13.188C94.9012 12.908 94.5092 12.512 94.2212 12C93.9412 11.48 93.8012 10.88 93.8012 10.2C93.8012 9.528 93.9452 8.936 94.2332 8.424C94.5292 7.904 94.9292 7.508 95.4332 7.236C95.9372 6.956 96.5012 6.816 97.1252 6.816C97.7492 6.816 98.3132 6.956 98.8172 7.236C99.3212 7.508 99.7172 7.9 100.005 8.412C100.301 8.924 100.449 9.52 100.449 10.2C100.449 10.88 100.297 11.48 99.9932 12C99.6972 12.512 99.2932 12.908 98.7812 13.188C98.2692 13.468 97.7012 13.608 97.0772 13.608ZM97.0772 12.648C97.4692 12.648 97.8372 12.556 98.1812 12.372C98.5252 12.188 98.8012 11.912 99.0092 11.544C99.2252 11.176 99.3332 10.728 99.3332 10.2C99.3332 9.672 99.2292 9.224 99.0212 8.856C98.8132 8.488 98.5412 8.216 98.2052 8.04C97.8692 7.856 97.5052 7.764 97.1132 7.764C96.7132 7.764 96.3452 7.856 96.0092 8.04C95.6812 8.216 95.4172 8.488 95.2172 8.856C95.0172 9.224 94.9172 9.672 94.9172 10.2C94.9172 10.736 95.0132 11.188 95.2052 11.556C95.4052 11.924 95.6692 12.2 95.9972 12.384C96.3252 12.56 96.6852 12.648 97.0772 12.648ZM105.089 6.804C105.889 6.804 106.537 7.048 107.033 7.536C107.529 8.016 107.777 8.712 107.777 9.624V13.5H106.697V9.78C106.697 9.124 106.533 8.624 106.205 8.28C105.877 7.928 105.429 7.752 104.861 7.752C104.285 7.752 103.825 7.932 103.481 8.292C103.145 8.652 102.977 9.176 102.977 9.864V13.5H101.885V6.924H102.977V7.86C103.193 7.524 103.485 7.264 103.853 7.08C104.229 6.896 104.641 6.804 105.089 6.804ZM109.909 13.572C109.701 13.572 109.525 13.5 109.381 13.356C109.237 13.212 109.165 13.036 109.165 12.828C109.165 12.62 109.237 12.444 109.381 12.3C109.525 12.156 109.701 12.084 109.909 12.084C110.109 12.084 110.277 12.156 110.413 12.3C110.557 12.444 110.629 12.62 110.629 12.828C110.629 13.036 110.557 13.212 110.413 13.356C110.277 13.5 110.109 13.572 109.909 13.572ZM109.909 8.436C109.701 8.436 109.525 8.364 109.381 8.22C109.237 8.076 109.165 7.9 109.165 7.692C109.165 7.484 109.237 7.308 109.381 7.164C109.525 7.02 109.701 6.948 109.909 6.948C110.109 6.948 110.277 7.02 110.413 7.164C110.557 7.308 110.629 7.484 110.629 7.692C110.629 7.9 110.557 8.076 110.413 8.22C110.277 8.364 110.109 8.436 109.909 8.436ZM116.407 12.612H119.335V13.5H115.315V5.136H116.407V12.612ZM121.058 5.856C120.85 5.856 120.674 5.784 120.53 5.64C120.386 5.496 120.314 5.32 120.314 5.112C120.314 4.904 120.386 4.728 120.53 4.584C120.674 4.44 120.85 4.368 121.058 4.368C121.258 4.368 121.426 4.44 121.562 4.584C121.706 4.728 121.778 4.904 121.778 5.112C121.778 5.32 121.706 5.496 121.562 5.64C121.426 5.784 121.258 5.856 121.058 5.856ZM121.586 6.924V13.5H120.494V6.924H121.586ZM126.651 6.804C127.451 6.804 128.099 7.048 128.595 7.536C129.091 8.016 129.339 8.712 129.339 9.624V13.5H128.259V9.78C128.259 9.124 128.095 8.624 127.767 8.28C127.439 7.928 126.991 7.752 126.423 7.752C125.847 7.752 125.387 7.932 125.043 8.292C124.707 8.652 124.539 9.176 124.539 9.864V13.5H123.447V6.924H124.539V7.86C124.755 7.524 125.047 7.264 125.415 7.08C125.791 6.896 126.203 6.804 126.651 6.804ZM130.715 10.2C130.715 9.52 130.851 8.928 131.123 8.424C131.395 7.912 131.771 7.516 132.251 7.236C132.739 6.956 133.295 6.816 133.919 6.816C134.727 6.816 135.391 7.012 135.911 7.404C136.439 7.796 136.787 8.34 136.955 9.036H135.779C135.667 8.636 135.447 8.32 135.119 8.088C134.799 7.856 134.399 7.74 133.919 7.74C133.295 7.74 132.791 7.956 132.407 8.388C132.023 8.812 131.831 9.416 131.831 10.2C131.831 10.992 132.023 11.604 132.407 12.036C132.791 12.468 133.295 12.684 133.919 12.684C134.399 12.684 134.799 12.572 135.119 12.348C135.439 12.124 135.659 11.804 135.779 11.388H136.955C136.779 12.06 136.427 12.6 135.899 13.008C135.371 13.408 134.711 13.608 133.919 13.608C133.295 13.608 132.739 13.468 132.251 13.188C131.771 12.908 131.395 12.512 131.123 12C130.851 11.488 130.715 10.888 130.715 10.2ZM141.28 13.608C140.664 13.608 140.104 13.468 139.6 13.188C139.104 12.908 138.712 12.512 138.424 12C138.144 11.48 138.004 10.88 138.004 10.2C138.004 9.528 138.148 8.936 138.436 8.424C138.732 7.904 139.132 7.508 139.636 7.236C140.14 6.956 140.704 6.816 141.328 6.816C141.952 6.816 142.516 6.956 143.02 7.236C143.524 7.508 143.92 7.9 144.208 8.412C144.504 8.924 144.652 9.52 144.652 10.2C144.652 10.88 144.5 11.48 144.196 12C143.9 12.512 143.496 12.908 142.984 13.188C142.472 13.468 141.904 13.608 141.28 13.608ZM141.28 12.648C141.672 12.648 142.04 12.556 142.384 12.372C142.728 12.188 143.004 11.912 143.212 11.544C143.428 11.176 143.536 10.728 143.536 10.2C143.536 9.672 143.432 9.224 143.224 8.856C143.016 8.488 142.744 8.216 142.408 8.04C142.072 7.856 141.708 7.764 141.316 7.764C140.916 7.764 140.548 7.856 140.212 8.04C139.884 8.216 139.62 8.488 139.42 8.856C139.22 9.224 139.12 9.672 139.12 10.2C139.12 10.736 139.216 11.188 139.408 11.556C139.608 11.924 139.872 12.2 140.2 12.384C140.528 12.56 140.888 12.648 141.28 12.648ZM147.18 4.62V13.5H146.088V4.62H147.18ZM152.245 6.804C153.045 6.804 153.693 7.048 154.189 7.536C154.685 8.016 154.933 8.712 154.933 9.624V13.5H153.853V9.78C153.853 9.124 153.689 8.624 153.361 8.28C153.033 7.928 152.585 7.752 152.017 7.752C151.441 7.752 150.981 7.932 150.637 8.292C150.301 8.652 150.133 9.176 150.133 9.864V13.5H149.041V6.924H150.133V7.86C150.349 7.524 150.641 7.264 151.009 7.08C151.385 6.896 151.797 6.804 152.245 6.804ZM161.277 8.64V9.564H156.489V8.64H161.277ZM166.322 7.008C166.378 6.272 166.662 5.696 167.174 5.28C167.686 4.864 168.35 4.656 169.166 4.656C169.71 4.656 170.178 4.756 170.57 4.956C170.97 5.148 171.27 5.412 171.47 5.748C171.678 6.084 171.782 6.464 171.782 6.888C171.782 7.384 171.638 7.812 171.35 8.172C171.07 8.532 170.702 8.764 170.246 8.868V8.928C170.766 9.056 171.178 9.308 171.482 9.684C171.786 10.06 171.938 10.552 171.938 11.16C171.938 11.616 171.834 12.028 171.626 12.396C171.418 12.756 171.106 13.04 170.69 13.248C170.274 13.456 169.774 13.56 169.19 13.56C168.342 13.56 167.646 13.34 167.102 12.9C166.558 12.452 166.254 11.82 166.19 11.004H167.246C167.302 11.484 167.498 11.876 167.834 12.18C168.17 12.484 168.618 12.636 169.178 12.636C169.738 12.636 170.162 12.492 170.45 12.204C170.746 11.908 170.894 11.528 170.894 11.064C170.894 10.464 170.694 10.032 170.294 9.768C169.894 9.504 169.29 9.372 168.482 9.372H168.206V8.46H168.494C169.23 8.452 169.786 8.332 170.162 8.1C170.538 7.86 170.726 7.492 170.726 6.996C170.726 6.572 170.586 6.232 170.306 5.976C170.034 5.72 169.642 5.592 169.13 5.592C168.634 5.592 168.234 5.72 167.93 5.976C167.626 6.232 167.446 6.576 167.39 7.008H166.322ZM173.148 11.568V10.74L177.36 4.908H178.668V10.62H179.868V11.568H178.668V13.5H177.588V11.568H173.148ZM177.636 6.048L174.408 10.62H177.636V6.048ZM180.695 11.568V10.74L184.907 4.908H186.215V10.62H187.415V11.568H186.215V13.5H185.135V11.568H180.695ZM185.183 6.048L181.955 10.62H185.183V6.048ZM189.814 11.988L188.47 15.216H187.738L188.614 11.988H189.814ZM195.356 5.136V13.5H194.264V5.136H195.356ZM198.309 4.62V13.5H197.217V4.62H198.309ZM201.262 4.62V13.5H200.17V4.62H201.262ZM203.687 5.856C203.479 5.856 203.303 5.784 203.159 5.64C203.015 5.496 202.943 5.32 202.943 5.112C202.943 4.904 203.015 4.728 203.159 4.584C203.303 4.44 203.479 4.368 203.687 4.368C203.887 4.368 204.055 4.44 204.191 4.584C204.335 4.728 204.407 4.904 204.407 5.112C204.407 5.32 204.335 5.496 204.191 5.64C204.055 5.784 203.887 5.856 203.687 5.856ZM204.215 6.924V13.5H203.123V6.924H204.215ZM209.28 6.804C210.08 6.804 210.728 7.048 211.224 7.536C211.72 8.016 211.968 8.712 211.968 9.624V13.5H210.888V9.78C210.888 9.124 210.724 8.624 210.396 8.28C210.068 7.928 209.62 7.752 209.052 7.752C208.476 7.752 208.016 7.932 207.672 8.292C207.336 8.652 207.168 9.176 207.168 9.864V13.5H206.076V6.924H207.168V7.86C207.384 7.524 207.676 7.264 208.044 7.08C208.42 6.896 208.832 6.804 209.28 6.804ZM216.62 13.608C216.004 13.608 215.444 13.468 214.94 13.188C214.444 12.908 214.052 12.512 213.764 12C213.484 11.48 213.344 10.88 213.344 10.2C213.344 9.528 213.488 8.936 213.776 8.424C214.072 7.904 214.472 7.508 214.976 7.236C215.48 6.956 216.044 6.816 216.668 6.816C217.292 6.816 217.856 6.956 218.36 7.236C218.864 7.508 219.26 7.9 219.548 8.412C219.844 8.924 219.992 9.52 219.992 10.2C219.992 10.88 219.84 11.48 219.536 12C219.24 12.512 218.836 12.908 218.324 13.188C217.812 13.468 217.244 13.608 216.62 13.608ZM216.62 12.648C217.012 12.648 217.38 12.556 217.724 12.372C218.068 12.188 218.344 11.912 218.552 11.544C218.768 11.176 218.876 10.728 218.876 10.2C218.876 9.672 218.772 9.224 218.564 8.856C218.356 8.488 218.084 8.216 217.748 8.04C217.412 7.856 217.048 7.764 216.656 7.764C216.256 7.764 215.888 7.856 215.552 8.04C215.224 8.216 214.96 8.488 214.76 8.856C214.56 9.224 214.46 9.672 214.46 10.2C214.46 10.736 214.556 11.188 214.748 11.556C214.948 11.924 215.212 12.2 215.54 12.384C215.868 12.56 216.228 12.648 216.62 12.648ZM221.992 5.856C221.784 5.856 221.608 5.784 221.464 5.64C221.32 5.496 221.248 5.32 221.248 5.112C221.248 4.904 221.32 4.728 221.464 4.584C221.608 4.44 221.784 4.368 221.992 4.368C222.192 4.368 222.36 4.44 222.496 4.584C222.64 4.728 222.712 4.904 222.712 5.112C222.712 5.32 222.64 5.496 222.496 5.64C222.36 5.784 222.192 5.856 221.992 5.856ZM222.52 6.924V13.5H221.428V6.924H222.52ZM226.709 13.608C226.205 13.608 225.753 13.524 225.353 13.356C224.953 13.18 224.637 12.94 224.405 12.636C224.173 12.324 224.045 11.968 224.021 11.568H225.149C225.181 11.896 225.333 12.164 225.605 12.372C225.885 12.58 226.249 12.684 226.697 12.684C227.113 12.684 227.441 12.592 227.681 12.408C227.921 12.224 228.041 11.992 228.041 11.712C228.041 11.424 227.913 11.212 227.657 11.076C227.401 10.932 227.005 10.792 226.469 10.656C225.981 10.528 225.581 10.4 225.269 10.272C224.965 10.136 224.701 9.94 224.477 9.684C224.261 9.42 224.153 9.076 224.153 8.652C224.153 8.316 224.253 8.008 224.453 7.728C224.653 7.448 224.937 7.228 225.305 7.068C225.673 6.9 226.093 6.816 226.565 6.816C227.293 6.816 227.881 7 228.329 7.368C228.777 7.736 229.017 8.24 229.049 8.88H227.957C227.933 8.536 227.793 8.26 227.537 8.052C227.289 7.844 226.953 7.74 226.529 7.74C226.137 7.74 225.825 7.824 225.593 7.992C225.361 8.16 225.245 8.38 225.245 8.652C225.245 8.868 225.313 9.048 225.449 9.192C225.593 9.328 225.769 9.44 225.977 9.528C226.193 9.608 226.489 9.7 226.865 9.804C227.337 9.932 227.721 10.06 228.017 10.188C228.313 10.308 228.565 10.492 228.773 10.74C228.989 10.988 229.101 11.312 229.109 11.712C229.109 12.072 229.009 12.396 228.809 12.684C228.609 12.972 228.325 13.2 227.957 13.368C227.597 13.528 227.181 13.608 226.709 13.608ZM231.779 11.988L230.435 15.216H229.703L230.579 11.988H231.779ZM235.821 9.312C235.821 8.496 236.005 7.764 236.373 7.116C236.741 6.46 237.241 5.948 237.873 5.58C238.513 5.212 239.221 5.028 239.997 5.028C240.909 5.028 241.705 5.248 242.385 5.688C243.065 6.128 243.561 6.752 243.873 7.56H242.565C242.333 7.056 241.997 6.668 241.557 6.396C241.125 6.124 240.605 5.988 239.997 5.988C239.413 5.988 238.889 6.124 238.425 6.396C237.961 6.668 237.597 7.056 237.333 7.56C237.069 8.056 236.937 8.64 236.937 9.312C236.937 9.976 237.069 10.56 237.333 11.064C237.597 11.56 237.961 11.944 238.425 12.216C238.889 12.488 239.413 12.624 239.997 12.624C240.605 12.624 241.125 12.492 241.557 12.228C241.997 11.956 242.333 11.568 242.565 11.064H243.873C243.561 11.864 243.065 12.484 242.385 12.924C241.705 13.356 240.909 13.572 239.997 13.572C239.221 13.572 238.513 13.392 237.873 13.032C237.241 12.664 236.741 12.156 236.373 11.508C236.005 10.86 235.821 10.128 235.821 9.312ZM248.762 6.804C249.258 6.804 249.706 6.912 250.106 7.128C250.506 7.336 250.818 7.652 251.042 8.076C251.274 8.5 251.39 9.016 251.39 9.624V13.5H250.31V9.78C250.31 9.124 250.146 8.624 249.818 8.28C249.49 7.928 249.042 7.752 248.474 7.752C247.898 7.752 247.438 7.932 247.094 8.292C246.758 8.652 246.59 9.176 246.59 9.864V13.5H245.498V4.62H246.59V7.86C246.806 7.524 247.102 7.264 247.478 7.08C247.862 6.896 248.29 6.804 248.762 6.804ZM253.738 5.856C253.53 5.856 253.354 5.784 253.21 5.64C253.066 5.496 252.994 5.32 252.994 5.112C252.994 4.904 253.066 4.728 253.21 4.584C253.354 4.44 253.53 4.368 253.738 4.368C253.938 4.368 254.106 4.44 254.242 4.584C254.386 4.728 254.458 4.904 254.458 5.112C254.458 5.32 254.386 5.496 254.242 5.64C254.106 5.784 253.938 5.856 253.738 5.856ZM254.266 6.924V13.5H253.174V6.924H254.266ZM255.719 10.2C255.719 9.52 255.855 8.928 256.127 8.424C256.399 7.912 256.775 7.516 257.255 7.236C257.743 6.956 258.299 6.816 258.923 6.816C259.731 6.816 260.395 7.012 260.915 7.404C261.443 7.796 261.791 8.34 261.959 9.036H260.783C260.671 8.636 260.451 8.32 260.123 8.088C259.803 7.856 259.403 7.74 258.923 7.74C258.299 7.74 257.795 7.956 257.411 8.388C257.027 8.812 256.835 9.416 256.835 10.2C256.835 10.992 257.027 11.604 257.411 12.036C257.795 12.468 258.299 12.684 258.923 12.684C259.403 12.684 259.803 12.572 260.123 12.348C260.443 12.124 260.663 11.804 260.783 11.388H261.959C261.783 12.06 261.431 12.6 260.903 13.008C260.375 13.408 259.715 13.608 258.923 13.608C258.299 13.608 257.743 13.468 257.255 13.188C256.775 12.908 256.399 12.512 256.127 12C255.855 11.488 255.719 10.888 255.719 10.2ZM263.008 10.188C263.008 9.516 263.144 8.928 263.416 8.424C263.688 7.912 264.06 7.516 264.532 7.236C265.012 6.956 265.544 6.816 266.128 6.816C266.704 6.816 267.204 6.94 267.628 7.188C268.052 7.436 268.368 7.748 268.576 8.124V6.924H269.68V13.5H268.576V12.276C268.36 12.66 268.036 12.98 267.604 13.236C267.18 13.484 266.684 13.608 266.116 13.608C265.532 13.608 265.004 13.464 264.532 13.176C264.06 12.888 263.688 12.484 263.416 11.964C263.144 11.444 263.008 10.852 263.008 10.188ZM268.576 10.2C268.576 9.704 268.476 9.272 268.276 8.904C268.076 8.536 267.804 8.256 267.46 8.064C267.124 7.864 266.752 7.764 266.344 7.764C265.936 7.764 265.564 7.86 265.228 8.052C264.892 8.244 264.624 8.524 264.424 8.892C264.224 9.26 264.124 9.692 264.124 10.188C264.124 10.692 264.224 11.132 264.424 11.508C264.624 11.876 264.892 12.16 265.228 12.36C265.564 12.552 265.936 12.648 266.344 12.648C266.752 12.648 267.124 12.552 267.46 12.36C267.804 12.16 268.076 11.876 268.276 11.508C268.476 11.132 268.576 10.696 268.576 10.2ZM274.238 6.816C274.806 6.816 275.302 6.94 275.726 7.188C276.158 7.436 276.478 7.748 276.686 8.124V6.924H277.79V13.644C277.79 14.244 277.662 14.776 277.406 15.24C277.15 15.712 276.782 16.08 276.302 16.344C275.83 16.608 275.278 16.74 274.646 16.74C273.782 16.74 273.062 16.536 272.486 16.128C271.91 15.72 271.57 15.164 271.466 14.46H272.546C272.666 14.86 272.914 15.18 273.29 15.42C273.666 15.668 274.118 15.792 274.646 15.792C275.246 15.792 275.734 15.604 276.11 15.228C276.494 14.852 276.686 14.324 276.686 13.644V12.264C276.47 12.648 276.15 12.968 275.726 13.224C275.302 13.48 274.806 13.608 274.238 13.608C273.654 13.608 273.122 13.464 272.642 13.176C272.17 12.888 271.798 12.484 271.526 11.964C271.254 11.444 271.118 10.852 271.118 10.188C271.118 9.516 271.254 8.928 271.526 8.424C271.798 7.912 272.17 7.516 272.642 7.236C273.122 6.956 273.654 6.816 274.238 6.816ZM276.686 10.2C276.686 9.704 276.586 9.272 276.386 8.904C276.186 8.536 275.914 8.256 275.57 8.064C275.234 7.864 274.862 7.764 274.454 7.764C274.046 7.764 273.674 7.86 273.338 8.052C273.002 8.244 272.734 8.524 272.534 8.892C272.334 9.26 272.234 9.692 272.234 10.188C272.234 10.692 272.334 11.132 272.534 11.508C272.734 11.876 273.002 12.16 273.338 12.36C273.674 12.552 274.046 12.648 274.454 12.648C274.862 12.648 275.234 12.552 275.57 12.36C275.914 12.16 276.186 11.876 276.386 11.508C276.586 11.132 276.686 10.696 276.686 10.2ZM282.503 13.608C281.887 13.608 281.327 13.468 280.823 13.188C280.327 12.908 279.935 12.512 279.647 12C279.367 11.48 279.227 10.88 279.227 10.2C279.227 9.528 279.371 8.936 279.659 8.424C279.955 7.904 280.355 7.508 280.859 7.236C281.363 6.956 281.927 6.816 282.551 6.816C283.175 6.816 283.739 6.956 284.243 7.236C284.747 7.508 285.143 7.9 285.431 8.412C285.727 8.924 285.875 9.52 285.875 10.2C285.875 10.88 285.723 11.48 285.419 12C285.123 12.512 284.719 12.908 284.207 13.188C283.695 13.468 283.127 13.608 282.503 13.608ZM282.503 12.648C282.895 12.648 283.263 12.556 283.607 12.372C283.951 12.188 284.227 11.912 284.435 11.544C284.651 11.176 284.759 10.728 284.759 10.2C284.759 9.672 284.655 9.224 284.447 8.856C284.239 8.488 283.967 8.216 283.631 8.04C283.295 7.856 282.931 7.764 282.539 7.764C282.139 7.764 281.771 7.856 281.435 8.04C281.107 8.216 280.843 8.488 280.643 8.856C280.443 9.224 280.343 9.672 280.343 10.2C280.343 10.736 280.439 11.188 280.631 11.556C280.831 11.924 281.095 12.2 281.423 12.384C281.751 12.56 282.111 12.648 282.503 12.648ZM288.439 11.988L287.095 15.216H286.363L287.239 11.988H288.439ZM293.957 5.136V10.428C293.957 11.172 294.137 11.724 294.497 12.084C294.865 12.444 295.373 12.624 296.021 12.624C296.661 12.624 297.161 12.444 297.521 12.084C297.889 11.724 298.073 11.172 298.073 10.428V5.136H299.165V10.416C299.165 11.112 299.025 11.7 298.745 12.18C298.465 12.652 298.085 13.004 297.605 13.236C297.133 13.468 296.601 13.584 296.009 13.584C295.417 13.584 294.881 13.468 294.401 13.236C293.929 13.004 293.553 12.652 293.273 12.18C293.001 11.7 292.865 11.112 292.865 10.416V5.136H293.957ZM303.639 13.584C303.087 13.584 302.591 13.488 302.151 13.296C301.719 13.096 301.379 12.824 301.131 12.48C300.883 12.128 300.755 11.724 300.747 11.268H301.911C301.951 11.66 302.111 11.992 302.391 12.264C302.679 12.528 303.095 12.66 303.639 12.66C304.159 12.66 304.567 12.532 304.863 12.276C305.167 12.012 305.319 11.676 305.319 11.268C305.319 10.948 305.231 10.688 305.055 10.488C304.879 10.288 304.659 10.136 304.395 10.032C304.131 9.928 303.775 9.816 303.327 9.696C302.775 9.552 302.331 9.408 301.995 9.264C301.667 9.12 301.383 8.896 301.143 8.592C300.911 8.28 300.795 7.864 300.795 7.344C300.795 6.888 300.911 6.484 301.143 6.132C301.375 5.78 301.699 5.508 302.115 5.316C302.539 5.124 303.023 5.028 303.567 5.028C304.351 5.028 304.991 5.224 305.487 5.616C305.991 6.008 306.275 6.528 306.339 7.176H305.139C305.099 6.856 304.931 6.576 304.635 6.336C304.339 6.088 303.947 5.964 303.459 5.964C303.003 5.964 302.631 6.084 302.343 6.324C302.055 6.556 301.911 6.884 301.911 7.308C301.911 7.612 301.995 7.86 302.163 8.052C302.339 8.244 302.551 8.392 302.799 8.496C303.055 8.592 303.411 8.704 303.867 8.832C304.419 8.984 304.863 9.136 305.199 9.288C305.535 9.432 305.823 9.66 306.062 9.972C306.303 10.276 306.423 10.692 306.423 11.22C306.423 11.628 306.315 12.012 306.099 12.372C305.883 12.732 305.563 13.024 305.139 13.248C304.715 13.472 304.215 13.584 303.639 13.584ZM312.973 11.64H309.325L308.653 13.5H307.501L310.525 5.184H311.785L314.797 13.5H313.645L312.973 11.64ZM312.661 10.752L311.149 6.528L309.637 10.752H312.661Z" fill="#666666"/>
</svg>
