<svg width="230" height="36" viewBox="0 0 230 36" fill="none" xmlns="http://www.w3.org/2000/svg">
<path d="M10.54 21.18C10.54 21.82 10.38 22.4333 10.06 23.02C9.74 23.5933 9.26667 24.0733 8.64 24.46C8.02667 24.8467 7.28667 25.0667 6.42 25.12V26.74H5.34V25.12C4.12667 25.0133 3.14 24.6267 2.38 23.96C1.62 23.28 1.23333 22.42 1.22 21.38H3.16C3.21333 21.94 3.42 22.4267 3.78 22.84C4.15333 23.2533 4.67333 23.5133 5.34 23.62V18.62C4.44667 18.3933 3.72667 18.16 3.18 17.92C2.63333 17.68 2.16667 17.3067 1.78 16.8C1.39333 16.2933 1.2 15.6133 1.2 14.76C1.2 13.68 1.57333 12.7867 2.32 12.08C3.08 11.3733 4.08667 10.98 5.34 10.9V9.24H6.42V10.9C7.55333 10.9933 8.46667 11.36 9.16 12C9.85333 12.6267 10.2533 13.4467 10.36 14.46H8.42C8.35333 13.9933 8.14667 13.5733 7.8 13.2C7.45333 12.8133 6.99333 12.56 6.42 12.44V17.32C7.3 17.5467 8.01333 17.78 8.56 18.02C9.12 18.2467 9.58667 18.6133 9.96 19.12C10.3467 19.6267 10.54 20.3133 10.54 21.18ZM3.06 14.66C3.06 15.3133 3.25333 15.8133 3.64 16.16C4.02667 16.5067 4.59333 16.7933 5.34 17.02V12.4C4.64667 12.4667 4.09333 12.6933 3.68 13.08C3.26667 13.4533 3.06 13.98 3.06 14.66ZM6.42 23.64C7.14 23.56 7.7 23.3 8.1 22.86C8.51333 22.42 8.72 21.8933 8.72 21.28C8.72 20.6267 8.52 20.1267 8.12 19.78C7.72 19.42 7.15333 19.1333 6.42 18.92V23.64ZM13.2414 21.78V20.4L20.2614 10.68H22.4414V20.2H24.4414V21.78H22.4414V25H20.6414V21.78H13.2414ZM20.7214 12.58L15.3414 20.2H20.7214V12.58ZM28.8995 17.48C28.1529 17.1867 27.5795 16.76 27.1795 16.2C26.7795 15.64 26.5795 14.96 26.5795 14.16C26.5795 13.44 26.7595 12.7933 27.1195 12.22C27.4795 11.6333 28.0129 11.1733 28.7195 10.84C29.4395 10.4933 30.3062 10.32 31.3195 10.32C32.3329 10.32 33.1929 10.4933 33.8995 10.84C34.6195 11.1733 35.1595 11.6333 35.5195 12.22C35.8929 12.7933 36.0795 13.44 36.0795 14.16C36.0795 14.9333 35.8729 15.6133 35.4595 16.2C35.0462 16.7733 34.4795 17.2 33.7595 17.48C34.5862 17.7333 35.2395 18.18 35.7195 18.82C36.2129 19.4467 36.4595 20.2067 36.4595 21.1C36.4595 21.9667 36.2462 22.7267 35.8195 23.38C35.3929 24.02 34.7862 24.52 33.9995 24.88C33.2262 25.2267 32.3329 25.4 31.3195 25.4C30.3062 25.4 29.4129 25.2267 28.6395 24.88C27.8795 24.52 27.2862 24.02 26.8595 23.38C26.4329 22.7267 26.2195 21.9667 26.2195 21.1C26.2195 20.2067 26.4595 19.44 26.9395 18.8C27.4195 18.16 28.0729 17.72 28.8995 17.48ZM34.3195 14.38C34.3195 13.5667 34.0529 12.94 33.5195 12.5C32.9862 12.06 32.2529 11.84 31.3195 11.84C30.3995 11.84 29.6729 12.06 29.1395 12.5C28.6062 12.94 28.3395 13.5733 28.3395 14.4C28.3395 15.1467 28.6129 15.7467 29.1595 16.2C29.7195 16.6533 30.4395 16.88 31.3195 16.88C32.2129 16.88 32.9329 16.6533 33.4795 16.2C34.0395 15.7333 34.3195 15.1267 34.3195 14.38ZM31.3195 18.28C30.3329 18.28 29.5262 18.5133 28.8995 18.98C28.2729 19.4333 27.9595 20.12 27.9595 21.04C27.9595 21.8933 28.2595 22.58 28.8595 23.1C29.4729 23.62 30.2929 23.88 31.3195 23.88C32.3462 23.88 33.1595 23.62 33.7595 23.1C34.3595 22.58 34.6595 21.8933 34.6595 21.04C34.6595 20.1467 34.3529 19.4667 33.7395 19C33.1262 18.52 32.3195 18.28 31.3195 18.28ZM39.7567 25.12C39.4101 25.12 39.1167 25 38.8767 24.76C38.6367 24.52 38.5167 24.2267 38.5167 23.88C38.5167 23.5333 38.6367 23.24 38.8767 23C39.1167 22.76 39.4101 22.64 39.7567 22.64C40.0901 22.64 40.3701 22.76 40.5967 23C40.8367 23.24 40.9567 23.5333 40.9567 23.88C40.9567 24.2267 40.8367 24.52 40.5967 24.76C40.3701 25 40.0901 25.12 39.7567 25.12ZM43.0759 17.62C43.0759 15.3267 43.4493 13.54 44.1959 12.26C44.9426 10.9667 46.2493 10.32 48.1159 10.32C49.9693 10.32 51.2693 10.9667 52.0159 12.26C52.7626 13.54 53.1359 15.3267 53.1359 17.62C53.1359 19.9533 52.7626 21.7667 52.0159 23.06C51.2693 24.3533 49.9693 25 48.1159 25C46.2493 25 44.9426 24.3533 44.1959 23.06C43.4493 21.7667 43.0759 19.9533 43.0759 17.62ZM51.3359 17.62C51.3359 16.46 51.2559 15.48 51.0959 14.68C50.9493 13.8667 50.6359 13.2133 50.1559 12.72C49.6893 12.2267 49.0093 11.98 48.1159 11.98C47.2093 11.98 46.5159 12.2267 46.0359 12.72C45.5693 13.2133 45.2559 13.8667 45.0959 14.68C44.9493 15.48 44.8759 16.46 44.8759 17.62C44.8759 18.82 44.9493 19.8267 45.0959 20.64C45.2559 21.4533 45.5693 22.1067 46.0359 22.6C46.5159 23.0933 47.2093 23.34 48.1159 23.34C49.0093 23.34 49.6893 23.0933 50.1559 22.6C50.6359 22.1067 50.9493 21.4533 51.0959 20.64C51.2559 19.8267 51.3359 18.82 51.3359 17.62ZM55.6345 17.62C55.6345 15.3267 56.0079 13.54 56.7545 12.26C57.5012 10.9667 58.8079 10.32 60.6745 10.32C62.5279 10.32 63.8279 10.9667 64.5745 12.26C65.3212 13.54 65.6945 15.3267 65.6945 17.62C65.6945 19.9533 65.3212 21.7667 64.5745 23.06C63.8279 24.3533 62.5279 25 60.6745 25C58.8079 25 57.5012 24.3533 56.7545 23.06C56.0079 21.7667 55.6345 19.9533 55.6345 17.62ZM63.8945 17.62C63.8945 16.46 63.8145 15.48 63.6545 14.68C63.5079 13.8667 63.1945 13.2133 62.7145 12.72C62.2479 12.2267 61.5679 11.98 60.6745 11.98C59.7679 11.98 59.0745 12.2267 58.5945 12.72C58.1279 13.2133 57.8145 13.8667 57.6545 14.68C57.5079 15.48 57.4345 16.46 57.4345 17.62C57.4345 18.82 57.5079 19.8267 57.6545 20.64C57.8145 21.4533 58.1279 22.1067 58.5945 22.6C59.0745 23.0933 59.7679 23.34 60.6745 23.34C61.5679 23.34 62.2479 23.0933 62.7145 22.6C63.1945 22.1067 63.5079 21.4533 63.6545 20.64C63.8145 19.8267 63.8945 18.82 63.8945 17.62Z" fill="#B3B3B3"/>
<path d="M0 18.44H66.9545V19.44H0V18.44Z" fill="#B3B3B3"/>
<path d="M84.056 21.248C84.056 22.048 83.856 22.8 83.456 23.504C83.072 24.208 82.496 24.8 81.728 25.28C80.976 25.76 80.08 26.048 79.04 26.144V28.088H77.48V26.144C75.976 26 74.76 25.528 73.832 24.728C72.904 23.928 72.44 22.872 72.44 21.56H75.368C75.416 22.184 75.616 22.704 75.968 23.12C76.32 23.52 76.824 23.776 77.48 23.888V18.608C76.408 18.336 75.536 18.064 74.864 17.792C74.192 17.504 73.616 17.056 73.136 16.448C72.672 15.84 72.44 15.008 72.44 13.952C72.44 12.624 72.904 11.528 73.832 10.664C74.76 9.784 75.976 9.272 77.48 9.128V7.184H79.04V9.128C80.448 9.256 81.576 9.704 82.424 10.472C83.288 11.224 83.776 12.264 83.888 13.592H80.96C80.912 13.096 80.72 12.656 80.384 12.272C80.048 11.872 79.6 11.6 79.04 11.456V16.64C80.112 16.896 80.984 17.168 81.656 17.456C82.328 17.728 82.896 18.168 83.36 18.776C83.824 19.368 84.056 20.192 84.056 21.248ZM75.224 13.808C75.224 14.464 75.416 14.976 75.8 15.344C76.2 15.712 76.76 16.008 77.48 16.232V11.384C76.792 11.464 76.24 11.712 75.824 12.128C75.424 12.544 75.224 13.104 75.224 13.808ZM79.04 23.888C79.744 23.776 80.296 23.496 80.696 23.048C81.096 22.584 81.296 22.032 81.296 21.392C81.296 20.752 81.096 20.256 80.696 19.904C80.312 19.536 79.76 19.24 79.04 19.016V23.888ZM87.6894 11V8.504H92.6814V26H89.9214V11H87.6894ZM107.528 10.616L100.856 26H98.096L104.84 10.904H95.96V8.576H107.528V10.616ZM111.334 26.168C110.838 26.168 110.422 26 110.086 25.664C109.75 25.328 109.582 24.912 109.582 24.416C109.582 23.92 109.75 23.504 110.086 23.168C110.422 22.832 110.838 22.664 111.334 22.664C111.814 22.664 112.222 22.832 112.558 23.168C112.894 23.504 113.062 23.92 113.062 24.416C113.062 24.912 112.894 25.328 112.558 25.664C112.222 26 111.814 26.168 111.334 26.168ZM117.171 22.28C118.707 20.952 119.915 19.864 120.795 19.016C121.691 18.152 122.435 17.256 123.027 16.328C123.619 15.4 123.915 14.472 123.915 13.544C123.915 12.584 123.683 11.832 123.219 11.288C122.771 10.744 122.059 10.472 121.083 10.472C120.139 10.472 119.403 10.776 118.875 11.384C118.363 11.976 118.091 12.776 118.059 13.784H115.419C115.467 11.96 116.011 10.568 117.051 9.608C118.107 8.632 119.443 8.144 121.059 8.144C122.803 8.144 124.163 8.624 125.139 9.584C126.131 10.544 126.627 11.824 126.627 13.424C126.627 14.576 126.331 15.688 125.739 16.76C125.163 17.816 124.467 18.768 123.651 19.616C122.851 20.448 121.827 21.416 120.579 22.52L119.499 23.48H127.107V25.76H115.443V23.768L117.171 22.28ZM132.462 16.856C130.798 16.024 129.966 14.712 129.966 12.92C129.966 12.056 130.182 11.264 130.614 10.544C131.046 9.824 131.694 9.256 132.558 8.84C133.422 8.408 134.478 8.192 135.726 8.192C136.958 8.192 138.006 8.408 138.87 8.84C139.75 9.256 140.406 9.824 140.838 10.544C141.27 11.264 141.486 12.056 141.486 12.92C141.486 13.816 141.254 14.608 140.79 15.296C140.342 15.968 139.742 16.488 138.99 16.856C139.902 17.192 140.622 17.744 141.15 18.512C141.678 19.264 141.942 20.152 141.942 21.176C141.942 22.216 141.678 23.136 141.15 23.936C140.622 24.736 139.886 25.352 138.942 25.784C137.998 26.216 136.926 26.432 135.726 26.432C134.526 26.432 133.454 26.216 132.51 25.784C131.582 25.352 130.854 24.736 130.326 23.936C129.798 23.136 129.534 22.216 129.534 21.176C129.534 20.136 129.798 19.24 130.326 18.488C130.854 17.736 131.566 17.192 132.462 16.856ZM138.87 13.256C138.87 12.36 138.59 11.672 138.03 11.192C137.47 10.712 136.702 10.472 135.726 10.472C134.766 10.472 134.006 10.712 133.446 11.192C132.886 11.672 132.606 12.368 132.606 13.28C132.606 14.08 132.894 14.736 133.47 15.248C134.062 15.744 134.814 15.992 135.726 15.992C136.638 15.992 137.39 15.736 137.982 15.224C138.574 14.712 138.87 14.056 138.87 13.256ZM135.726 18.056C134.67 18.056 133.806 18.32 133.134 18.848C132.478 19.36 132.15 20.104 132.15 21.08C132.15 21.992 132.47 22.736 133.11 23.312C133.75 23.872 134.622 24.152 135.726 24.152C136.814 24.152 137.67 23.864 138.294 23.288C138.934 22.712 139.254 21.976 139.254 21.08C139.254 20.12 138.926 19.376 138.27 18.848C137.63 18.32 136.782 18.056 135.726 18.056Z" fill="#2C742F"/>
<rect x="156" y="4.5" width="74" height="27" rx="13.5" fill="#EA4B48" fill-opacity="0.1"/>
<path d="M172.328 14.66C172.225 14.2307 172.039 13.9087 171.768 13.694C171.497 13.4793 171.119 13.372 170.634 13.372C169.897 13.372 169.346 13.6567 168.982 14.226C168.618 14.786 168.427 15.7193 168.408 17.026C168.651 16.6153 169.005 16.298 169.472 16.074C169.939 15.85 170.443 15.738 170.984 15.738C171.6 15.738 172.141 15.8733 172.608 16.144C173.084 16.4053 173.453 16.788 173.714 17.292C173.985 17.796 174.12 18.398 174.12 19.098C174.12 19.7513 173.989 20.3347 173.728 20.848C173.476 21.3613 173.098 21.7673 172.594 22.066C172.09 22.3553 171.483 22.5 170.774 22.5C169.813 22.5 169.057 22.29 168.506 21.87C167.965 21.4407 167.582 20.8387 167.358 20.064C167.143 19.2893 167.036 18.3233 167.036 17.166C167.036 13.75 168.24 12.042 170.648 12.042C171.581 12.042 172.314 12.294 172.846 12.798C173.387 13.302 173.705 13.9227 173.798 14.66H172.328ZM170.634 17.082C170.065 17.082 169.579 17.2547 169.178 17.6C168.786 17.936 168.59 18.426 168.59 19.07C168.59 19.714 168.772 20.2273 169.136 20.61C169.509 20.9833 170.027 21.17 170.69 21.17C171.278 21.17 171.74 20.988 172.076 20.624C172.421 20.26 172.594 19.7747 172.594 19.168C172.594 18.5333 172.426 18.0293 172.09 17.656C171.763 17.2733 171.278 17.082 170.634 17.082ZM175.626 20.372V19.168L180.33 12.42H182.262V18.986H183.564V20.372H182.262V22.5H180.694V20.372H175.626ZM180.764 14.044L177.46 18.986H180.764V14.044ZM184.635 14.758C184.635 14.0767 184.831 13.5447 185.223 13.162C185.624 12.77 186.138 12.574 186.763 12.574C187.388 12.574 187.897 12.77 188.289 13.162C188.69 13.5447 188.891 14.0767 188.891 14.758C188.891 15.4393 188.69 15.976 188.289 16.368C187.897 16.76 187.388 16.956 186.763 16.956C186.138 16.956 185.624 16.76 185.223 16.368C184.831 15.976 184.635 15.4393 184.635 14.758ZM193.175 12.756L187.589 22.5H186.021L191.607 12.756H193.175ZM186.763 13.54C186.175 13.54 185.881 13.946 185.881 14.758C185.881 15.5793 186.175 15.99 186.763 15.99C187.043 15.99 187.258 15.892 187.407 15.696C187.566 15.4907 187.645 15.178 187.645 14.758C187.645 13.946 187.351 13.54 186.763 13.54ZM190.333 20.484C190.333 19.8027 190.529 19.2707 190.921 18.888C191.322 18.496 191.836 18.3 192.461 18.3C193.077 18.3 193.581 18.496 193.973 18.888C194.374 19.2707 194.575 19.8027 194.575 20.484C194.575 21.1653 194.374 21.702 193.973 22.094C193.581 22.486 193.077 22.682 192.461 22.682C191.836 22.682 191.322 22.486 190.921 22.094C190.529 21.702 190.333 21.1653 190.333 20.484ZM192.447 19.266C191.859 19.266 191.565 19.672 191.565 20.484C191.565 21.296 191.859 21.702 192.447 21.702C193.035 21.702 193.329 21.296 193.329 20.484C193.329 19.672 193.035 19.266 192.447 19.266ZM204.287 22.598C203.381 22.598 202.546 22.388 201.781 21.968C201.025 21.5387 200.423 20.946 199.975 20.19C199.536 19.4247 199.317 18.566 199.317 17.614C199.317 16.662 199.536 15.808 199.975 15.052C200.423 14.296 201.025 13.708 201.781 13.288C202.546 12.8587 203.381 12.644 204.287 12.644C205.201 12.644 206.037 12.8587 206.793 13.288C207.558 13.708 208.16 14.296 208.599 15.052C209.037 15.808 209.257 16.662 209.257 17.614C209.257 18.566 209.037 19.4247 208.599 20.19C208.16 20.946 207.558 21.5387 206.793 21.968C206.037 22.388 205.201 22.598 204.287 22.598ZM204.287 21.212C204.931 21.212 205.505 21.0673 206.009 20.778C206.513 20.4793 206.905 20.0593 207.185 19.518C207.474 18.9673 207.619 18.3327 207.619 17.614C207.619 16.8953 207.474 16.2653 207.185 15.724C206.905 15.1827 206.513 14.7673 206.009 14.478C205.505 14.1887 204.931 14.044 204.287 14.044C203.643 14.044 203.069 14.1887 202.565 14.478C202.061 14.7673 201.664 15.1827 201.375 15.724C201.095 16.2653 200.955 16.8953 200.955 17.614C200.955 18.3327 201.095 18.9673 201.375 19.518C201.664 20.0593 202.061 20.4793 202.565 20.778C203.069 21.0673 203.643 21.212 204.287 21.212ZM214.061 16.088H212.633V22.5H211.023V16.088H210.113V14.786H211.023V14.24C211.023 13.3533 211.257 12.7093 211.723 12.308C212.199 11.8973 212.941 11.692 213.949 11.692V13.022C213.464 13.022 213.123 13.1153 212.927 13.302C212.731 13.4793 212.633 13.792 212.633 14.24V14.786H214.061V16.088ZM218.71 16.088H217.282V22.5H215.672V16.088H214.762V14.786H215.672V14.24C215.672 13.3533 215.905 12.7093 216.372 12.308C216.848 11.8973 217.59 11.692 218.598 11.692V13.022C218.112 13.022 217.772 13.1153 217.576 13.302C217.38 13.4793 217.282 13.792 217.282 14.24V14.786H218.71V16.088Z" fill="#EA4B48"/>
</svg>
