<svg width="191" height="37" viewBox="0 0 191 37" fill="none" xmlns="http://www.w3.org/2000/svg">
<path d="M15.999 32.0722C-10.6672 17.3333 7.9995 1.33334 15.999 11.4507C23.9995 1.33334 42.6661 17.3333 15.999 32.0722Z" stroke="#1A1A1A" stroke-width="1.5"/>
<line x1="48.5" y1="8" x2="48.5" y2="32" stroke="#CCCCCC"/>
<path d="M75.3333 17.1667H71.0833L68.25 32.75H93.75L90.9167 17.1667H86.6667M75.3333 17.1667V12.9167C75.3333 9.78705 77.8704 7.25 81 7.25C84.1296 7.25 86.6667 9.78705 86.6667 12.9167V17.1667M75.3333 17.1667H86.6667M75.3333 17.1667V21.4167M86.6667 17.1667V21.4167" stroke="#1A1A1A" stroke-width="1.5" stroke-linecap="round" stroke-linejoin="round"/>
<rect x="81.5" y="0.5" width="19" height="19" rx="9.5" fill="#2C742F"/>
<rect x="81.5" y="0.5" width="19" height="19" rx="9.5" stroke="white"/>
<path d="M89.3443 11.95C89.9843 11.3967 90.4876 10.9433 90.8543 10.59C91.2276 10.23 91.5376 9.85667 91.7843 9.47C92.0309 9.08333 92.1543 8.69667 92.1543 8.31C92.1543 7.91 92.0576 7.59667 91.8643 7.37C91.6776 7.14333 91.3809 7.03 90.9743 7.03C90.5809 7.03 90.2743 7.15667 90.0543 7.41C89.8409 7.65667 89.7276 7.99 89.7143 8.41H88.6143C88.6343 7.65 88.8609 7.07 89.2943 6.67C89.7343 6.26333 90.2909 6.06 90.9643 6.06C91.6909 6.06 92.2576 6.26 92.6643 6.66C93.0776 7.06 93.2843 7.59333 93.2843 8.26C93.2843 8.74 93.1609 9.20333 92.9143 9.65C92.6743 10.09 92.3843 10.4867 92.0443 10.84C91.7109 11.1867 91.2843 11.59 90.7643 12.05L90.3143 12.45H93.4843V13.4H88.6243V12.57L89.3443 11.95Z" fill="white"/>
<path d="M113.278 13.077C112.772 13.077 112.317 12.989 111.914 12.813C111.518 12.6297 111.206 12.3803 110.979 12.065C110.752 11.7423 110.634 11.372 110.627 10.954H111.694C111.731 11.3133 111.877 11.6177 112.134 11.867C112.398 12.109 112.779 12.23 113.278 12.23C113.755 12.23 114.129 12.1127 114.4 11.878C114.679 11.636 114.818 11.328 114.818 10.954C114.818 10.6607 114.737 10.4223 114.576 10.239C114.415 10.0557 114.213 9.91633 113.971 9.821C113.729 9.72567 113.403 9.623 112.992 9.513C112.486 9.381 112.079 9.249 111.771 9.117C111.47 8.985 111.21 8.77967 110.99 8.501C110.777 8.215 110.671 7.83367 110.671 7.357C110.671 6.939 110.777 6.56867 110.99 6.246C111.203 5.92333 111.5 5.674 111.881 5.498C112.27 5.322 112.713 5.234 113.212 5.234C113.931 5.234 114.517 5.41367 114.972 5.773C115.434 6.13233 115.694 6.609 115.753 7.203H114.653C114.616 6.90967 114.462 6.653 114.191 6.433C113.92 6.20567 113.56 6.092 113.113 6.092C112.695 6.092 112.354 6.202 112.09 6.422C111.826 6.63467 111.694 6.93533 111.694 7.324C111.694 7.60267 111.771 7.83 111.925 8.006C112.086 8.182 112.281 8.31767 112.508 8.413C112.743 8.501 113.069 8.60367 113.487 8.721C113.993 8.86033 114.4 8.99967 114.708 9.139C115.016 9.271 115.28 9.48 115.5 9.766C115.72 10.0447 115.83 10.426 115.83 10.91C115.83 11.284 115.731 11.636 115.533 11.966C115.335 12.296 115.042 12.5637 114.653 12.769C114.264 12.9743 113.806 13.077 113.278 13.077ZM120.295 6.862C120.75 6.862 121.16 6.961 121.527 7.159C121.894 7.34967 122.18 7.63933 122.385 8.028C122.598 8.41667 122.704 8.88967 122.704 9.447V13H121.714V9.59C121.714 8.98867 121.564 8.53033 121.263 8.215C120.962 7.89233 120.552 7.731 120.031 7.731C119.503 7.731 119.081 7.896 118.766 8.226C118.458 8.556 118.304 9.03633 118.304 9.667V13H117.303V4.86H118.304V7.83C118.502 7.522 118.773 7.28367 119.118 7.115C119.47 6.94633 119.862 6.862 120.295 6.862ZM126.968 13.099C126.404 13.099 125.89 12.9707 125.428 12.714C124.974 12.4573 124.614 12.0943 124.35 11.625C124.094 11.1483 123.965 10.5983 123.965 9.975C123.965 9.359 124.097 8.81633 124.361 8.347C124.633 7.87033 124.999 7.50733 125.461 7.258C125.923 7.00133 126.44 6.873 127.012 6.873C127.584 6.873 128.101 7.00133 128.563 7.258C129.025 7.50733 129.388 7.86667 129.652 8.336C129.924 8.80533 130.059 9.35167 130.059 9.975C130.059 10.5983 129.92 11.1483 129.641 11.625C129.37 12.0943 129 12.4573 128.53 12.714C128.061 12.9707 127.54 13.099 126.968 13.099ZM126.968 12.219C127.328 12.219 127.665 12.1347 127.98 11.966C128.296 11.7973 128.549 11.5443 128.739 11.207C128.937 10.8697 129.036 10.459 129.036 9.975C129.036 9.491 128.941 9.08033 128.75 8.743C128.56 8.40567 128.31 8.15633 128.002 7.995C127.694 7.82633 127.361 7.742 127.001 7.742C126.635 7.742 126.297 7.82633 125.989 7.995C125.689 8.15633 125.447 8.40567 125.263 8.743C125.08 9.08033 124.988 9.491 124.988 9.975C124.988 10.4663 125.076 10.8807 125.252 11.218C125.436 11.5553 125.678 11.8083 125.978 11.977C126.279 12.1383 126.609 12.219 126.968 12.219ZM132.376 8.083C132.574 7.73833 132.868 7.45233 133.256 7.225C133.652 6.99033 134.111 6.873 134.631 6.873C135.167 6.873 135.651 7.00133 136.083 7.258C136.523 7.51467 136.868 7.87767 137.117 8.347C137.367 8.809 137.491 9.348 137.491 9.964C137.491 10.5727 137.367 11.1153 137.117 11.592C136.868 12.0687 136.523 12.439 136.083 12.703C135.651 12.967 135.167 13.099 134.631 13.099C134.118 13.099 133.663 12.9853 133.267 12.758C132.879 12.5233 132.582 12.2337 132.376 11.889V15.86H131.375V6.972H132.376V8.083ZM136.468 9.964C136.468 9.50933 136.377 9.11333 136.193 8.776C136.01 8.43867 135.761 8.182 135.445 8.006C135.137 7.83 134.796 7.742 134.422 7.742C134.056 7.742 133.715 7.83367 133.399 8.017C133.091 8.193 132.842 8.45333 132.651 8.798C132.468 9.13533 132.376 9.52767 132.376 9.975C132.376 10.4297 132.468 10.8293 132.651 11.174C132.842 11.5113 133.091 11.7717 133.399 11.955C133.715 12.131 134.056 12.219 134.422 12.219C134.796 12.219 135.137 12.131 135.445 11.955C135.761 11.7717 136.01 11.5113 136.193 11.174C136.377 10.8293 136.468 10.426 136.468 9.964ZM139.81 8.083C140.008 7.73833 140.301 7.45233 140.69 7.225C141.086 6.99033 141.544 6.873 142.065 6.873C142.6 6.873 143.084 7.00133 143.517 7.258C143.957 7.51467 144.302 7.87767 144.551 8.347C144.8 8.809 144.925 9.348 144.925 9.964C144.925 10.5727 144.8 11.1153 144.551 11.592C144.302 12.0687 143.957 12.439 143.517 12.703C143.084 12.967 142.6 13.099 142.065 13.099C141.552 13.099 141.097 12.9853 140.701 12.758C140.312 12.5233 140.015 12.2337 139.81 11.889V15.86H138.809V6.972H139.81V8.083ZM143.902 9.964C143.902 9.50933 143.81 9.11333 143.627 8.776C143.444 8.43867 143.194 8.182 142.879 8.006C142.571 7.83 142.23 7.742 141.856 7.742C141.489 7.742 141.148 7.83367 140.833 8.017C140.525 8.193 140.276 8.45333 140.085 8.798C139.902 9.13533 139.81 9.52767 139.81 9.975C139.81 10.4297 139.902 10.8293 140.085 11.174C140.276 11.5113 140.525 11.7717 140.833 11.955C141.148 12.131 141.489 12.219 141.856 12.219C142.23 12.219 142.571 12.131 142.879 11.955C143.194 11.7717 143.444 11.5113 143.627 11.174C143.81 10.8293 143.902 10.426 143.902 9.964ZM146.76 5.993C146.569 5.993 146.408 5.927 146.276 5.795C146.144 5.663 146.078 5.50167 146.078 5.311C146.078 5.12033 146.144 4.959 146.276 4.827C146.408 4.695 146.569 4.629 146.76 4.629C146.943 4.629 147.097 4.695 147.222 4.827C147.354 4.959 147.42 5.12033 147.42 5.311C147.42 5.50167 147.354 5.663 147.222 5.795C147.097 5.927 146.943 5.993 146.76 5.993ZM147.244 6.972V13H146.243V6.972H147.244ZM151.887 6.862C152.62 6.862 153.214 7.08567 153.669 7.533C154.123 7.973 154.351 8.611 154.351 9.447V13H153.361V9.59C153.361 8.98867 153.21 8.53033 152.91 8.215C152.609 7.89233 152.198 7.731 151.678 7.731C151.15 7.731 150.728 7.896 150.413 8.226C150.105 8.556 149.951 9.03633 149.951 9.667V13H148.95V6.972H149.951V7.83C150.149 7.522 150.416 7.28367 150.754 7.115C151.098 6.94633 151.476 6.862 151.887 6.862ZM158.472 6.873C158.992 6.873 159.447 6.98667 159.836 7.214C160.232 7.44133 160.525 7.72733 160.716 8.072V6.972H161.728V13.132C161.728 13.682 161.61 14.1697 161.376 14.595C161.141 15.0277 160.804 15.365 160.364 15.607C159.931 15.849 159.425 15.97 158.846 15.97C158.054 15.97 157.394 15.783 156.866 15.409C156.338 15.035 156.026 14.5253 155.931 13.88H156.921C157.031 14.2467 157.258 14.54 157.603 14.76C157.947 14.9873 158.362 15.101 158.846 15.101C159.396 15.101 159.843 14.9287 160.188 14.584C160.54 14.2393 160.716 13.7553 160.716 13.132V11.867C160.518 12.219 160.224 12.5123 159.836 12.747C159.447 12.9817 158.992 13.099 158.472 13.099C157.936 13.099 157.449 12.967 157.009 12.703C156.576 12.439 156.235 12.0687 155.986 11.592C155.736 11.1153 155.612 10.5727 155.612 9.964C155.612 9.348 155.736 8.809 155.986 8.347C156.235 7.87767 156.576 7.51467 157.009 7.258C157.449 7.00133 157.936 6.873 158.472 6.873ZM160.716 9.975C160.716 9.52033 160.624 9.12433 160.441 8.787C160.257 8.44967 160.008 8.193 159.693 8.017C159.385 7.83367 159.044 7.742 158.67 7.742C158.296 7.742 157.955 7.83 157.647 8.006C157.339 8.182 157.093 8.43867 156.91 8.776C156.726 9.11333 156.635 9.50933 156.635 9.964C156.635 10.426 156.726 10.8293 156.91 11.174C157.093 11.5113 157.339 11.7717 157.647 11.955C157.955 12.131 158.296 12.219 158.67 12.219C159.044 12.219 159.385 12.131 159.693 11.955C160.008 11.7717 160.257 11.5113 160.441 11.174C160.624 10.8293 160.716 10.4297 160.716 9.975ZM165.978 9.975C165.978 9.35167 166.103 8.809 166.352 8.347C166.601 7.87767 166.946 7.51467 167.386 7.258C167.833 7.00133 168.343 6.873 168.915 6.873C169.656 6.873 170.264 7.05267 170.741 7.412C171.225 7.77133 171.544 8.27 171.698 8.908H170.62C170.517 8.54133 170.316 8.25167 170.015 8.039C169.722 7.82633 169.355 7.72 168.915 7.72C168.343 7.72 167.881 7.918 167.529 8.314C167.177 8.70267 167.001 9.25633 167.001 9.975C167.001 10.701 167.177 11.262 167.529 11.658C167.881 12.054 168.343 12.252 168.915 12.252C169.355 12.252 169.722 12.1493 170.015 11.944C170.308 11.7387 170.51 11.4453 170.62 11.064H171.698C171.537 11.68 171.214 12.175 170.73 12.549C170.246 12.9157 169.641 13.099 168.915 13.099C168.343 13.099 167.833 12.9707 167.386 12.714C166.946 12.4573 166.601 12.0943 166.352 11.625C166.103 11.1557 165.978 10.6057 165.978 9.975ZM172.66 9.964C172.66 9.348 172.784 8.809 173.034 8.347C173.283 7.87767 173.624 7.51467 174.057 7.258C174.497 7.00133 174.984 6.873 175.52 6.873C176.048 6.873 176.506 6.98667 176.895 7.214C177.283 7.44133 177.573 7.72733 177.764 8.072V6.972H178.776V13H177.764V11.878C177.566 12.23 177.269 12.5233 176.873 12.758C176.484 12.9853 176.029 13.099 175.509 13.099C174.973 13.099 174.489 12.967 174.057 12.703C173.624 12.439 173.283 12.0687 173.034 11.592C172.784 11.1153 172.66 10.5727 172.66 9.964ZM177.764 9.975C177.764 9.52033 177.672 9.12433 177.489 8.787C177.305 8.44967 177.056 8.193 176.741 8.017C176.433 7.83367 176.092 7.742 175.718 7.742C175.344 7.742 175.003 7.83 174.695 8.006C174.387 8.182 174.141 8.43867 173.958 8.776C173.774 9.11333 173.683 9.50933 173.683 9.964C173.683 10.426 173.774 10.8293 173.958 11.174C174.141 11.5113 174.387 11.7717 174.695 11.955C175.003 12.131 175.344 12.219 175.718 12.219C176.092 12.219 176.433 12.131 176.741 11.955C177.056 11.7717 177.305 11.5113 177.489 11.174C177.672 10.8293 177.764 10.4297 177.764 9.975ZM181.468 7.951C181.644 7.60633 181.893 7.33867 182.216 7.148C182.546 6.95733 182.946 6.862 183.415 6.862V7.896H183.151C182.029 7.896 181.468 8.50467 181.468 9.722V13H180.467V6.972H181.468V7.951ZM185.792 7.797V11.35C185.792 11.6433 185.854 11.8523 185.979 11.977C186.103 12.0943 186.32 12.153 186.628 12.153H187.365V13H186.463C185.905 13 185.487 12.8717 185.209 12.615C184.93 12.3583 184.791 11.9367 184.791 11.35V7.797H184.01V6.972H184.791V5.454H185.792V6.972H187.365V7.797H185.792ZM188.896 13.066C188.706 13.066 188.544 13 188.412 12.868C188.28 12.736 188.214 12.5747 188.214 12.384C188.214 12.1933 188.28 12.032 188.412 11.9C188.544 11.768 188.706 11.702 188.896 11.702C189.08 11.702 189.234 11.768 189.358 11.9C189.49 12.032 189.556 12.1933 189.556 12.384C189.556 12.5747 189.49 12.736 189.358 12.868C189.234 13 189.08 13.066 188.896 13.066ZM188.896 8.358C188.706 8.358 188.544 8.292 188.412 8.16C188.28 8.028 188.214 7.86667 188.214 7.676C188.214 7.48533 188.28 7.324 188.412 7.192C188.544 7.06 188.706 6.994 188.896 6.994C189.08 6.994 189.234 7.06 189.358 7.192C189.49 7.324 189.556 7.48533 189.556 7.676C189.556 7.86667 189.49 8.028 189.358 8.16C189.234 8.292 189.08 8.358 188.896 8.358Z" fill="#4D4D4D"/>
<path d="M117.616 32.228C117.616 32.6947 117.499 33.1333 117.266 33.544C117.042 33.9547 116.706 34.3 116.258 34.58C115.819 34.86 115.297 35.028 114.69 35.084V36.218H113.78V35.084C112.903 35 112.193 34.7247 111.652 34.258C111.111 33.7913 110.84 33.1753 110.84 32.41H112.548C112.576 32.774 112.693 33.0773 112.898 33.32C113.103 33.5533 113.397 33.7027 113.78 33.768V30.688C113.155 30.5293 112.646 30.3707 112.254 30.212C111.862 30.044 111.526 29.7827 111.246 29.428C110.975 29.0733 110.84 28.588 110.84 27.972C110.84 27.1973 111.111 26.558 111.652 26.054C112.193 25.5407 112.903 25.242 113.78 25.158V24.024H114.69V25.158C115.511 25.2327 116.169 25.494 116.664 25.942C117.168 26.3807 117.453 26.9873 117.518 27.762H115.81C115.782 27.4727 115.67 27.216 115.474 26.992C115.278 26.7587 115.017 26.6 114.69 26.516V29.54C115.315 29.6893 115.824 29.848 116.216 30.016C116.608 30.1747 116.939 30.4313 117.21 30.786C117.481 31.1313 117.616 31.612 117.616 32.228ZM112.464 27.888C112.464 28.2707 112.576 28.5693 112.8 28.784C113.033 28.9987 113.36 29.1713 113.78 29.302V26.474C113.379 26.5207 113.057 26.6653 112.814 26.908C112.581 27.1507 112.464 27.4773 112.464 27.888ZM114.69 33.768C115.101 33.7027 115.423 33.5393 115.656 33.278C115.889 33.0073 116.006 32.6853 116.006 32.312C116.006 31.9387 115.889 31.6493 115.656 31.444C115.432 31.2293 115.11 31.0567 114.69 30.926V33.768ZM126.525 26.166H121.835V28.952C122.031 28.6907 122.321 28.4713 122.703 28.294C123.095 28.1167 123.511 28.028 123.949 28.028C124.733 28.028 125.368 28.196 125.853 28.532C126.348 28.868 126.698 29.2927 126.903 29.806C127.118 30.3193 127.225 30.8607 127.225 31.43C127.225 32.1207 127.09 32.7367 126.819 33.278C126.558 33.81 126.161 34.23 125.629 34.538C125.107 34.846 124.463 35 123.697 35C122.68 35 121.863 34.748 121.247 34.244C120.631 33.74 120.263 33.0727 120.141 32.242H121.695C121.798 32.6807 122.027 33.0307 122.381 33.292C122.736 33.544 123.179 33.67 123.711 33.67C124.374 33.67 124.869 33.4693 125.195 33.068C125.531 32.6667 125.699 32.1347 125.699 31.472C125.699 30.8 125.531 30.2867 125.195 29.932C124.859 29.568 124.365 29.386 123.711 29.386C123.254 29.386 122.867 29.5027 122.549 29.736C122.241 29.96 122.017 30.268 121.877 30.66H120.365V24.766H126.525V26.166ZM135.355 26.026L131.463 35H129.853L133.787 26.194H128.607V24.836H135.355V26.026ZM137.575 35.098C137.286 35.098 137.043 35 136.847 34.804C136.651 34.608 136.553 34.3653 136.553 34.076C136.553 33.7867 136.651 33.544 136.847 33.348C137.043 33.152 137.286 33.054 137.575 33.054C137.855 33.054 138.093 33.152 138.289 33.348C138.485 33.544 138.583 33.7867 138.583 34.076C138.583 34.3653 138.485 34.608 138.289 34.804C138.093 35 137.855 35.098 137.575 35.098ZM140.098 29.764C140.098 28.1493 140.368 26.8893 140.91 25.984C141.46 25.0693 142.403 24.612 143.738 24.612C145.072 24.612 146.01 25.0693 146.552 25.984C147.102 26.8893 147.378 28.1493 147.378 29.764C147.378 31.3973 147.102 32.676 146.552 33.6C146.01 34.5147 145.072 34.972 143.738 34.972C142.403 34.972 141.46 34.5147 140.91 33.6C140.368 32.676 140.098 31.3973 140.098 29.764ZM145.81 29.764C145.81 29.008 145.758 28.3687 145.656 27.846C145.562 27.3233 145.366 26.8987 145.068 26.572C144.769 26.236 144.326 26.068 143.738 26.068C143.15 26.068 142.706 26.236 142.408 26.572C142.109 26.8987 141.908 27.3233 141.806 27.846C141.712 28.3687 141.666 29.008 141.666 29.764C141.666 30.548 141.712 31.206 141.806 31.738C141.899 32.27 142.095 32.6993 142.394 33.026C142.702 33.3527 143.15 33.516 143.738 33.516C144.326 33.516 144.769 33.3527 145.068 33.026C145.376 32.6993 145.576 32.27 145.67 31.738C145.763 31.206 145.81 30.548 145.81 29.764ZM149.067 29.764C149.067 28.1493 149.337 26.8893 149.879 25.984C150.429 25.0693 151.372 24.612 152.707 24.612C154.041 24.612 154.979 25.0693 155.521 25.984C156.071 26.8893 156.347 28.1493 156.347 29.764C156.347 31.3973 156.071 32.676 155.521 33.6C154.979 34.5147 154.041 34.972 152.707 34.972C151.372 34.972 150.429 34.5147 149.879 33.6C149.337 32.676 149.067 31.3973 149.067 29.764ZM154.779 29.764C154.779 29.008 154.727 28.3687 154.625 27.846C154.531 27.3233 154.335 26.8987 154.037 26.572C153.738 26.236 153.295 26.068 152.707 26.068C152.119 26.068 151.675 26.236 151.377 26.572C151.078 26.8987 150.877 27.3233 150.775 27.846C150.681 28.3687 150.635 29.008 150.635 29.764C150.635 30.548 150.681 31.206 150.775 31.738C150.868 32.27 151.064 32.6993 151.363 33.026C151.671 33.3527 152.119 33.516 152.707 33.516C153.295 33.516 153.738 33.3527 154.037 33.026C154.345 32.6993 154.545 32.27 154.639 31.738C154.732 31.206 154.779 30.548 154.779 29.764Z" fill="#1A1A1A"/>
</svg>
