<svg width="232" height="16" viewBox="0 0 232 16" fill="none" xmlns="http://www.w3.org/2000/svg">
<path d="M2.04725 4.524V7.32H5.09525V8.22H2.04725V11.1H5.45525V12H0.95525V3.624H5.45525V4.524H2.04725ZM10.3116 5.304C11.1116 5.304 11.7596 5.548 12.2556 6.036C12.7516 6.516 12.9996 7.212 12.9996 8.124V12H11.9196V8.28C11.9196 7.624 11.7556 7.124 11.4276 6.78C11.0996 6.428 10.6516 6.252 10.0836 6.252C9.50759 6.252 9.04759 6.432 8.70359 6.792C8.36759 7.152 8.19959 7.676 8.19959 8.364V12H7.10759V5.424H8.19959V6.36C8.41559 6.024 8.70759 5.764 9.07559 5.58C9.45159 5.396 9.86359 5.304 10.3116 5.304ZM17.4954 5.316C18.0634 5.316 18.5594 5.44 18.9834 5.688C19.4154 5.936 19.7354 6.248 19.9434 6.624V5.424H21.0474V12.144C21.0474 12.744 20.9194 13.276 20.6634 13.74C20.4074 14.212 20.0394 14.58 19.5594 14.844C19.0874 15.108 18.5354 15.24 17.9034 15.24C17.0394 15.24 16.3194 15.036 15.7434 14.628C15.1674 14.22 14.8274 13.664 14.7234 12.96H15.8034C15.9234 13.36 16.1714 13.68 16.5474 13.92C16.9234 14.168 17.3754 14.292 17.9034 14.292C18.5034 14.292 18.9914 14.104 19.3674 13.728C19.7514 13.352 19.9434 12.824 19.9434 12.144V10.764C19.7274 11.148 19.4074 11.468 18.9834 11.724C18.5594 11.98 18.0634 12.108 17.4954 12.108C16.9114 12.108 16.3794 11.964 15.8994 11.676C15.4274 11.388 15.0554 10.984 14.7834 10.464C14.5114 9.944 14.3754 9.352 14.3754 8.688C14.3754 8.016 14.5114 7.428 14.7834 6.924C15.0554 6.412 15.4274 6.016 15.8994 5.736C16.3794 5.456 16.9114 5.316 17.4954 5.316ZM19.9434 8.7C19.9434 8.204 19.8434 7.772 19.6434 7.404C19.4434 7.036 19.1714 6.756 18.8274 6.564C18.4914 6.364 18.1194 6.264 17.7114 6.264C17.3034 6.264 16.9314 6.36 16.5954 6.552C16.2594 6.744 15.9914 7.024 15.7914 7.392C15.5914 7.76 15.4914 8.192 15.4914 8.688C15.4914 9.192 15.5914 9.632 15.7914 10.008C15.9914 10.376 16.2594 10.66 16.5954 10.86C16.9314 11.052 17.3034 11.148 17.7114 11.148C18.1194 11.148 18.4914 11.052 18.8274 10.86C19.1714 10.66 19.4434 10.376 19.6434 10.008C19.8434 9.632 19.9434 9.196 19.9434 8.7Z" fill="#666666"/>
<path d="M35 6.25L31.5 9.75L28 6.25" stroke="#666666" stroke-linecap="round" stroke-linejoin="round"/>
<path d="M57.1795 3.636V8.928C57.1795 9.672 57.3595 10.224 57.7195 10.584C58.0875 10.944 58.5955 11.124 59.2435 11.124C59.8835 11.124 60.3835 10.944 60.7435 10.584C61.1115 10.224 61.2955 9.672 61.2955 8.928V3.636H62.3875V8.916C62.3875 9.612 62.2475 10.2 61.9675 10.68C61.6875 11.152 61.3075 11.504 60.8275 11.736C60.3555 11.968 59.8235 12.084 59.2315 12.084C58.6395 12.084 58.1035 11.968 57.6235 11.736C57.1515 11.504 56.7755 11.152 56.4955 10.68C56.2235 10.2 56.0875 9.612 56.0875 8.916V3.636H57.1795ZM66.8612 12.084C66.3092 12.084 65.8132 11.988 65.3732 11.796C64.9412 11.596 64.6012 11.324 64.3532 10.98C64.1052 10.628 63.9772 10.224 63.9692 9.768H65.1332C65.1732 10.16 65.3332 10.492 65.6132 10.764C65.9012 11.028 66.3172 11.16 66.8612 11.16C67.3812 11.16 67.7892 11.032 68.0852 10.776C68.3892 10.512 68.5412 10.176 68.5412 9.768C68.5412 9.448 68.4532 9.188 68.2772 8.988C68.1012 8.788 67.8812 8.636 67.6172 8.532C67.3532 8.428 66.9972 8.316 66.5492 8.196C65.9972 8.052 65.5532 7.908 65.2172 7.764C64.8892 7.62 64.6052 7.396 64.3652 7.092C64.1332 6.78 64.0172 6.364 64.0172 5.844C64.0172 5.388 64.1332 4.984 64.3652 4.632C64.5972 4.28 64.9212 4.008 65.3372 3.816C65.7612 3.624 66.2452 3.528 66.7892 3.528C67.5732 3.528 68.2132 3.724 68.7092 4.116C69.2132 4.508 69.4972 5.028 69.5612 5.676H68.3612C68.3212 5.356 68.1532 5.076 67.8572 4.836C67.5612 4.588 67.1692 4.464 66.6812 4.464C66.2252 4.464 65.8532 4.584 65.5652 4.824C65.2772 5.056 65.1332 5.384 65.1332 5.808C65.1332 6.112 65.2172 6.36 65.3852 6.552C65.5612 6.744 65.7732 6.892 66.0212 6.996C66.2772 7.092 66.6332 7.204 67.0892 7.332C67.6412 7.484 68.0852 7.636 68.4212 7.788C68.7572 7.932 69.0452 8.16 69.2852 8.472C69.5252 8.776 69.6452 9.192 69.6452 9.72C69.6452 10.128 69.5372 10.512 69.3212 10.872C69.1052 11.232 68.7852 11.524 68.3612 11.748C67.9372 11.972 67.4372 12.084 66.8612 12.084ZM73.8561 3.636C74.7681 3.636 75.5561 3.808 76.2201 4.152C76.8921 4.488 77.4041 4.972 77.7561 5.604C78.1161 6.236 78.2961 6.98 78.2961 7.836C78.2961 8.692 78.1161 9.436 77.7561 10.068C77.4041 10.692 76.8921 11.172 76.2201 11.508C75.5561 11.836 74.7681 12 73.8561 12H71.2521V3.636H73.8561ZM73.8561 11.1C74.9361 11.1 75.7601 10.816 76.3281 10.248C76.8961 9.672 77.1801 8.868 77.1801 7.836C77.1801 6.796 76.8921 5.984 76.3161 5.4C75.7481 4.816 74.9281 4.524 73.8561 4.524H72.3441V11.1H73.8561Z" fill="#666666"/>
<path d="M92 6.25L88.5 9.75L85 6.25" stroke="#666666" stroke-linecap="round" stroke-linejoin="round"/>
<line opacity="0.52" x1="112.5" y1="0.5" x2="112.5" y2="15.5" stroke="#666666"/>
<path d="M135.576 12.084C135.024 12.084 134.528 11.988 134.088 11.796C133.656 11.596 133.316 11.324 133.068 10.98C132.82 10.628 132.692 10.224 132.684 9.768H133.848C133.888 10.16 134.048 10.492 134.328 10.764C134.616 11.028 135.032 11.16 135.576 11.16C136.096 11.16 136.504 11.032 136.8 10.776C137.104 10.512 137.256 10.176 137.256 9.768C137.256 9.448 137.168 9.188 136.992 8.988C136.816 8.788 136.596 8.636 136.332 8.532C136.068 8.428 135.712 8.316 135.264 8.196C134.712 8.052 134.268 7.908 133.932 7.764C133.604 7.62 133.32 7.396 133.08 7.092C132.848 6.78 132.732 6.364 132.732 5.844C132.732 5.388 132.848 4.984 133.08 4.632C133.312 4.28 133.636 4.008 134.052 3.816C134.476 3.624 134.96 3.528 135.504 3.528C136.288 3.528 136.928 3.724 137.424 4.116C137.928 4.508 138.212 5.028 138.276 5.676H137.076C137.036 5.356 136.868 5.076 136.572 4.836C136.276 4.588 135.884 4.464 135.396 4.464C134.94 4.464 134.568 4.584 134.28 4.824C133.992 5.056 133.848 5.384 133.848 5.808C133.848 6.112 133.932 6.36 134.1 6.552C134.276 6.744 134.488 6.892 134.736 6.996C134.992 7.092 135.348 7.204 135.804 7.332C136.356 7.484 136.8 7.636 137.136 7.788C137.472 7.932 137.76 8.16 138 8.472C138.24 8.776 138.36 9.192 138.36 9.72C138.36 10.128 138.252 10.512 138.036 10.872C137.82 11.232 137.5 11.524 137.076 11.748C136.652 11.972 136.152 12.084 135.576 12.084ZM140.531 4.356C140.323 4.356 140.147 4.284 140.003 4.14C139.859 3.996 139.787 3.82 139.787 3.612C139.787 3.404 139.859 3.228 140.003 3.084C140.147 2.94 140.323 2.868 140.531 2.868C140.731 2.868 140.899 2.94 141.035 3.084C141.179 3.228 141.251 3.404 141.251 3.612C141.251 3.82 141.179 3.996 141.035 4.14C140.899 4.284 140.731 4.356 140.531 4.356ZM141.059 5.424V12H139.967V5.424H141.059ZM145.632 5.316C146.2 5.316 146.696 5.44 147.12 5.688C147.552 5.936 147.872 6.248 148.08 6.624V5.424H149.184V12.144C149.184 12.744 149.056 13.276 148.8 13.74C148.544 14.212 148.176 14.58 147.696 14.844C147.224 15.108 146.672 15.24 146.04 15.24C145.176 15.24 144.456 15.036 143.88 14.628C143.304 14.22 142.964 13.664 142.86 12.96H143.94C144.06 13.36 144.308 13.68 144.684 13.92C145.06 14.168 145.512 14.292 146.04 14.292C146.64 14.292 147.128 14.104 147.504 13.728C147.888 13.352 148.08 12.824 148.08 12.144V10.764C147.864 11.148 147.544 11.468 147.12 11.724C146.696 11.98 146.2 12.108 145.632 12.108C145.048 12.108 144.516 11.964 144.036 11.676C143.564 11.388 143.192 10.984 142.92 10.464C142.648 9.944 142.512 9.352 142.512 8.688C142.512 8.016 142.648 7.428 142.92 6.924C143.192 6.412 143.564 6.016 144.036 5.736C144.516 5.456 145.048 5.316 145.632 5.316ZM148.08 8.7C148.08 8.204 147.98 7.772 147.78 7.404C147.58 7.036 147.308 6.756 146.964 6.564C146.628 6.364 146.256 6.264 145.848 6.264C145.44 6.264 145.068 6.36 144.732 6.552C144.396 6.744 144.128 7.024 143.928 7.392C143.728 7.76 143.628 8.192 143.628 8.688C143.628 9.192 143.728 9.632 143.928 10.008C144.128 10.376 144.396 10.66 144.732 10.86C145.068 11.052 145.44 11.148 145.848 11.148C146.256 11.148 146.628 11.052 146.964 10.86C147.308 10.66 147.58 10.376 147.78 10.008C147.98 9.632 148.08 9.196 148.08 8.7ZM154.233 5.304C155.033 5.304 155.681 5.548 156.177 6.036C156.673 6.516 156.921 7.212 156.921 8.124V12H155.841V8.28C155.841 7.624 155.677 7.124 155.349 6.78C155.021 6.428 154.573 6.252 154.005 6.252C153.429 6.252 152.969 6.432 152.625 6.792C152.289 7.152 152.121 7.676 152.121 8.364V12H151.029V5.424H152.121V6.36C152.337 6.024 152.629 5.764 152.997 5.58C153.373 5.396 153.785 5.304 154.233 5.304ZM162.996 3.636V12H161.904V3.636H162.996ZM168.062 5.304C168.862 5.304 169.51 5.548 170.006 6.036C170.502 6.516 170.75 7.212 170.75 8.124V12H169.67V8.28C169.67 7.624 169.506 7.124 169.178 6.78C168.85 6.428 168.402 6.252 167.834 6.252C167.258 6.252 166.798 6.432 166.454 6.792C166.118 7.152 165.95 7.676 165.95 8.364V12H164.858V5.424H165.95V6.36C166.166 6.024 166.458 5.764 166.826 5.58C167.202 5.396 167.614 5.304 168.062 5.304Z" fill="#666666"/>
<path d="M181.004 0.696L177.716 14.04H176.636L179.912 0.696H181.004Z" fill="#666666"/>
<path d="M189.576 12.084C189.024 12.084 188.528 11.988 188.088 11.796C187.656 11.596 187.316 11.324 187.068 10.98C186.82 10.628 186.692 10.224 186.684 9.768H187.848C187.888 10.16 188.048 10.492 188.328 10.764C188.616 11.028 189.032 11.16 189.576 11.16C190.096 11.16 190.504 11.032 190.8 10.776C191.104 10.512 191.256 10.176 191.256 9.768C191.256 9.448 191.168 9.188 190.992 8.988C190.816 8.788 190.596 8.636 190.332 8.532C190.068 8.428 189.712 8.316 189.264 8.196C188.712 8.052 188.268 7.908 187.932 7.764C187.604 7.62 187.32 7.396 187.08 7.092C186.848 6.78 186.732 6.364 186.732 5.844C186.732 5.388 186.848 4.984 187.08 4.632C187.312 4.28 187.636 4.008 188.052 3.816C188.476 3.624 188.96 3.528 189.504 3.528C190.288 3.528 190.928 3.724 191.424 4.116C191.928 4.508 192.212 5.028 192.276 5.676H191.076C191.036 5.356 190.868 5.076 190.572 4.836C190.276 4.588 189.884 4.464 189.396 4.464C188.94 4.464 188.568 4.584 188.28 4.824C187.992 5.056 187.848 5.384 187.848 5.808C187.848 6.112 187.932 6.36 188.1 6.552C188.276 6.744 188.488 6.892 188.736 6.996C188.992 7.092 189.348 7.204 189.804 7.332C190.356 7.484 190.8 7.636 191.136 7.788C191.472 7.932 191.76 8.16 192 8.472C192.24 8.776 192.36 9.192 192.36 9.72C192.36 10.128 192.252 10.512 192.036 10.872C191.82 11.232 191.5 11.524 191.076 11.748C190.652 11.972 190.152 12.084 189.576 12.084ZM194.531 4.356C194.323 4.356 194.147 4.284 194.003 4.14C193.859 3.996 193.787 3.82 193.787 3.612C193.787 3.404 193.859 3.228 194.003 3.084C194.147 2.94 194.323 2.868 194.531 2.868C194.731 2.868 194.899 2.94 195.035 3.084C195.179 3.228 195.251 3.404 195.251 3.612C195.251 3.82 195.179 3.996 195.035 4.14C194.899 4.284 194.731 4.356 194.531 4.356ZM195.059 5.424V12H193.967V5.424H195.059ZM199.632 5.316C200.2 5.316 200.696 5.44 201.12 5.688C201.552 5.936 201.872 6.248 202.08 6.624V5.424H203.184V12.144C203.184 12.744 203.056 13.276 202.8 13.74C202.544 14.212 202.176 14.58 201.696 14.844C201.224 15.108 200.672 15.24 200.04 15.24C199.176 15.24 198.456 15.036 197.88 14.628C197.304 14.22 196.964 13.664 196.86 12.96H197.94C198.06 13.36 198.308 13.68 198.684 13.92C199.06 14.168 199.512 14.292 200.04 14.292C200.64 14.292 201.128 14.104 201.504 13.728C201.888 13.352 202.08 12.824 202.08 12.144V10.764C201.864 11.148 201.544 11.468 201.12 11.724C200.696 11.98 200.2 12.108 199.632 12.108C199.048 12.108 198.516 11.964 198.036 11.676C197.564 11.388 197.192 10.984 196.92 10.464C196.648 9.944 196.512 9.352 196.512 8.688C196.512 8.016 196.648 7.428 196.92 6.924C197.192 6.412 197.564 6.016 198.036 5.736C198.516 5.456 199.048 5.316 199.632 5.316ZM202.08 8.7C202.08 8.204 201.98 7.772 201.78 7.404C201.58 7.036 201.308 6.756 200.964 6.564C200.628 6.364 200.256 6.264 199.848 6.264C199.44 6.264 199.068 6.36 198.732 6.552C198.396 6.744 198.128 7.024 197.928 7.392C197.728 7.76 197.628 8.192 197.628 8.688C197.628 9.192 197.728 9.632 197.928 10.008C198.128 10.376 198.396 10.66 198.732 10.86C199.068 11.052 199.44 11.148 199.848 11.148C200.256 11.148 200.628 11.052 200.964 10.86C201.308 10.66 201.58 10.376 201.78 10.008C201.98 9.632 202.08 9.196 202.08 8.7ZM208.233 5.304C209.033 5.304 209.681 5.548 210.177 6.036C210.673 6.516 210.921 7.212 210.921 8.124V12H209.841V8.28C209.841 7.624 209.677 7.124 209.349 6.78C209.021 6.428 208.573 6.252 208.005 6.252C207.429 6.252 206.969 6.432 206.625 6.792C206.289 7.152 206.121 7.676 206.121 8.364V12H205.029V5.424H206.121V6.36C206.337 6.024 206.629 5.764 206.997 5.58C207.373 5.396 207.785 5.304 208.233 5.304ZM216.972 3.636V8.928C216.972 9.672 217.152 10.224 217.512 10.584C217.88 10.944 218.388 11.124 219.036 11.124C219.676 11.124 220.176 10.944 220.536 10.584C220.904 10.224 221.088 9.672 221.088 8.928V3.636H222.18V8.916C222.18 9.612 222.04 10.2 221.76 10.68C221.48 11.152 221.1 11.504 220.62 11.736C220.148 11.968 219.616 12.084 219.024 12.084C218.432 12.084 217.896 11.968 217.416 11.736C216.944 11.504 216.568 11.152 216.288 10.68C216.016 10.2 215.88 9.612 215.88 8.916V3.636H216.972ZM225.094 6.636C225.31 6.26 225.63 5.948 226.054 5.7C226.486 5.444 226.986 5.316 227.554 5.316C228.138 5.316 228.666 5.456 229.138 5.736C229.618 6.016 229.994 6.412 230.266 6.924C230.538 7.428 230.674 8.016 230.674 8.688C230.674 9.352 230.538 9.944 230.266 10.464C229.994 10.984 229.618 11.388 229.138 11.676C228.666 11.964 228.138 12.108 227.554 12.108C226.994 12.108 226.498 11.984 226.066 11.736C225.642 11.48 225.318 11.164 225.094 10.788V15.12H224.002V5.424H225.094V6.636ZM229.558 8.688C229.558 8.192 229.458 7.76 229.258 7.392C229.058 7.024 228.786 6.744 228.442 6.552C228.106 6.36 227.734 6.264 227.326 6.264C226.926 6.264 226.554 6.364 226.21 6.564C225.874 6.756 225.602 7.04 225.394 7.416C225.194 7.784 225.094 8.212 225.094 8.7C225.094 9.196 225.194 9.632 225.394 10.008C225.602 10.376 225.874 10.66 226.21 10.86C226.554 11.052 226.926 11.148 227.326 11.148C227.734 11.148 228.106 11.052 228.442 10.86C228.786 10.66 229.058 10.376 229.258 10.008C229.458 9.632 229.558 9.192 229.558 8.688Z" fill="#666666"/>
</svg>
