<svg width="275" height="21" viewBox="0 0 275 21" fill="none" xmlns="http://www.w3.org/2000/svg">
<path d="M9.31008 14.9111L12.8566 17.1577C13.31 17.4446 13.8725 17.0176 13.7381 16.4883L12.7138 12.458C12.6848 12.3458 12.6882 12.2276 12.7234 12.1172C12.7586 12.0067 12.8243 11.9084 12.9129 11.8336L16.0933 9.18708C16.5106 8.83946 16.2958 8.1459 15.7586 8.11102L11.6056 7.84102C11.4938 7.83309 11.3866 7.79356 11.2964 7.72704C11.2061 7.66052 11.1367 7.56974 11.096 7.46527L9.5469 3.5649C9.50472 3.45405 9.42984 3.35864 9.33219 3.29132C9.23455 3.22401 9.11875 3.18796 9.00015 3.18796C8.88155 3.18796 8.76575 3.22401 8.6681 3.29132C8.57046 3.35864 8.49558 3.45405 8.4534 3.5649L6.90427 7.46527C6.86372 7.56985 6.79429 7.66074 6.70406 7.72737C6.61383 7.79399 6.50652 7.83361 6.39465 7.84158L2.24171 8.11158C1.70508 8.1459 1.48908 8.83946 1.90702 9.18708L5.0874 11.8342C5.17588 11.9089 5.2415 12.0071 5.27673 12.1175C5.31195 12.2278 5.31534 12.3458 5.28652 12.458L4.33702 16.1958C4.17558 16.8309 4.85115 17.3433 5.39452 16.9985L8.69077 14.9111C8.78342 14.8522 8.89093 14.8209 9.00071 14.8209C9.11049 14.8209 9.218 14.8522 9.31065 14.9111H9.31008Z" fill="#FF8A00"/>
<path d="M27.3101 14.9111L30.8566 17.1577C31.31 17.4446 31.8725 17.0177 31.7381 16.4884L30.7138 12.4581C30.6848 12.3458 30.6882 12.2276 30.7234 12.1172C30.7586 12.0067 30.8243 11.9085 30.9129 11.8337L34.0933 9.18711C34.5106 8.83949 34.2958 8.14593 33.7586 8.11105L29.6056 7.84105C29.4938 7.83312 29.3866 7.79359 29.2964 7.72707C29.2061 7.66055 29.1367 7.56977 29.096 7.4653L27.5469 3.56493C27.5047 3.45408 27.4298 3.35867 27.3322 3.29136C27.2345 3.22404 27.1187 3.18799 27.0001 3.18799C26.8815 3.18799 26.7657 3.22404 26.6681 3.29136C26.5705 3.35867 26.4956 3.45408 26.4534 3.56493L24.9043 7.4653C24.8637 7.56988 24.7943 7.66077 24.7041 7.7274C24.6138 7.79402 24.5065 7.83364 24.3946 7.84161L20.2417 8.11161C19.7051 8.14593 19.4891 8.83949 19.907 9.18711L23.0874 11.8342C23.1759 11.909 23.2415 12.0072 23.2767 12.1175C23.3119 12.2278 23.3153 12.3459 23.2865 12.4581L22.337 16.1959C22.1756 16.8309 22.8511 17.3434 23.3945 16.9986L26.6908 14.9111C26.7834 14.8522 26.8909 14.8209 27.0007 14.8209C27.1105 14.8209 27.218 14.8522 27.3106 14.9111H27.3101Z" fill="#FF8A00"/>
<path d="M45.3101 14.9111L48.8566 17.1577C49.31 17.4446 49.8725 17.0177 49.7381 16.4884L48.7138 12.4581C48.6848 12.3458 48.6882 12.2276 48.7234 12.1172C48.7586 12.0067 48.8243 11.9085 48.9129 11.8337L52.0933 9.18711C52.5106 8.83949 52.2958 8.14593 51.7586 8.11105L47.6056 7.84105C47.4938 7.83312 47.3866 7.79359 47.2964 7.72707C47.2061 7.66055 47.1367 7.56977 47.096 7.4653L45.5469 3.56493C45.5047 3.45408 45.4298 3.35867 45.3322 3.29136C45.2345 3.22404 45.1187 3.18799 45.0001 3.18799C44.8815 3.18799 44.7657 3.22404 44.6681 3.29136C44.5705 3.35867 44.4956 3.45408 44.4534 3.56493L42.9043 7.4653C42.8637 7.56988 42.7943 7.66077 42.7041 7.7274C42.6138 7.79402 42.5065 7.83364 42.3946 7.84161L38.2417 8.11161C37.7051 8.14593 37.4891 8.83949 37.907 9.18711L41.0874 11.8342C41.1759 11.909 41.2415 12.0072 41.2767 12.1175C41.3119 12.2278 41.3153 12.3459 41.2865 12.4581L40.337 16.1959C40.1756 16.8309 40.8511 17.3434 41.3945 16.9986L44.6908 14.9111C44.7834 14.8522 44.8909 14.8209 45.0007 14.8209C45.1105 14.8209 45.218 14.8522 45.3106 14.9111H45.3101Z" fill="#FF8A00"/>
<path d="M63.3101 14.9111L66.8566 17.1577C67.31 17.4446 67.8725 17.0177 67.7381 16.4884L66.7138 12.4581C66.6848 12.3458 66.6882 12.2276 66.7234 12.1172C66.7586 12.0067 66.8243 11.9085 66.9129 11.8337L70.0933 9.18711C70.5106 8.83949 70.2958 8.14593 69.7586 8.11105L65.6056 7.84105C65.4938 7.83312 65.3866 7.79359 65.2964 7.72707C65.2061 7.66055 65.1367 7.56977 65.096 7.4653L63.5469 3.56493C63.5047 3.45408 63.4298 3.35867 63.3322 3.29136C63.2345 3.22404 63.1187 3.18799 63.0001 3.18799C62.8815 3.18799 62.7657 3.22404 62.6681 3.29136C62.5705 3.35867 62.4956 3.45408 62.4534 3.56493L60.9043 7.4653C60.8637 7.56988 60.7943 7.66077 60.7041 7.7274C60.6138 7.79402 60.5065 7.83364 60.3946 7.84161L56.2417 8.11161C55.7051 8.14593 55.4891 8.83949 55.907 9.18711L59.0874 11.8342C59.1759 11.909 59.2415 12.0072 59.2767 12.1175C59.3119 12.2278 59.3153 12.3459 59.2865 12.4581L58.337 16.1959C58.1756 16.8309 58.8511 17.3434 59.3945 16.9986L62.6908 14.9111C62.7834 14.8522 62.8909 14.8209 63.0007 14.8209C63.1105 14.8209 63.218 14.8522 63.3106 14.9111H63.3101Z" fill="#FF8A00"/>
<path d="M81.3101 14.9111L84.8566 17.1577C85.31 17.4446 85.8725 17.0177 85.7381 16.4884L84.7138 12.4581C84.6848 12.3458 84.6882 12.2276 84.7234 12.1172C84.7586 12.0067 84.8243 11.9085 84.9129 11.8337L88.0933 9.18711C88.5106 8.83949 88.2958 8.14593 87.7586 8.11105L83.6056 7.84105C83.4938 7.83312 83.3866 7.79359 83.2964 7.72707C83.2061 7.66055 83.1367 7.56977 83.096 7.4653L81.5469 3.56493C81.5047 3.45408 81.4298 3.35867 81.3322 3.29136C81.2345 3.22404 81.1187 3.18799 81.0001 3.18799C80.8815 3.18799 80.7657 3.22404 80.6681 3.29136C80.5705 3.35867 80.4956 3.45408 80.4534 3.56493L78.9043 7.4653C78.8637 7.56988 78.7943 7.66077 78.7041 7.7274C78.6138 7.79402 78.5065 7.83364 78.3946 7.84161L74.2417 8.11161C73.7051 8.14593 73.4891 8.83949 73.907 9.18711L77.0874 11.8342C77.1759 11.909 77.2415 12.0072 77.2767 12.1175C77.3119 12.2278 77.3153 12.3459 77.2865 12.4581L76.337 16.1959C76.1756 16.8309 76.8511 17.3434 77.3945 16.9986L80.6908 14.9111C80.7834 14.8522 80.8909 14.8209 81.0007 14.8209C81.1105 14.8209 81.218 14.8522 81.3106 14.9111H81.3101Z" fill="#FF8A00"/>
<path d="M94.2924 12.746V11.78L99.2064 4.976H100.732V11.64H102.132V12.746H100.732V15H99.4724V12.746H94.2924ZM99.5284 6.306L95.7624 11.64H99.5284V6.306ZM112.486 15L110.162 11.01H108.622V15H107.348V5.242H110.498C111.235 5.242 111.856 5.368 112.36 5.62C112.873 5.872 113.256 6.21267 113.508 6.642C113.76 7.07133 113.886 7.56133 113.886 8.112C113.886 8.784 113.69 9.37667 113.298 9.89C112.915 10.4033 112.336 10.744 111.562 10.912L114.012 15H112.486ZM108.622 9.988H110.498C111.188 9.988 111.706 9.82 112.052 9.484C112.397 9.13867 112.57 8.68133 112.57 8.112C112.57 7.53333 112.397 7.08533 112.052 6.768C111.716 6.45067 111.198 6.292 110.498 6.292H108.622V9.988ZM122.865 10.87C122.865 11.1127 122.851 11.3693 122.823 11.64H116.691C116.738 12.396 116.994 12.9887 117.461 13.418C117.937 13.838 118.511 14.048 119.183 14.048C119.734 14.048 120.191 13.922 120.555 13.67C120.928 13.4087 121.19 13.0633 121.339 12.634H122.711C122.506 13.3713 122.095 13.9733 121.479 14.44C120.863 14.8973 120.098 15.126 119.183 15.126C118.455 15.126 117.802 14.9627 117.223 14.636C116.654 14.3093 116.206 13.8473 115.879 13.25C115.552 12.6433 115.389 11.9433 115.389 11.15C115.389 10.3567 115.548 9.66133 115.865 9.064C116.182 8.46667 116.626 8.00933 117.195 7.692C117.774 7.36533 118.436 7.202 119.183 7.202C119.911 7.202 120.555 7.36067 121.115 7.678C121.675 7.99533 122.104 8.434 122.403 8.994C122.711 9.54467 122.865 10.17 122.865 10.87ZM121.549 10.604C121.549 10.1187 121.442 9.70333 121.227 9.358C121.012 9.00333 120.718 8.73733 120.345 8.56C119.981 8.37333 119.575 8.28 119.127 8.28C118.483 8.28 117.932 8.48533 117.475 8.896C117.027 9.30667 116.77 9.876 116.705 10.604H121.549ZM127.403 13.824L129.783 7.328H131.141L128.131 15H126.647L123.637 7.328H125.009L127.403 13.824ZM133.052 6.082C132.81 6.082 132.604 5.998 132.436 5.83C132.268 5.662 132.184 5.45667 132.184 5.214C132.184 4.97133 132.268 4.766 132.436 4.598C132.604 4.43 132.81 4.346 133.052 4.346C133.286 4.346 133.482 4.43 133.64 4.598C133.808 4.766 133.892 4.97133 133.892 5.214C133.892 5.45667 133.808 5.662 133.64 5.83C133.482 5.998 133.286 6.082 133.052 6.082ZM133.668 7.328V15H132.394V7.328H133.668ZM142.84 10.87C142.84 11.1127 142.826 11.3693 142.798 11.64H136.666C136.712 12.396 136.969 12.9887 137.436 13.418C137.912 13.838 138.486 14.048 139.158 14.048C139.708 14.048 140.166 13.922 140.53 13.67C140.903 13.4087 141.164 13.0633 141.314 12.634H142.686C142.48 13.3713 142.07 13.9733 141.454 14.44C140.838 14.8973 140.072 15.126 139.158 15.126C138.43 15.126 137.776 14.9627 137.198 14.636C136.628 14.3093 136.18 13.8473 135.854 13.25C135.527 12.6433 135.364 11.9433 135.364 11.15C135.364 10.3567 135.522 9.66133 135.84 9.064C136.157 8.46667 136.6 8.00933 137.17 7.692C137.748 7.36533 138.411 7.202 139.158 7.202C139.886 7.202 140.53 7.36067 141.09 7.678C141.65 7.99533 142.079 8.434 142.378 8.994C142.686 9.54467 142.84 10.17 142.84 10.87ZM141.524 10.604C141.524 10.1187 141.416 9.70333 141.202 9.358C140.987 9.00333 140.693 8.73733 140.32 8.56C139.956 8.37333 139.55 8.28 139.102 8.28C138.458 8.28 137.907 8.48533 137.45 8.896C137.002 9.30667 136.745 9.876 136.68 10.604H141.524ZM154.741 7.328L152.347 15H151.031L149.183 8.91L147.335 15H146.019L143.611 7.328H144.913L146.677 13.768L148.581 7.328H149.883L151.745 13.782L153.481 7.328H154.741Z" fill="#666666"/>
<path d="M170.22 12.158C169.884 12.158 169.576 12.0787 169.296 11.92C169.025 11.752 168.806 11.5327 168.638 11.262C168.479 10.982 168.4 10.674 168.4 10.338C168.4 9.82467 168.577 9.39067 168.932 9.036C169.287 8.68133 169.716 8.504 170.22 8.504C170.743 8.504 171.181 8.68133 171.536 9.036C171.891 9.39067 172.068 9.82467 172.068 10.338C172.068 10.8513 171.891 11.2853 171.536 11.64C171.181 11.9853 170.743 12.158 170.22 12.158Z" fill="#B3B3B3"/>
<path d="M190.256 15.098C189.603 15.098 189.015 14.986 188.492 14.762C187.969 14.5287 187.559 14.202 187.26 13.782C186.961 13.362 186.812 12.872 186.812 12.312H188.52C188.557 12.732 188.721 13.0773 189.01 13.348C189.309 13.6187 189.724 13.754 190.256 13.754C190.807 13.754 191.236 13.6233 191.544 13.362C191.852 13.0913 192.006 12.746 192.006 12.326C192.006 11.9993 191.908 11.7333 191.712 11.528C191.525 11.3227 191.287 11.164 190.998 11.052C190.718 10.94 190.326 10.8187 189.822 10.688C189.187 10.52 188.669 10.352 188.268 10.184C187.876 10.0067 187.54 9.736 187.26 9.372C186.98 9.008 186.84 8.52267 186.84 7.916C186.84 7.356 186.98 6.866 187.26 6.446C187.54 6.026 187.932 5.704 188.436 5.48C188.94 5.256 189.523 5.144 190.186 5.144C191.129 5.144 191.899 5.382 192.496 5.858C193.103 6.32467 193.439 6.96867 193.504 7.79H191.74C191.712 7.43533 191.544 7.132 191.236 6.88C190.928 6.628 190.522 6.502 190.018 6.502C189.561 6.502 189.187 6.61867 188.898 6.852C188.609 7.08533 188.464 7.42133 188.464 7.86C188.464 8.15867 188.553 8.406 188.73 8.602C188.917 8.78867 189.15 8.938 189.43 9.05C189.71 9.162 190.093 9.28333 190.578 9.414C191.222 9.59133 191.745 9.76867 192.146 9.946C192.557 10.1233 192.902 10.3987 193.182 10.772C193.471 11.136 193.616 11.626 193.616 12.242C193.616 12.7367 193.481 13.2033 193.21 13.642C192.949 14.0807 192.561 14.4353 192.048 14.706C191.544 14.9673 190.947 15.098 190.256 15.098ZM200.861 15L197.095 10.646V15H195.499V5.27H197.095V9.708L200.875 5.27H202.877L198.649 10.142L202.947 15H200.861ZM205.941 5.27V11.472C205.941 12.2093 206.132 12.7647 206.515 13.138C206.907 13.5113 207.448 13.698 208.139 13.698C208.839 13.698 209.38 13.5113 209.763 13.138C210.155 12.7647 210.351 12.2093 210.351 11.472V5.27H211.947V11.444C211.947 12.2373 211.774 12.9093 211.429 13.46C211.083 14.0107 210.621 14.4213 210.043 14.692C209.464 14.9627 208.825 15.098 208.125 15.098C207.425 15.098 206.785 14.9627 206.207 14.692C205.637 14.4213 205.185 14.0107 204.849 13.46C204.513 12.9093 204.345 12.2373 204.345 11.444V5.27H205.941ZM214.669 15.098C214.379 15.098 214.137 15 213.941 14.804C213.745 14.608 213.647 14.3653 213.647 14.076C213.647 13.7867 213.745 13.544 213.941 13.348C214.137 13.152 214.379 13.054 214.669 13.054C214.949 13.054 215.187 13.152 215.383 13.348C215.579 13.544 215.677 13.7867 215.677 14.076C215.677 14.3653 215.579 14.608 215.383 14.804C215.187 15 214.949 15.098 214.669 15.098ZM214.669 9.218C214.379 9.218 214.137 9.12 213.941 8.924C213.745 8.728 213.647 8.48533 213.647 8.196C213.647 7.90667 213.745 7.664 213.941 7.468C214.137 7.272 214.379 7.174 214.669 7.174C214.949 7.174 215.187 7.272 215.383 7.468C215.579 7.664 215.677 7.90667 215.677 8.196C215.677 8.48533 215.579 8.728 215.383 8.924C215.187 9.12 214.949 9.218 214.669 9.218Z" fill="#333333"/>
<path d="M221.714 13.978C222.899 13.026 223.828 12.2467 224.5 11.64C225.172 11.024 225.737 10.3847 226.194 9.722C226.661 9.05 226.894 8.392 226.894 7.748C226.894 7.14133 226.745 6.66533 226.446 6.32C226.157 5.96533 225.685 5.788 225.032 5.788C224.397 5.788 223.903 5.98867 223.548 6.39C223.203 6.782 223.016 7.30933 222.988 7.972H221.756C221.793 6.92667 222.111 6.11933 222.708 5.55C223.305 4.98067 224.075 4.696 225.018 4.696C225.979 4.696 226.74 4.962 227.3 5.494C227.869 6.026 228.154 6.75867 228.154 7.692C228.154 8.46667 227.921 9.22267 227.454 9.96C226.997 10.688 226.474 11.332 225.886 11.892C225.298 12.4427 224.547 13.0867 223.632 13.824H228.448V14.888H221.714V13.978ZM231.447 13.236L229.879 17.002H229.025L230.047 13.236H231.447ZM239.15 5.984H234.236V9.176C234.451 8.87733 234.768 8.63467 235.188 8.448C235.608 8.252 236.061 8.154 236.546 8.154C237.321 8.154 237.951 8.31733 238.436 8.644C238.921 8.96133 239.267 9.37667 239.472 9.89C239.687 10.394 239.794 10.9307 239.794 11.5C239.794 12.172 239.668 12.774 239.416 13.306C239.164 13.838 238.777 14.258 238.254 14.566C237.741 14.874 237.101 15.028 236.336 15.028C235.356 15.028 234.563 14.776 233.956 14.272C233.349 13.768 232.981 13.096 232.85 12.256H234.096C234.217 12.788 234.474 13.2033 234.866 13.502C235.258 13.8007 235.753 13.95 236.35 13.95C237.087 13.95 237.643 13.7307 238.016 13.292C238.389 12.844 238.576 12.256 238.576 11.528C238.576 10.8 238.389 10.24 238.016 9.848C237.643 9.44667 237.092 9.246 236.364 9.246C235.869 9.246 235.435 9.36733 235.062 9.61C234.698 9.84333 234.432 10.1653 234.264 10.576H233.06V4.864H239.15V5.984ZM241.151 6.04V4.878H243.783V15H242.495V6.04H241.151ZM247.498 13.236L245.93 17.002H245.076L246.098 13.236H247.498ZM255.201 5.984H250.287V9.176C250.502 8.87733 250.819 8.63467 251.239 8.448C251.659 8.252 252.112 8.154 252.597 8.154C253.372 8.154 254.002 8.31733 254.487 8.644C254.972 8.96133 255.318 9.37667 255.523 9.89C255.738 10.394 255.845 10.9307 255.845 11.5C255.845 12.172 255.719 12.774 255.467 13.306C255.215 13.838 254.828 14.258 254.305 14.566C253.792 14.874 253.152 15.028 252.387 15.028C251.407 15.028 250.614 14.776 250.007 14.272C249.4 13.768 249.032 13.096 248.901 12.256H250.147C250.268 12.788 250.525 13.2033 250.917 13.502C251.309 13.8007 251.804 13.95 252.401 13.95C253.138 13.95 253.694 13.7307 254.067 13.292C254.44 12.844 254.627 12.256 254.627 11.528C254.627 10.8 254.44 10.24 254.067 9.848C253.694 9.44667 253.143 9.246 252.415 9.246C251.92 9.246 251.486 9.36733 251.113 9.61C250.749 9.84333 250.483 10.1653 250.315 10.576H249.111V4.864H255.201V5.984ZM259.176 12.284C259.269 12.816 259.484 13.2267 259.82 13.516C260.165 13.8053 260.627 13.95 261.206 13.95C261.981 13.95 262.55 13.6467 262.914 13.04C263.287 12.4333 263.465 11.4113 263.446 9.974C263.25 10.394 262.923 10.7253 262.466 10.968C262.009 11.2013 261.5 11.318 260.94 11.318C260.315 11.318 259.755 11.192 259.26 10.94C258.775 10.6787 258.392 10.3007 258.112 9.806C257.832 9.31133 257.692 8.714 257.692 8.014C257.692 7.01533 257.981 6.21267 258.56 5.606C259.139 4.99 259.96 4.682 261.024 4.682C262.331 4.682 263.245 5.10667 263.768 5.956C264.3 6.80533 264.566 8.07 264.566 9.75C264.566 10.926 264.459 11.8967 264.244 12.662C264.039 13.4273 263.684 14.0107 263.18 14.412C262.685 14.8133 262.004 15.014 261.136 15.014C260.184 15.014 259.442 14.7573 258.91 14.244C258.378 13.7307 258.075 13.0773 258 12.284H259.176ZM261.15 10.24C261.775 10.24 262.289 10.0487 262.69 9.666C263.091 9.274 263.292 8.74667 263.292 8.084C263.292 7.384 263.096 6.81933 262.704 6.39C262.312 5.96067 261.761 5.746 261.052 5.746C260.399 5.746 259.876 5.95133 259.484 6.362C259.101 6.77267 258.91 7.314 258.91 7.986C258.91 8.66733 259.101 9.21333 259.484 9.624C259.867 10.0347 260.422 10.24 261.15 10.24ZM266.048 12.746V11.78L270.962 4.976H272.488V11.64H273.888V12.746H272.488V15H271.228V12.746H266.048ZM271.284 6.306L267.518 11.64H271.284V6.306Z" fill="#666666"/>
</svg>
