<svg width="228" height="52" viewBox="0 0 228 52" fill="none" xmlns="http://www.w3.org/2000/svg">
<path d="M6.41769 17.144C6.41769 14.392 6.86569 12.248 7.76169 10.712C8.65769 9.16 10.2257 8.384 12.4657 8.384C14.6897 8.384 16.2497 9.16 17.1457 10.712C18.0417 12.248 18.4897 14.392 18.4897 17.144C18.4897 19.944 18.0417 22.12 17.1457 23.672C16.2497 25.224 14.6897 26 12.4657 26C10.2257 26 8.65769 25.224 7.76169 23.672C6.86569 22.12 6.41769 19.944 6.41769 17.144ZM16.3297 17.144C16.3297 15.752 16.2337 14.576 16.0417 13.616C15.8657 12.64 15.4897 11.856 14.9137 11.264C14.3537 10.672 13.5377 10.376 12.4657 10.376C11.3777 10.376 10.5457 10.672 9.96969 11.264C9.40969 11.856 9.03369 12.64 8.84169 13.616C8.66569 14.576 8.57769 15.752 8.57769 17.144C8.57769 18.584 8.66569 19.792 8.84169 20.768C9.03369 21.744 9.40969 22.528 9.96969 23.12C10.5457 23.712 11.3777 24.008 12.4657 24.008C13.5377 24.008 14.3537 23.712 14.9137 23.12C15.4897 22.528 15.8657 21.744 16.0417 20.768C16.2337 19.792 16.3297 18.584 16.3297 17.144ZM21.488 17.144C21.488 14.392 21.936 12.248 22.832 10.712C23.728 9.16 25.296 8.384 27.536 8.384C29.76 8.384 31.32 9.16 32.216 10.712C33.112 12.248 33.56 14.392 33.56 17.144C33.56 19.944 33.112 22.12 32.216 23.672C31.32 25.224 29.76 26 27.536 26C25.296 26 23.728 25.224 22.832 23.672C21.936 22.12 21.488 19.944 21.488 17.144ZM31.4 17.144C31.4 15.752 31.304 14.576 31.112 13.616C30.936 12.64 30.56 11.856 29.984 11.264C29.424 10.672 28.608 10.376 27.536 10.376C26.448 10.376 25.616 10.672 25.04 11.264C24.48 11.856 24.104 12.64 23.912 13.616C23.736 14.576 23.648 15.752 23.648 17.144C23.648 18.584 23.736 19.792 23.912 20.768C24.104 21.744 24.48 22.528 25.04 23.12C25.616 23.712 26.448 24.008 27.536 24.008C28.608 24.008 29.424 23.712 29.984 23.12C30.56 22.528 30.936 21.744 31.112 20.768C31.304 19.792 31.4 18.584 31.4 17.144Z" fill="#00B307"/>
<path opacity="0.5" d="M7.67745 41.636C8.58945 41.636 9.37745 41.808 10.0415 42.152C10.7135 42.488 11.2255 42.972 11.5775 43.604C11.9375 44.236 12.1175 44.98 12.1175 45.836C12.1175 46.692 11.9375 47.436 11.5775 48.068C11.2255 48.692 10.7135 49.172 10.0415 49.508C9.37745 49.836 8.58945 50 7.67745 50H5.07345V41.636H7.67745ZM7.67745 49.1C8.75745 49.1 9.58145 48.816 10.1495 48.248C10.7175 47.672 11.0015 46.868 11.0015 45.836C11.0015 44.796 10.7135 43.984 10.1375 43.4C9.56945 42.816 8.74945 42.524 7.67745 42.524H6.16545V49.1H7.67745ZM18.8618 48.14H15.2138L14.5418 50H13.3898L16.4138 41.684H17.6738L20.6858 50H19.5338L18.8618 48.14ZM18.5498 47.252L17.0378 43.028L15.5258 47.252H18.5498ZM28.2198 41.636L25.4958 46.844V50H24.4038V46.844L21.6678 41.636H22.8798L24.9438 45.872L27.0078 41.636H28.2198ZM32.3836 50.084C31.8316 50.084 31.3356 49.988 30.8956 49.796C30.4636 49.596 30.1236 49.324 29.8756 48.98C29.6276 48.628 29.4996 48.224 29.4916 47.768H30.6556C30.6956 48.16 30.8556 48.492 31.1356 48.764C31.4236 49.028 31.8396 49.16 32.3836 49.16C32.9036 49.16 33.3116 49.032 33.6076 48.776C33.9116 48.512 34.0636 48.176 34.0636 47.768C34.0636 47.448 33.9756 47.188 33.7996 46.988C33.6236 46.788 33.4036 46.636 33.1396 46.532C32.8756 46.428 32.5196 46.316 32.0716 46.196C31.5196 46.052 31.0756 45.908 30.7396 45.764C30.4116 45.62 30.1276 45.396 29.8876 45.092C29.6556 44.78 29.5396 44.364 29.5396 43.844C29.5396 43.388 29.6556 42.984 29.8876 42.632C30.1196 42.28 30.4436 42.008 30.8596 41.816C31.2836 41.624 31.7676 41.528 32.3116 41.528C33.0956 41.528 33.7356 41.724 34.2316 42.116C34.7356 42.508 35.0196 43.028 35.0836 43.676H33.8836C33.8436 43.356 33.6756 43.076 33.3796 42.836C33.0836 42.588 32.6916 42.464 32.2036 42.464C31.7476 42.464 31.3756 42.584 31.0876 42.824C30.7996 43.056 30.6556 43.384 30.6556 43.808C30.6556 44.112 30.7396 44.36 30.9076 44.552C31.0836 44.744 31.2956 44.892 31.5436 44.996C31.7996 45.092 32.1556 45.204 32.6116 45.332C33.1636 45.484 33.6076 45.636 33.9436 45.788C34.2796 45.932 34.5676 46.16 34.8076 46.472C35.0476 46.776 35.1676 47.192 35.1676 47.72C35.1676 48.128 35.0596 48.512 34.8436 48.872C34.6276 49.232 34.3076 49.524 33.8836 49.748C33.4596 49.972 32.9596 50.084 32.3836 50.084Z" fill="white"/>
<path opacity="0.5" d="M50.9893 26.144C50.5733 26.144 50.2213 26 49.9333 25.712C49.6453 25.424 49.5013 25.072 49.5013 24.656C49.5013 24.24 49.6453 23.888 49.9333 23.6C50.2213 23.312 50.5733 23.168 50.9893 23.168C51.3893 23.168 51.7253 23.312 51.9973 23.6C52.2853 23.888 52.4293 24.24 52.4293 24.656C52.4293 25.072 52.2853 25.424 51.9973 25.712C51.7253 26 51.3893 26.144 50.9893 26.144ZM50.9893 15.872C50.5733 15.872 50.2213 15.728 49.9333 15.44C49.6453 15.152 49.5013 14.8 49.5013 14.384C49.5013 13.968 49.6453 13.616 49.9333 13.328C50.2213 13.04 50.5733 12.896 50.9893 12.896C51.3893 12.896 51.7253 13.04 51.9973 13.328C52.2853 13.616 52.4293 13.968 52.4293 14.384C52.4293 14.8 52.2853 15.152 51.9973 15.44C51.7253 15.728 51.3893 15.872 50.9893 15.872Z" fill="white"/>
<path d="M70.0505 17.144C70.0505 14.392 70.4985 12.248 71.3945 10.712C72.2905 9.16 73.8585 8.384 76.0985 8.384C78.3225 8.384 79.8825 9.16 80.7785 10.712C81.6745 12.248 82.1225 14.392 82.1225 17.144C82.1225 19.944 81.6745 22.12 80.7785 23.672C79.8825 25.224 78.3225 26 76.0985 26C73.8585 26 72.2905 25.224 71.3945 23.672C70.4985 22.12 70.0505 19.944 70.0505 17.144ZM79.9625 17.144C79.9625 15.752 79.8665 14.576 79.6745 13.616C79.4985 12.64 79.1225 11.856 78.5465 11.264C77.9865 10.672 77.1705 10.376 76.0985 10.376C75.0105 10.376 74.1785 10.672 73.6025 11.264C73.0425 11.856 72.6665 12.64 72.4745 13.616C72.2985 14.576 72.2105 15.752 72.2105 17.144C72.2105 18.584 72.2985 19.792 72.4745 20.768C72.6665 21.744 73.0425 22.528 73.6025 23.12C74.1785 23.712 75.0105 24.008 76.0985 24.008C77.1705 24.008 77.9865 23.712 78.5465 23.12C79.1225 22.528 79.4985 21.744 79.6745 20.768C79.8665 19.792 79.9625 18.584 79.9625 17.144ZM84.8568 24.248C86.8888 22.616 88.4808 21.28 89.6328 20.24C90.7848 19.184 91.7528 18.088 92.5368 16.952C93.3368 15.8 93.7368 14.672 93.7368 13.568C93.7368 12.528 93.4808 11.712 92.9688 11.12C92.4728 10.512 91.6648 10.208 90.5448 10.208C89.4568 10.208 88.6088 10.552 88.0008 11.24C87.4088 11.912 87.0888 12.816 87.0408 13.952H84.9288C84.9928 12.16 85.5368 10.776 86.5608 9.8C87.5848 8.824 88.9048 8.336 90.5208 8.336C92.1688 8.336 93.4728 8.792 94.4328 9.704C95.4088 10.616 95.8968 11.872 95.8968 13.472C95.8968 14.8 95.4968 16.096 94.6968 17.36C93.9128 18.608 93.0168 19.712 92.0088 20.672C91.0008 21.616 89.7128 22.72 88.1448 23.984H96.4008V25.808H84.8568V24.248Z" fill="#00B307"/>
<path opacity="0.5" d="M69.5562 41.636V50H68.4642V46.208H64.2042V50H63.1122V41.636H64.2042V45.308H68.4642V41.636H69.5562ZM75.5728 50.084C74.7968 50.084 74.0888 49.904 73.4488 49.544C72.8088 49.176 72.3008 48.668 71.9248 48.02C71.5568 47.364 71.3728 46.628 71.3728 45.812C71.3728 44.996 71.5568 44.264 71.9248 43.616C72.3008 42.96 72.8088 42.452 73.4488 42.092C74.0888 41.724 74.7968 41.54 75.5728 41.54C76.3568 41.54 77.0688 41.724 77.7088 42.092C78.3488 42.452 78.8528 42.956 79.2208 43.604C79.5888 44.252 79.7728 44.988 79.7728 45.812C79.7728 46.636 79.5888 47.372 79.2208 48.02C78.8528 48.668 78.3488 49.176 77.7088 49.544C77.0688 49.904 76.3568 50.084 75.5728 50.084ZM75.5728 49.136C76.1568 49.136 76.6808 49 77.1448 48.728C77.6168 48.456 77.9848 48.068 78.2488 47.564C78.5208 47.06 78.6568 46.476 78.6568 45.812C78.6568 45.14 78.5208 44.556 78.2488 44.06C77.9848 43.556 77.6208 43.168 77.1568 42.896C76.6928 42.624 76.1648 42.488 75.5728 42.488C74.9808 42.488 74.4528 42.624 73.9888 42.896C73.5248 43.168 73.1568 43.556 72.8848 44.06C72.6208 44.556 72.4888 45.14 72.4888 45.812C72.4888 46.476 72.6208 47.06 72.8848 47.564C73.1568 48.068 73.5248 48.456 73.9888 48.728C74.4608 49 74.9888 49.136 75.5728 49.136ZM82.6424 41.636V46.928C82.6424 47.672 82.8224 48.224 83.1824 48.584C83.5504 48.944 84.0584 49.124 84.7064 49.124C85.3464 49.124 85.8464 48.944 86.2064 48.584C86.5744 48.224 86.7584 47.672 86.7584 46.928V41.636H87.8504V46.916C87.8504 47.612 87.7104 48.2 87.4304 48.68C87.1504 49.152 86.7704 49.504 86.2904 49.736C85.8184 49.968 85.2864 50.084 84.6944 50.084C84.1024 50.084 83.5664 49.968 83.0864 49.736C82.6144 49.504 82.2384 49.152 81.9584 48.68C81.6864 48.2 81.5504 47.612 81.5504 46.916V41.636H82.6424ZM94.436 50L92.444 46.58H91.124V50H90.032V41.636H92.732C93.364 41.636 93.896 41.744 94.328 41.96C94.768 42.176 95.096 42.468 95.312 42.836C95.528 43.204 95.636 43.624 95.636 44.096C95.636 44.672 95.468 45.18 95.132 45.62C94.804 46.06 94.308 46.352 93.644 46.496L95.744 50H94.436ZM91.124 45.704H92.732C93.324 45.704 93.768 45.56 94.064 45.272C94.36 44.976 94.508 44.584 94.508 44.096C94.508 43.6 94.36 43.216 94.064 42.944C93.776 42.672 93.332 42.536 92.732 42.536H91.124V45.704ZM100.345 50.084C99.7928 50.084 99.2968 49.988 98.8568 49.796C98.4248 49.596 98.0848 49.324 97.8368 48.98C97.5888 48.628 97.4608 48.224 97.4528 47.768H98.6168C98.6568 48.16 98.8168 48.492 99.0968 48.764C99.3848 49.028 99.8008 49.16 100.345 49.16C100.865 49.16 101.273 49.032 101.569 48.776C101.873 48.512 102.025 48.176 102.025 47.768C102.025 47.448 101.937 47.188 101.761 46.988C101.585 46.788 101.365 46.636 101.101 46.532C100.837 46.428 100.481 46.316 100.033 46.196C99.4808 46.052 99.0368 45.908 98.7008 45.764C98.3728 45.62 98.0888 45.396 97.8488 45.092C97.6168 44.78 97.5008 44.364 97.5008 43.844C97.5008 43.388 97.6168 42.984 97.8488 42.632C98.0808 42.28 98.4048 42.008 98.8208 41.816C99.2448 41.624 99.7288 41.528 100.273 41.528C101.057 41.528 101.697 41.724 102.193 42.116C102.697 42.508 102.981 43.028 103.045 43.676H101.845C101.805 43.356 101.637 43.076 101.341 42.836C101.045 42.588 100.653 42.464 100.165 42.464C99.7088 42.464 99.3368 42.584 99.0488 42.824C98.7608 43.056 98.6168 43.384 98.6168 43.808C98.6168 44.112 98.7008 44.36 98.8688 44.552C99.0448 44.744 99.2568 44.892 99.5048 44.996C99.7608 45.092 100.117 45.204 100.573 45.332C101.125 45.484 101.569 45.636 101.905 45.788C102.241 45.932 102.529 46.16 102.769 46.472C103.009 46.776 103.129 47.192 103.129 47.72C103.129 48.128 103.021 48.512 102.805 48.872C102.589 49.232 102.269 49.524 101.845 49.748C101.421 49.972 100.921 50.084 100.345 50.084Z" fill="white"/>
<path opacity="0.5" d="M114.989 26.144C114.573 26.144 114.221 26 113.933 25.712C113.645 25.424 113.501 25.072 113.501 24.656C113.501 24.24 113.645 23.888 113.933 23.6C114.221 23.312 114.573 23.168 114.989 23.168C115.389 23.168 115.725 23.312 115.997 23.6C116.285 23.888 116.429 24.24 116.429 24.656C116.429 25.072 116.285 25.424 115.997 25.712C115.725 26 115.389 26.144 114.989 26.144ZM114.989 15.872C114.573 15.872 114.221 15.728 113.933 15.44C113.645 15.152 113.501 14.8 113.501 14.384C113.501 13.968 113.645 13.616 113.933 13.328C114.221 13.04 114.573 12.896 114.989 12.896C115.389 12.896 115.725 13.04 115.997 13.328C116.285 13.616 116.429 13.968 116.429 14.384C116.429 14.8 116.285 15.152 115.997 15.44C115.725 15.728 115.389 15.872 114.989 15.872Z" fill="white"/>
<path d="M135.498 10.64V8.648H140.01V26H137.802V10.64H135.498ZM146.929 16.976C146.033 16.624 145.345 16.112 144.865 15.44C144.385 14.768 144.145 13.952 144.145 12.992C144.145 12.128 144.361 11.352 144.793 10.664C145.225 9.96 145.865 9.408 146.713 9.008C147.577 8.592 148.617 8.384 149.833 8.384C151.049 8.384 152.081 8.592 152.929 9.008C153.793 9.408 154.441 9.96 154.873 10.664C155.321 11.352 155.545 12.128 155.545 12.992C155.545 13.92 155.297 14.736 154.801 15.44C154.305 16.128 153.625 16.64 152.761 16.976C153.753 17.28 154.537 17.816 155.113 18.584C155.705 19.336 156.001 20.248 156.001 21.32C156.001 22.36 155.745 23.272 155.233 24.056C154.721 24.824 153.993 25.424 153.049 25.856C152.121 26.272 151.049 26.48 149.833 26.48C148.617 26.48 147.545 26.272 146.617 25.856C145.705 25.424 144.993 24.824 144.481 24.056C143.969 23.272 143.713 22.36 143.713 21.32C143.713 20.248 144.001 19.328 144.577 18.56C145.153 17.792 145.937 17.264 146.929 16.976ZM153.433 13.256C153.433 12.28 153.113 11.528 152.473 11C151.833 10.472 150.953 10.208 149.833 10.208C148.729 10.208 147.857 10.472 147.217 11C146.577 11.528 146.257 12.288 146.257 13.28C146.257 14.176 146.585 14.896 147.241 15.44C147.913 15.984 148.777 16.256 149.833 16.256C150.905 16.256 151.769 15.984 152.425 15.44C153.097 14.88 153.433 14.152 153.433 13.256ZM149.833 17.936C148.649 17.936 147.681 18.216 146.929 18.776C146.177 19.32 145.801 20.144 145.801 21.248C145.801 22.272 146.161 23.096 146.881 23.72C147.617 24.344 148.601 24.656 149.833 24.656C151.065 24.656 152.041 24.344 152.761 23.72C153.481 23.096 153.841 22.272 153.841 21.248C153.841 20.176 153.473 19.36 152.737 18.8C152.001 18.224 151.033 17.936 149.833 17.936Z" fill="#00B307"/>
<path opacity="0.5" d="M140.483 41.696V50H139.391V43.808L136.631 50H135.863L133.091 43.796V50H131.999V41.696H133.175L136.247 48.56L139.319 41.696H140.483ZM143.787 41.636V50H142.695V41.636H143.787ZM152.584 50H151.492L147.1 43.34V50H146.008V41.624H147.1L151.492 48.272V41.624H152.584V50ZM157.458 50.084C156.906 50.084 156.41 49.988 155.97 49.796C155.538 49.596 155.198 49.324 154.95 48.98C154.702 48.628 154.574 48.224 154.566 47.768H155.73C155.77 48.16 155.93 48.492 156.21 48.764C156.498 49.028 156.914 49.16 157.458 49.16C157.978 49.16 158.386 49.032 158.682 48.776C158.986 48.512 159.138 48.176 159.138 47.768C159.138 47.448 159.05 47.188 158.874 46.988C158.698 46.788 158.478 46.636 158.214 46.532C157.95 46.428 157.594 46.316 157.146 46.196C156.594 46.052 156.15 45.908 155.814 45.764C155.486 45.62 155.202 45.396 154.962 45.092C154.73 44.78 154.614 44.364 154.614 43.844C154.614 43.388 154.73 42.984 154.962 42.632C155.194 42.28 155.518 42.008 155.934 41.816C156.358 41.624 156.842 41.528 157.386 41.528C158.17 41.528 158.81 41.724 159.306 42.116C159.81 42.508 160.094 43.028 160.158 43.676H158.958C158.918 43.356 158.75 43.076 158.454 42.836C158.158 42.588 157.766 42.464 157.278 42.464C156.822 42.464 156.45 42.584 156.162 42.824C155.874 43.056 155.73 43.384 155.73 43.808C155.73 44.112 155.814 44.36 155.982 44.552C156.158 44.744 156.37 44.892 156.618 44.996C156.874 45.092 157.23 45.204 157.686 45.332C158.238 45.484 158.682 45.636 159.018 45.788C159.354 45.932 159.642 46.16 159.882 46.472C160.122 46.776 160.242 47.192 160.242 47.72C160.242 48.128 160.134 48.512 159.918 48.872C159.702 49.232 159.382 49.524 158.958 49.748C158.534 49.972 158.034 50.084 157.458 50.084Z" fill="white"/>
<path opacity="0.5" d="M176.989 26.144C176.573 26.144 176.221 26 175.933 25.712C175.645 25.424 175.501 25.072 175.501 24.656C175.501 24.24 175.645 23.888 175.933 23.6C176.221 23.312 176.573 23.168 176.989 23.168C177.389 23.168 177.725 23.312 177.997 23.6C178.285 23.888 178.429 24.24 178.429 24.656C178.429 25.072 178.285 25.424 177.997 25.712C177.725 26 177.389 26.144 176.989 26.144ZM176.989 15.872C176.573 15.872 176.221 15.728 175.933 15.44C175.645 15.152 175.501 14.8 175.501 14.384C175.501 13.968 175.645 13.616 175.933 13.328C176.221 13.04 176.573 12.896 176.989 12.896C177.389 12.896 177.725 13.04 177.997 13.328C178.285 13.616 178.429 13.968 178.429 14.384C178.429 14.8 178.285 15.152 177.997 15.44C177.725 15.728 177.389 15.872 176.989 15.872Z" fill="white"/>
<path d="M193.796 22.136V20.48L202.22 8.816H204.836V20.24H207.236V22.136H204.836V26H202.676V22.136H193.796ZM202.772 11.096L196.316 20.24H202.772V11.096ZM219.09 12.776C218.738 11 217.642 10.112 215.802 10.112C214.378 10.112 213.314 10.664 212.61 11.768C211.906 12.856 211.562 14.656 211.578 17.168C211.946 16.336 212.554 15.688 213.402 15.224C214.266 14.744 215.226 14.504 216.282 14.504C217.93 14.504 219.242 15.016 220.218 16.04C221.21 17.064 221.706 18.48 221.706 20.288C221.706 21.376 221.49 22.352 221.058 23.216C220.642 24.08 220.002 24.768 219.138 25.28C218.29 25.792 217.258 26.048 216.042 26.048C214.394 26.048 213.106 25.68 212.178 24.944C211.25 24.208 210.602 23.192 210.234 21.896C209.866 20.6 209.682 19 209.682 17.096C209.682 11.224 211.73 8.288 215.826 8.288C217.394 8.288 218.626 8.712 219.522 9.56C220.418 10.408 220.946 11.48 221.106 12.776H219.09ZM215.826 16.352C215.138 16.352 214.49 16.496 213.882 16.784C213.274 17.056 212.778 17.48 212.394 18.056C212.026 18.616 211.842 19.304 211.842 20.12C211.842 21.336 212.194 22.328 212.898 23.096C213.602 23.848 214.61 24.224 215.922 24.224C217.042 24.224 217.93 23.88 218.586 23.192C219.258 22.488 219.594 21.544 219.594 20.36C219.594 19.112 219.274 18.136 218.634 17.432C217.994 16.712 217.058 16.352 215.826 16.352Z" fill="#00B307"/>
<path opacity="0.5" d="M196.282 50.084C195.73 50.084 195.234 49.988 194.794 49.796C194.362 49.596 194.022 49.324 193.774 48.98C193.526 48.628 193.398 48.224 193.39 47.768H194.554C194.594 48.16 194.754 48.492 195.034 48.764C195.322 49.028 195.738 49.16 196.282 49.16C196.802 49.16 197.21 49.032 197.506 48.776C197.81 48.512 197.962 48.176 197.962 47.768C197.962 47.448 197.874 47.188 197.698 46.988C197.522 46.788 197.302 46.636 197.038 46.532C196.774 46.428 196.418 46.316 195.97 46.196C195.418 46.052 194.974 45.908 194.638 45.764C194.31 45.62 194.026 45.396 193.786 45.092C193.554 44.78 193.438 44.364 193.438 43.844C193.438 43.388 193.554 42.984 193.786 42.632C194.018 42.28 194.342 42.008 194.758 41.816C195.182 41.624 195.666 41.528 196.21 41.528C196.994 41.528 197.634 41.724 198.13 42.116C198.634 42.508 198.918 43.028 198.982 43.676H197.782C197.742 43.356 197.574 43.076 197.278 42.836C196.982 42.588 196.59 42.464 196.102 42.464C195.646 42.464 195.274 42.584 194.986 42.824C194.698 43.056 194.554 43.384 194.554 43.808C194.554 44.112 194.638 44.36 194.806 44.552C194.982 44.744 195.194 44.892 195.442 44.996C195.698 45.092 196.054 45.204 196.51 45.332C197.062 45.484 197.506 45.636 197.842 45.788C198.178 45.932 198.466 46.16 198.706 46.472C198.946 46.776 199.066 47.192 199.066 47.72C199.066 48.128 198.958 48.512 198.742 48.872C198.526 49.232 198.206 49.524 197.782 49.748C197.358 49.972 196.858 50.084 196.282 50.084ZM202.125 42.524V45.32H205.173V46.22H202.125V49.1H205.533V50H201.033V41.624H205.533V42.524H202.125ZM207.137 45.812C207.137 44.996 207.321 44.264 207.689 43.616C208.057 42.96 208.557 42.448 209.189 42.08C209.829 41.712 210.537 41.528 211.313 41.528C212.225 41.528 213.021 41.748 213.701 42.188C214.381 42.628 214.877 43.252 215.189 44.06H213.881C213.649 43.556 213.313 43.168 212.873 42.896C212.441 42.624 211.921 42.488 211.313 42.488C210.729 42.488 210.205 42.624 209.741 42.896C209.277 43.168 208.913 43.556 208.649 44.06C208.385 44.556 208.253 45.14 208.253 45.812C208.253 46.476 208.385 47.06 208.649 47.564C208.913 48.06 209.277 48.444 209.741 48.716C210.205 48.988 210.729 49.124 211.313 49.124C211.921 49.124 212.441 48.992 212.873 48.728C213.313 48.456 213.649 48.068 213.881 47.564H215.189C214.877 48.364 214.381 48.984 213.701 49.424C213.021 49.856 212.225 50.072 211.313 50.072C210.537 50.072 209.829 49.892 209.189 49.532C208.557 49.164 208.057 48.656 207.689 48.008C207.321 47.36 207.137 46.628 207.137 45.812ZM219.827 50.084C219.275 50.084 218.779 49.988 218.339 49.796C217.907 49.596 217.567 49.324 217.319 48.98C217.071 48.628 216.943 48.224 216.935 47.768H218.099C218.139 48.16 218.299 48.492 218.579 48.764C218.867 49.028 219.283 49.16 219.827 49.16C220.347 49.16 220.755 49.032 221.051 48.776C221.355 48.512 221.507 48.176 221.507 47.768C221.507 47.448 221.419 47.188 221.243 46.988C221.067 46.788 220.847 46.636 220.583 46.532C220.319 46.428 219.963 46.316 219.515 46.196C218.963 46.052 218.519 45.908 218.183 45.764C217.855 45.62 217.571 45.396 217.331 45.092C217.099 44.78 216.983 44.364 216.983 43.844C216.983 43.388 217.099 42.984 217.331 42.632C217.563 42.28 217.887 42.008 218.303 41.816C218.727 41.624 219.211 41.528 219.755 41.528C220.539 41.528 221.179 41.724 221.675 42.116C222.179 42.508 222.463 43.028 222.527 43.676H221.327C221.287 43.356 221.119 43.076 220.823 42.836C220.527 42.588 220.135 42.464 219.647 42.464C219.191 42.464 218.819 42.584 218.531 42.824C218.243 43.056 218.099 43.384 218.099 43.808C218.099 44.112 218.183 44.36 218.351 44.552C218.527 44.744 218.739 44.892 218.987 44.996C219.243 45.092 219.599 45.204 220.055 45.332C220.607 45.484 221.051 45.636 221.387 45.788C221.723 45.932 222.011 46.16 222.251 46.472C222.491 46.776 222.611 47.192 222.611 47.72C222.611 48.128 222.503 48.512 222.287 48.872C222.071 49.232 221.751 49.524 221.327 49.748C220.903 49.972 220.403 50.084 219.827 50.084Z" fill="white"/>
</svg>
